<svg xmlns="http://www.w3.org/2000/svg" width="584.577" height="535.242" viewBox="0 0 584.577 535.242">
  <g id="Businessman-amico" transform="translate(-10.35 -47.41)">
    <g id="freepik--Floor--inject-293" transform="translate(10.35 239.273)">
      <ellipse id="freepik--floor--inject-293-2" data-name="freepik--floor--inject-293" cx="292.289" cy="171.69" rx="292.289" ry="171.69" fill="#f5f5f5"/>
    </g>
    <g id="freepik--Shadows--inject-293" transform="translate(27.108 316.379)">
      <path id="freepik--Shadow--inject-293" d="M138.1,456.363,24.09,390.49,236.784,267.94l114,65.873Z" transform="translate(-24.09 -267.94)" fill="#e0e0e0"/>
      <ellipse id="freepik--shadow--inject-293-2" data-name="freepik--shadow--inject-293" cx="76.838" cy="44.371" rx="76.838" ry="44.371" transform="translate(216.841 100.865)" fill="#e0e0e0"/>
      <path id="freepik--shadow--inject-293-3" data-name="freepik--shadow--inject-293" d="M124.322,429l13.782,7.952a11.294,11.294,0,0,0,10.233,0l80.948-46.761c2.83-1.634,2.83-4.281,0-5.915l-13.77-7.952a11.294,11.294,0,0,0-10.233,0l-81.009,46.761C121.5,424.716,121.5,427.424,124.322,429Z" transform="translate(-2.54 -244.404)" fill="#e0e0e0"/>
      <ellipse id="freepik--shadow--inject-293-4" data-name="freepik--shadow--inject-293" cx="83.668" cy="48.31" rx="83.668" ry="48.31" transform="translate(367.187 70.081)" fill="#e0e0e0"/>
    </g>
    <g id="freepik--Frames--inject-293" transform="translate(75.699 47.41)">
      <g id="freepik--Diploma--inject-293" transform="translate(376.835)">
        <g id="freepik--Window--inject-293">
          <path id="Path_1820" data-name="Path 1820" d="M439.3,131.248l-2.476,1.427-61.9-35.748,2.476-1.427Z" transform="translate(-372.454 -36.847)" fill="#455a64"/>
          <path id="Path_1821" data-name="Path 1821" d="M376.96,104.776l59.421,34.309V87.579L376.96,53.27Z" transform="translate(-372.008 -46.123)" fill="#005bea"/>
          <g id="Group_1549" data-name="Group 1549" transform="translate(4.952 7.147)" opacity="0.8">
            <path id="Path_1822" data-name="Path 1822" d="M376.96,104.776l59.421,34.309V87.579L376.96,53.27Z" transform="translate(-376.96 -53.27)" fill="#fff"/>
          </g>
          <path id="Path_1823" data-name="Path 1823" d="M372.9,108.672l66.849,38.59V87.182L372.9,48.58Zm2.439-55.8,61.9,35.736v54.4l-61.861-35.772Z" transform="translate(-372.9 -47.153)" fill="#37474f"/>
          <path id="Path_1824" data-name="Path 1824" d="M374.93,106.46l2.476-1.427V53.527L374.93,52.1Z" transform="translate(-372.454 -46.38)" fill="#263238"/>
          <path id="Path_1825" data-name="Path 1825" d="M372.9,48.837l2.476-1.427,66.849,38.6-2.476,1.427Z" transform="translate(-372.9 -47.41)" fill="#455a64"/>
          <path id="Path_1826" data-name="Path 1826" d="M430.186,79.06l-2.476,1.427v60.08l2.476-1.427Z" transform="translate(-360.861 -40.458)" fill="#263238"/>
        </g>
        <path id="Path_1827" data-name="Path 1827" d="M416.093,105.692a9.233,9.233,0,0,1,4.171,7.245c0,2.659-1.866,3.744-4.171,2.439a9.208,9.208,0,0,1-4.183-7.233C411.91,105.436,413.776,104.363,416.093,105.692Z" transform="translate(-364.332 -34.733)" fill="#005bea"/>
        <path id="Path_1828" data-name="Path 1828" d="M387.936,64.728,419.4,82.889a3.513,3.513,0,0,1,1.586,2.744v.085c0,1.012-.72,1.427-1.586.915L387.936,68.5a3.488,3.488,0,0,1-1.585-2.744v-.11C386.35,64.643,387.057,64.228,387.936,64.728Z" transform="translate(-369.946 -43.653)" opacity="0.2"/>
        <g id="Group_1550" data-name="Group 1550" transform="translate(11.428 29.377)" opacity="0.2">
          <path id="Path_1829" data-name="Path 1829" d="M383.843,71.769l41.468,23.905a3.183,3.183,0,0,1,1.586,2.354c0,.781-.707,1.012-1.586.512L383.843,74.611a3.122,3.122,0,0,1-1.573-2.342C382.258,71.489,382.965,71.257,383.843,71.769Z" transform="translate(-382.27 -71.496)"/>
          <path id="Path_1830" data-name="Path 1830" d="M383.843,76.447l41.468,23.917a3.147,3.147,0,0,1,1.586,2.342c0,.793-.707,1.024-1.586.512L383.843,79.289a3.1,3.1,0,0,1-1.573-2.33C382.258,76.167,382.965,75.959,383.843,76.447Z" transform="translate(-382.27 -70.466)"/>
          <path id="Path_1831" data-name="Path 1831" d="M383.843,81.128l41.468,23.917a3.171,3.171,0,0,1,1.586,2.342c0,.793-.707,1.025-1.586.524L383.843,83.969a3.1,3.1,0,0,1-1.573-2.33C382.258,80.859,382.965,80.627,383.843,81.128Z" transform="translate(-382.27 -69.439)"/>
        </g>
        <path id="Path_1832" data-name="Path 1832" d="M414.551,112.757a5.256,5.256,0,0,1-1.037-.927,2.915,2.915,0,0,1-.768-2.439c0-.268-.378-1.146-.586-1.012a17.8,17.8,0,0,1-1.793.732c-.354.171-1.025.7-1.878-.476a2.439,2.439,0,0,1-.476-1.476,2.074,2.074,0,0,0,.561-1.939c0-.3-.488-1.22-.634-.964a3.66,3.66,0,0,0-.537,1.756,2.878,2.878,0,0,1-1.342.451,3.781,3.781,0,0,1-.854.171.39.39,0,0,1-.341-.073.829.829,0,0,1-.3-.659,1.22,1.22,0,0,1,.134-.683h0c0-.293-.354-1.11-.5-.939a2.622,2.622,0,0,1-2.439,1.22.4.4,0,0,1-.159,0,1.763,1.763,0,0,0-.061-.561,7.374,7.374,0,0,0-.2-1.354c-.073-.256-.39-.9-.549-.854-.878.256-1.586.951-2.756.622a3.782,3.782,0,0,1-.585-.268c-.183-.317.11-.988.146-1.1a5.523,5.523,0,0,1,.4-.854,1.72,1.72,0,0,0,.342-.72c0-.281-.537-1.476-.646-1.146a4.52,4.52,0,0,1-.378.768,5.757,5.757,0,0,1-2.33,1.22,3.659,3.659,0,0,1-3.232-.61,4.183,4.183,0,0,1-1.464-1.5,3.659,3.659,0,0,1-.378-1.6,6.282,6.282,0,0,1,.39-2.439,11.891,11.891,0,0,0,3.6,1.61c.988.268,2.061.549,2.708.134.366-.244.585-1.085-.3-2.439a5.207,5.207,0,0,0-1.927-1.878,4.878,4.878,0,0,0-1.964-.744,2.439,2.439,0,0,0-2.439,1.659l-.281.659a19.43,19.43,0,0,1-4.561-4.5c-.085-.11-.11,0,0,.159A22.356,22.356,0,0,0,389.6,94.5a6.184,6.184,0,0,0,1,5.61c1.708,2.439,3.549,2.537,4.415,2.366a3.586,3.586,0,0,0,1.732-.793.512.512,0,0,1,.146,0,2.951,2.951,0,0,0,.951,2.354,1.744,1.744,0,0,0,1.964.39,7.426,7.426,0,0,0,1.22-.427,3.659,3.659,0,0,0,.89,2.439c.671.634,1.22.122,1.586,0a3,3,0,0,0,.793-.39,2.57,2.57,0,0,0,.159.415c.573,1.22,1.22,1.4,1.622,1.342a6.512,6.512,0,0,0,1.61-.329,6.282,6.282,0,0,0,.683,1.561c.89,1.439,1.72,1.671,2.232,1.6a3.781,3.781,0,0,0,1.671-.744,4.7,4.7,0,0,0,.6,1.549,6.1,6.1,0,0,0,2.1,2.269C415.112,113.842,414.844,112.94,414.551,112.757Zm-19.38-18.929a2.84,2.84,0,0,1,1.317,1.659c0,.427-.354.5-.561.561a5.013,5.013,0,0,1-2.439-.22,12.281,12.281,0,0,1-3.013-1.22C391.256,92.938,392.707,92.242,395.171,93.828Z" transform="translate(-370.229 -38.151)" opacity="0.3"/>
      </g>
      <g id="freepik--diploma--inject-293-2" data-name="freepik--diploma--inject-293" transform="translate(0 1.22)">
        <g id="freepik--window--inject-293-2" data-name="freepik--window--inject-293">
          <path id="Path_1833" data-name="Path 1833" d="M65.97,132.248l2.476,1.427,61.9-35.748L127.867,96.5Z" transform="translate(-63.482 -37.847)" fill="#455a64"/>
          <path id="Path_1834" data-name="Path 1834" d="M127.421,105.776,68,140.084V88.579L127.421,54.27Z" transform="translate(-63.036 -47.123)" fill="#005bea"/>
          <g id="Group_1551" data-name="Group 1551" transform="translate(4.964 7.147)" opacity="0.8">
            <path id="Path_1835" data-name="Path 1835" d="M127.421,105.776,68,140.084V88.579L127.421,54.27Z" transform="translate(-68 -54.27)" fill="#fff"/>
          </g>
          <path id="Path_1836" data-name="Path 1836" d="M132.812,49.58,66,88.182v60.08l66.861-38.59Zm-2.439,58.653L68.439,144.005v-54.4l61.909-35.736Z" transform="translate(-63.475 -48.153)" fill="#37474f"/>
          <path id="Path_1837" data-name="Path 1837" d="M119.2,107.46l-2.476-1.427V54.527L119.2,53.1Z" transform="translate(-52.335 -47.38)" fill="#263238"/>
          <path id="Path_1838" data-name="Path 1838" d="M133.267,49.837l-2.476-1.427L63.93,87.012l2.476,1.427Z" transform="translate(-63.93 -48.41)" fill="#455a64"/>
          <path id="Path_1839" data-name="Path 1839" d="M63.93,80.06l2.476,1.427.012,60.08L63.93,140.14Z" transform="translate(-63.93 -41.458)" fill="#263238"/>
        </g>
        <path id="Path_1840" data-name="Path 1840" d="M107.911,89.5c2.317-1.329,4.183-.244,4.183,2.439a9.233,9.233,0,0,1-4.183,7.245c-2.305,1.329-4.171.244-4.171-2.439a9.233,9.233,0,0,1,4.171-7.245Z" transform="translate(-55.186 -39.509)" fill="#005bea"/>
        <path id="Path_1841" data-name="Path 1841" d="M79.756,83.794l31.467-18.185c.878-.5,1.586-.1,1.586.915v.085a3.525,3.525,0,0,1-1.586,2.756l-31.467,18.2c-.878.5-1.586.1-1.586-.915v-.11A3.488,3.488,0,0,1,79.756,83.794Z" transform="translate(-60.802 -44.679)" opacity="0.2"/>
        <g id="Group_1552" data-name="Group 1552" transform="translate(12.367 29.252)" opacity="0.2">
          <path id="Path_1842" data-name="Path 1842" d="M75.673,96.575l41.468-23.917c.866-.5,1.586-.268,1.586.524a3.22,3.22,0,0,1-1.586,2.342L75.673,99.453c-.878.5-1.573.268-1.573-.524A3.232,3.232,0,0,1,75.673,96.575Z" transform="translate(-74.063 -72.394)"/>
          <path id="Path_1843" data-name="Path 1843" d="M75.673,101.254l41.468-23.905c.866-.512,1.586-.281,1.586.512a3.183,3.183,0,0,1-1.586,2.342L75.673,104.133c-.878.512-1.573.268-1.573-.524A3.256,3.256,0,0,1,75.673,101.254Z" transform="translate(-74.063 -71.365)"/>
          <path id="Path_1844" data-name="Path 1844" d="M75.68,105.945l41.468-23.917c.866-.5,1.586-.268,1.586.512a3.22,3.22,0,0,1-1.586,2.354l-41.5,23.99c-.878.5-1.573.268-1.573-.524a3.232,3.232,0,0,1,1.61-2.415Z" transform="translate(-74.07 -70.336)"/>
        </g>
        <path id="Path_1845" data-name="Path 1845" d="M106.384,99.743a2.439,2.439,0,0,1-1.037.268c-.89,0-.8-.9-.781-1.525,0-.281-.378-.707-.585-.341-.537.976-1.22,1.866-1.793,2.817-.354.573-1.025,1.878-1.878,1.7-.354-.085-.463-.463-.463-.939a4.6,4.6,0,0,0,.549-2.573c0-.281-.488-.61-.622-.244a8.245,8.245,0,0,0-.549,2.439q-1.022,1.631-2.2,3.159c-.073.085-.22.3-.341.329s-.256-.122-.3-.317a2.1,2.1,0,0,1,.146-.854h0a.171.171,0,0,1,0-.073h0c0-.281-.354-.7-.5-.354a12.319,12.319,0,0,1-2.439,4.049.6.6,0,0,1-.171.134v-.488a3.963,3.963,0,0,0-.207-1.134c0-.171-.378-.451-.549-.22a19.027,19.027,0,0,1-2.756,3.817,5.807,5.807,0,0,1-.573.4c-.2-.11.1-1.11.134-1.22.122-.451.268-.89.415-1.329a4.586,4.586,0,0,0,.329-1.1c0-.341-.537-.866-.634-.4a9.279,9.279,0,0,1-.39,1.22A29.517,29.517,0,0,1,86.87,110.9a9.111,9.111,0,0,1-3.269,2.952c-.378.2-1.061.488-1.464.2s-.366-.8-.378-1.22a9.513,9.513,0,0,1,.39-2.866,17.074,17.074,0,0,0,3.586-2.537,12.551,12.551,0,0,0,2.72-3.013c.366-.659.585-1.756-.3-2.134-.622-.256-1.415.171-1.939.463a8.611,8.611,0,0,0-1.976,1.537,11.428,11.428,0,0,0-2.439,4.513c-.085.256-.183.6-.281.988a7.659,7.659,0,0,1-4.561.768.1.1,0,0,0,0,.2,7.549,7.549,0,0,0,4.464-.427c-.4,1.732-.622,4.025.988,4.464s3.561-1.573,4.427-2.732a19.111,19.111,0,0,0,1.732-2.793,2.16,2.16,0,0,1,.146-.207c0,.8.159,1.39.939,1.22s1.525-1.22,1.964-1.878.793-1.22,1.22-1.781c.073.72.2,1.549.89,1.4s1.22-1.342,1.586-1.829a12.535,12.535,0,0,0,.781-1.293.976.976,0,0,0,.159.232c.573.622,1.22,0,1.622-.524.537-.7,1.122-1.427,1.622-2.208a1.354,1.354,0,0,0,.683.781c.878.415,1.72-.317,2.232-.976a19.2,19.2,0,0,0,1.659-2.671,1.22,1.22,0,0,0,.61.842,2.037,2.037,0,0,0,2.086-.134C106.933,100.182,106.677,99.6,106.384,99.743ZM87,103.195c.4-.207,1.22-.549,1.305.134a2.439,2.439,0,0,1-.561,1.22,14.927,14.927,0,0,1-2.439,2.561,19.356,19.356,0,0,1-3.025,2.293A9.757,9.757,0,0,1,87,103.195Z" transform="translate(-61.086 -37.517)" opacity="0.3"/>
      </g>
    </g>
    <g id="freepik--Desk--inject-293" transform="translate(35.133 154.131)">
      <g id="freepik--desk--inject-293-2" data-name="freepik--desk--inject-293">
        <g id="freepik--desk--inject-293-3" data-name="freepik--desk--inject-293" transform="translate(0 35.38)">
          <path id="Path_1846" data-name="Path 1846" d="M134.95,341.184l-104.28-60.2L233.51,163.92,337.8,224.134Z" transform="translate(-30.67 -163.92)" fill="#005bea"/>
          <path id="Path_1847" data-name="Path 1847" d="M134.95,341.184l-104.28-60.2L233.51,163.92,337.8,224.134Z" transform="translate(-30.67 -163.92)" fill="#fff" opacity="0.8"/>
          <path id="Path_1848" data-name="Path 1848" d="M30.67,259.9V391.61l5.488,3.171V382.109l93.3,53.86v12.684l5.488,3.171V320.1Z" transform="translate(-30.67 -142.838)" fill="#005bea"/>
          <path id="Path_1849" data-name="Path 1849" d="M30.67,259.9V391.61l5.488,3.171V382.109l93.3,53.86v12.684l5.488,3.171V320.1Z" transform="translate(-30.67 -142.838)" fill="#fff" opacity="0.6"/>
          <path id="Path_1850" data-name="Path 1850" d="M35.17,372.772l5.488-3.171v-6.342L35.17,360.1Z" transform="translate(-29.682 -120.83)" fill="#005bea"/>
          <path id="Path_1851" data-name="Path 1851" d="M35.17,372.772l5.488-3.171v-6.342L35.17,360.1Z" transform="translate(-29.682 -120.83)" fill="#005bea"/>
          <path id="Path_1852" data-name="Path 1852" d="M116.17,462.061l5.488-3.171V341.926l191.875-110.72v116.44l5.488-3.159V213.29L116.17,330.34Z" transform="translate(-11.89 -153.076)" fill="#005bea"/>
          <path id="Path_1853" data-name="Path 1853" d="M116.17,462.061l5.488-3.171V341.926l191.875-110.72v116.44l5.488-3.159V213.29L116.17,330.34Z" transform="translate(-11.89 -153.076)" fill="#fff" opacity="0.7"/>
          <path id="Path_1854" data-name="Path 1854" d="M296.153,344.42,195.3,286.206l95.364-55.055,5.488-3.171Z" transform="translate(5.491 -149.849)" fill="#005bea"/>
          <g id="Group_1553" data-name="Group 1553" transform="translate(200.791 78.131)" opacity="0.6">
            <path id="Path_1855" data-name="Path 1855" d="M296.153,344.42,195.3,286.206,296.153,227.98Z" transform="translate(-195.3 -227.98)" fill="#fff"/>
          </g>
          <g id="Group_1554" data-name="Group 1554" transform="translate(200.791 78.131)" opacity="0.15">
            <path id="Path_1856" data-name="Path 1856" d="M296.153,344.42,195.3,286.206,296.153,227.98Z" transform="translate(-195.3 -227.98)"/>
          </g>
        </g>
        <g id="freepik--Document--inject-293" transform="translate(147.887 67.533)">
          <g id="Group_1555" data-name="Group 1555" transform="translate(0 2.247)" opacity="0.2">
            <path id="Path_1857" data-name="Path 1857" d="M251.711,225.476c.085.134,0,.3-.171.415l-41.078,23.722a.964.964,0,0,1-.512.122.829.829,0,0,1-.5-.122l-57.323-33.1a.451.451,0,0,1-.183-.2.268.268,0,0,1,.061-.293h0a.158.158,0,0,1,.073-.061l41.078-23.71a1.085,1.085,0,0,1,1.024,0L251.5,225.367h.061a.329.329,0,0,1,.134.122Z" transform="translate(-151.924 -192.125)"/>
          </g>
          <g id="freepik--List--inject-293" transform="translate(2.093)">
            <path id="Path_1858" data-name="Path 1858" d="M153.64,214v.988a1.073,1.073,0,0,0,.5.854l55.018,31.711a1.061,1.061,0,0,0,.976,0l39.419-22.746a1.1,1.1,0,0,0,.488-.854v-.988a1.1,1.1,0,0,0-.488-.854L194.523,190.4a1.061,1.061,0,0,0-.976,0l-39.407,22.71A1.049,1.049,0,0,0,153.64,214Z" transform="translate(-153.64 -190.283)" fill="#005bea"/>
            <path id="Path_1859" data-name="Path 1859" d="M239.519,216.46c.207.159.183.378-.061.524l-39.37,22.759a1.025,1.025,0,0,1-.488.11v2.122a.9.9,0,0,0,.488-.122l39.419-22.746a1.1,1.1,0,0,0,.488-.854v-.988A1.085,1.085,0,0,0,239.519,216.46Z" transform="translate(-143.545 -184.533)" fill="#fff" opacity="0.4"/>
            <path id="Path_1860" data-name="Path 1860" d="M154.059,209.08h0l-.073.061h0a1.109,1.109,0,0,0-.256.524.378.378,0,0,1,0,.122v.988a1.11,1.11,0,0,0,.5.854l55.018,31.711a.9.9,0,0,0,.488.122V241.34a1.025,1.025,0,0,1-.488-.11l-55.189-31.638a.464.464,0,0,1-.183-.2.256.256,0,0,1,.061-.268Z" transform="translate(-153.62 -186.154)" opacity="0.15"/>
            <path id="Path_1861" data-name="Path 1861" d="M165.86,198.6c0,.89,1.22,1.817,1.573,2.61a.634.634,0,0,1,.073.2c-.171.561-.683.951-.793,1.329a.925.925,0,0,0,0,.256v.744a4.458,4.458,0,0,0,.061.512,4.171,4.171,0,0,1-.122.549,3.159,3.159,0,0,0-.183.939v.72a.646.646,0,0,0,.378.671l2.208,1.22,16.49-9.477v-.732l-2.208-1.281a2.013,2.013,0,0,0-1.11-.207h-.146a9.553,9.553,0,0,0-1.512.1,12.871,12.871,0,0,1-2.439.061H177.5a3.11,3.11,0,0,0-.463,0,10.976,10.976,0,0,1-3.854.427h0a31.422,31.422,0,0,0-4.488-.9h-.22a3.659,3.659,0,0,0-1.744.463c-.6.341-.817.707-.817,1.085Zm2.439.512a1.122,1.122,0,0,1,.4-.39,2.109,2.109,0,0,1,.415-.171,4.293,4.293,0,0,1,3.025.451,2.244,2.244,0,0,1,.89.866,1.122,1.122,0,0,1-.4.39,3.244,3.244,0,0,1-2.244.171,4.561,4.561,0,0,1-1.22-.451,2.171,2.171,0,0,1-.8-.866Z" transform="translate(-150.956 -188.954)" fill="#263238"/>
            <path id="Path_1862" data-name="Path 1862" d="M182.207,196.647h-.146a9.553,9.553,0,0,0-1.512.1,12.871,12.871,0,0,1-2.439.061h-.634a3.11,3.11,0,0,0-.464,0,10.976,10.976,0,0,1-3.854.427h0a31.423,31.423,0,0,0-4.488-.9h-.207a3.659,3.659,0,0,0-1.744.463c-2.025,1.22.281,2.573.756,3.659s-.561,1.7-.72,2.256.281.854-.1,2.061-.085,1.439.2,1.6l2.208,1.22,16.477-9.452-2.208-1.281A2.012,2.012,0,0,0,182.207,196.647Zm-12.379,9.282a1.073,1.073,0,0,1-.915-.073c-.281-.171-.341-.4-.134-.524a.988.988,0,0,1,.915.073c.28.159.341.4.134.524Zm2.854-5.671a3.244,3.244,0,0,1-2.244.171,4.562,4.562,0,0,1-1.22-.451c-1.085-.634-1.305-1.512-.488-1.988a2.11,2.11,0,0,1,.415-.171,4.293,4.293,0,0,1,3.025.451C173.34,198.9,173.5,199.782,172.682,200.257Zm9.879-1.683a1.049,1.049,0,0,1-.9-.073c-.293-.171-.341-.4-.134-.524a.988.988,0,0,1,.915.073c.281.159.341.39.122.524Z" transform="translate(-150.948 -188.954)" fill="#37474f"/>
            <path id="Path_1863" data-name="Path 1863" d="M206.63,241.252l34.3-19.795a.683.683,0,0,0,.293-.512v-.378a.659.659,0,0,0-.293-.512L195.6,193.893a.622.622,0,0,0-.585,0l-34.3,19.795a.683.683,0,0,0-.293.512v.378a.659.659,0,0,0,.293.512l45.31,26.161a.646.646,0,0,0,.6,0Z" transform="translate(-152.149 -189.506)" fill="#f5f5f5"/>
            <path id="Path_1864" data-name="Path 1864" d="M208.25,221.81l11.843-6.83.427.244-11.843,6.83Z" transform="translate(-141.645 -184.858)" fill="#e0e0e0"/>
            <path id="Path_1865" data-name="Path 1865" d="M196.59,228.542l11.843-6.842.427.256-11.843,6.83Z" transform="translate(-144.206 -183.382)" fill="#e0e0e0"/>
            <path id="Path_1866" data-name="Path 1866" d="M232.732,215.37c.085.1,0,.207-.073.293l-34.3,19.795a.61.61,0,0,1-.293.073v1.061a.622.622,0,0,0,.3-.073l34.3-19.807a.634.634,0,0,0,.293-.5v-.378a.671.671,0,0,0-.232-.463Z" transform="translate(-143.881 -184.772)" fill="#fafafa"/>
            <path id="Path_1867" data-name="Path 1867" d="M160.649,210.15l-.073.085h0a1.012,1.012,0,0,0-.085.159.355.355,0,0,0,0,.11.159.159,0,0,0,0,.073v.378a.659.659,0,0,0,.293.512l45.31,26.161a.61.61,0,0,0,.293.073v-1.061a.622.622,0,0,1-.3-.073l-45.31-26.161C160.576,210.37,160.552,210.248,160.649,210.15Z" transform="translate(-152.136 -185.919)" fill="#e0e0e0"/>
            <path id="Path_1868" data-name="Path 1868" d="M201.258,222.944c-.11.134,0,.293.122.415a1.366,1.366,0,0,1-.122.585.72.72,0,0,1-.268.4.465.465,0,0,1-.512-.11c-.11-.11-.146,0-.159,0a1.094,1.094,0,0,0,0,.207.926.926,0,0,1-.2-.11.6.6,0,0,0-.232-.122h-.134a.4.4,0,0,0,0,.293c0,.11.085.256,0,.366s-.268-.073-.3-.11a1.843,1.843,0,0,1-.22-.317h-.171a1.77,1.77,0,0,1,0,.439,2.037,2.037,0,0,1-.134.646c0,.073-.122.329-.3.329a.256.256,0,0,1-.22-.134v-.2a1.537,1.537,0,0,0,0-.964.707.707,0,0,0-.159-.183.159.159,0,0,0-.146,0,.341.341,0,0,0-.171.39,3.656,3.656,0,0,0,.085.39,1.588,1.588,0,0,0,.1.415.415.415,0,0,0,.073.146,1.549,1.549,0,0,1-.256.561c-.146.171-.585.512-.939.281a1.049,1.049,0,0,1-.427-.646v-.207a2.342,2.342,0,0,0,.439-.561,1.513,1.513,0,0,0,.171-.549,1.22,1.22,0,0,0,0-.683.219.219,0,0,0-.171-.171.463.463,0,0,0-.317,0,.561.561,0,0,0-.293.488,3.747,3.747,0,0,0-.085.646,3.048,3.048,0,0,0,.1.866,3.744,3.744,0,0,1-.634.476h0a3.4,3.4,0,0,0,.61-.439h0a1.366,1.366,0,0,0,.415.732.757.757,0,0,0,.4.146,1.049,1.049,0,0,0,.573-.146,1.134,1.134,0,0,0,.561-.72h.073a.476.476,0,0,0,.573-.171,1.574,1.574,0,0,0,.232-.671V224.6l.1.11a.488.488,0,0,0,.488.11c.159-.073.1-.244.085-.329s0-.159-.061-.232,0-.061,0-.085.232.22.488.2a.1.1,0,0,0,.085,0,.293.293,0,0,0,0-.146.915.915,0,0,0,.488.085.573.573,0,0,0,.415-.378,1.464,1.464,0,0,0,.159-.476l.256.427a7.319,7.319,0,0,1,.622,1.39l.281.8h.171a10.5,10.5,0,0,0-.646-1.756,8.877,8.877,0,0,0-.488-.878c0-.085-.122-.171-.171-.256a.622.622,0,0,0-.134-.378A1.1,1.1,0,0,1,201.258,222.944Zm-4.769,2.366a3.534,3.534,0,0,1,0-.622,2.244,2.244,0,0,1,.073-.5.427.427,0,0,1,.354-.329.171.171,0,0,1,.183.11,1.122,1.122,0,0,1,0,.634,1.688,1.688,0,0,1-.561,1.134A2.845,2.845,0,0,1,196.49,225.31Zm1.793,0a1.984,1.984,0,0,0-.085-.366.2.2,0,1,1,.171,0,2.089,2.089,0,0,1,0,.476v.073a.72.72,0,0,1-.085-.159Z" transform="translate(-144.386 -183.138)" fill="#37474f"/>
            <path id="Path_1869" data-name="Path 1869" d="M204.051,221h-.159a.171.171,0,0,0,.085.134h0a.635.635,0,0,1,0,.207,1.379,1.379,0,0,1,0,.39v.171a.2.2,0,0,1,0,.085h-.159l-.22-.085h-.146a.744.744,0,0,1,0,.366h-.073c-.073,0-.11,0-.134-.073a.744.744,0,0,0-.22-.134H202.9a.7.7,0,0,0,0,.22s.073.22,0,.256-.159-.073-.232-.183a.244.244,0,0,0-.146-.28h-.134a.366.366,0,0,0,.11.256h0a1.145,1.145,0,0,1-.073.341.817.817,0,0,1-.3.524.378.378,0,0,1-.451-.073,1.219,1.219,0,0,0,0-.7,1.683,1.683,0,0,0-.866-1.024h-.11c-.122.061-.1.183-.085.268a1.561,1.561,0,0,0,.134.378,4.22,4.22,0,0,0,.476.8,1.475,1.475,0,0,0,.341.329.781.781,0,0,1-.146.3h.061a.9.9,0,0,0,.171-.268.659.659,0,0,0,.512.073.72.72,0,0,0,.439-.537,2.661,2.661,0,0,0,.085-.293.317.317,0,0,0,.268.085c.268,0,.183-.268.134-.439a.462.462,0,0,0,.159.11.378.378,0,0,0,.3,0h-.024a.65.65,0,0,0,0-.159.963.963,0,0,0,.317.1c.232,0,.256-.171.281-.268a1.842,1.842,0,0,0,.073-.439.159.159,0,0,0,0-.073h0a5.216,5.216,0,0,1,.354.4,3.024,3.024,0,0,1,.4.6,1.22,1.22,0,0,0-.537.256c-.183.171-.415.6.1.671a.61.61,0,0,0,.732-.463.817.817,0,0,0-.085-.415,1.842,1.842,0,0,1,.451,0c.1,0,.146-.061,0-.073a1.892,1.892,0,0,0-.524,0,2.33,2.33,0,0,0-.2-.329l-.354-.439c-.085-.1-.183-.183-.281-.28l-.134-.1A.378.378,0,0,0,204.051,221Zm-2.805,1.964a4.438,4.438,0,0,1-.415-.683,2.171,2.171,0,0,1-.146-.354c0-.061-.073-.183,0-.268a1.659,1.659,0,0,1,.781.939,1.4,1.4,0,0,1,0,.634,1.59,1.59,0,0,1-.22-.244Zm3.659.134a.451.451,0,0,1-.451,0c-.134-.11,0-.281,0-.39a.89.89,0,0,1,.524-.329.524.524,0,0,1-.061.744Z" transform="translate(-143.325 -183.536)" fill="#37474f"/>
            <path id="Path_1870" data-name="Path 1870" d="M209.7,218.381a.22.22,0,0,0-.11.183,1.84,1.84,0,0,0-.085.451.647.647,0,0,0-.256-.146h-.122a.329.329,0,0,0-.134.159.5.5,0,0,0-.463-.159.512.512,0,0,0-.366.378,1.515,1.515,0,0,0,0,.2c-.073-.171-.146-.342-.207-.512a2.037,2.037,0,0,0-.427-.878.646.646,0,0,0-.768-.244.7.7,0,0,0-.293.268,1.219,1.219,0,0,0-.171.378v.183l-.4-.207h-.085l.488.268a2.169,2.169,0,0,0,0,.561,1.72,1.72,0,0,0,.183.585.256.256,0,0,0,.159.159.293.293,0,0,0,.268,0c.3-.22.207-.561.061-.8a1.366,1.366,0,0,0-.537-.463,1.073,1.073,0,0,1,.354-.793.278.278,0,0,1,.415-.012,1.364,1.364,0,0,1,.256.281,2.855,2.855,0,0,1,.342.768,6.537,6.537,0,0,0,.3.756v.073a.9.9,0,0,0,.122.683h.171a1.037,1.037,0,0,0-.11-.683h0a2.169,2.169,0,0,1,.1-.549.512.512,0,0,1,.2-.244.219.219,0,0,1,.22.061.841.841,0,0,1,.207.317v.122h.183a.774.774,0,0,1,0-.085.72.72,0,0,1,0-.171.354.354,0,0,1,.073-.232c.183.085.256.256.354.366s.2,0,.171,0a.915.915,0,0,1,0-.671.709.709,0,0,1,.061-.171.476.476,0,0,1,.1.171.524.524,0,0,0,.1.366,1.544,1.544,0,0,1,.159.39,5.073,5.073,0,0,0,.427.744,2.842,2.842,0,0,0,.683.768h.11a8.2,8.2,0,0,1-.671-.817,6.22,6.22,0,0,1-.463-.89,3.085,3.085,0,0,1-.146-.439.488.488,0,0,0-.171-.342.22.22,0,0,0-.268-.122Zm-3.074.646a.707.707,0,0,1,.232.744.621.621,0,0,1-.11.159h0a.244.244,0,0,1-.11-.159,1.89,1.89,0,0,1-.146-.512,2.856,2.856,0,0,1,0-.476,1.9,1.9,0,0,1,.159.244Z" transform="translate(-142.183 -184.246)" fill="#37474f"/>
            <path id="Path_1871" data-name="Path 1871" d="M213.348,217.221a1.122,1.122,0,0,0-.537,0l-.232-.207a4.879,4.879,0,0,0-.561-.354h-.171a1.659,1.659,0,0,1,.159.512.451.451,0,0,1,0,.256c-.061.073-.159,0-.244,0h-.146a.916.916,0,0,0,0,.183c0,.012-.207-.1-.256-.11a.373.373,0,0,0-.122,0s.073.171,0,.244l-.2-.122H210.9a1.144,1.144,0,0,1,.073.183s.061.171,0,.207,0,0-.085,0l-.1-.073a.83.83,0,0,0-.207-.11h-.122a2.537,2.537,0,0,0,0,.281v.171s0,.11-.073.134-.512-.463-.549-.537-.159,0-.146,0a3.254,3.254,0,0,1,.171.439c0,.146.073.366-.22.427h0a.341.341,0,0,0,.317-.4s0,0,0-.073a.463.463,0,0,0,.415.183.232.232,0,0,0,.207-.268,2.6,2.6,0,0,0,0-.3c.134.1.268.22.439.146s.1-.134.085-.207a.439.439,0,0,0,0-.122h.2c.134,0,.122-.134.1-.22a.317.317,0,0,0,.268.061c.122,0,.11-.11.11-.171a.476.476,0,0,0,.293,0,.268.268,0,0,0,.134-.244,1.22,1.22,0,0,0-.085-.463l.22.134a1.939,1.939,0,0,1,.329.293l-.146.1c-.122.1-.146.293.134.317s.341-.159.3-.268a.367.367,0,0,0-.073-.134,1.147,1.147,0,0,1,.415,0C213.372,217.319,213.47,217.233,213.348,217.221Zm-.585.354c0,.073-.122.1-.159,0s0-.134.122-.183h0a.159.159,0,0,1,.037.183Z" transform="translate(-141.34 -184.489)" fill="#37474f"/>
            <path id="Path_1872" data-name="Path 1872" d="M213.133,214.247c.073.256.171.512.244.756a5.509,5.509,0,0,1,.146.781,4.117,4.117,0,0,0,.085.768h0a5.3,5.3,0,0,0-.415-.5,2.439,2.439,0,0,0-.622-.451.756.756,0,0,0-.646,0,.6.6,0,0,0-.22.159h-.281a.683.683,0,0,1-.281,0h-.073c.049,0,.39.061.573.085h0a.806.806,0,0,0-.11.232.61.61,0,0,0,.073.5.6.6,0,0,0,.476.232.427.427,0,0,0,.427-.329.653.653,0,0,0-.4-.561,1.219,1.219,0,0,0-.256-.1.439.439,0,0,1,.134-.122.524.524,0,0,1,.549,0,2.44,2.44,0,0,1,.537.427,6.176,6.176,0,0,1,.439.549l.134.183h0a.268.268,0,0,0,.11.256h.159a.464.464,0,0,0-.1-.293h0l-.073-.4a2.327,2.327,0,0,0-.085-.756,3.281,3.281,0,0,0-.439-1.451S213.121,214.21,213.133,214.247Zm-.842,1.939a.3.3,0,0,1-.073.463.3.3,0,0,1-.427-.134.573.573,0,0,1-.085-.439.843.843,0,0,1,.11-.244.817.817,0,0,1,.476.354Z" transform="translate(-141.028 -185.027)" fill="#37474f"/>
            <path id="Path_1873" data-name="Path 1873" d="M217.929,214.89a4.988,4.988,0,0,0-1.025-1.22h-.171a1.757,1.757,0,0,1,.171.646.22.22,0,0,1-.073.171.245.245,0,0,0-.183.085.158.158,0,0,0-.085.134,1.374,1.374,0,0,0-.22-.146h-.159a1,1,0,0,0,0,.268v.207a1.55,1.55,0,0,1-.354-.329h-.183a1.528,1.528,0,0,0,0,.341,1.219,1.219,0,0,1,0,.207v.134h-.073a.914.914,0,0,1-.122-.207.9.9,0,0,1-.1-.354c0-.061-.171-.061-.171,0a8.9,8.9,0,0,1,0,.988.939.939,0,0,1-.2.488.964.964,0,0,1-.232.207,1.012,1.012,0,0,1-.366.159c-.122,0-.146-.11-.159-.159a1.279,1.279,0,0,1-.073-.293s0-.11,0-.159a.9.9,0,0,0,.415-.951.244.244,0,0,0-.317-.22.2.2,0,0,0-.134.146,2.154,2.154,0,0,0,0,.244c0,.207-.073.415-.085.622v.159l-.134.1h.11a.439.439,0,0,0,0,.134.854.854,0,0,0,.1.329c.11.2.439.11.646,0a1.134,1.134,0,0,0,.512-.463,1.476,1.476,0,0,0,.122-.756l.085.073a.378.378,0,0,0,.39,0,.366.366,0,0,0,0-.329.94.94,0,0,0,0-.183,1.672,1.672,0,0,0,.281.207h.122a.207.207,0,0,0,.146-.232.95.95,0,0,0,0-.2,2.017,2.017,0,0,0,.232.122h.146v-.159a.439.439,0,0,1,.183-.1.329.329,0,0,0,.146-.28.878.878,0,0,0-.085-.342,4.879,4.879,0,0,1,.585.793c0,.085.11.159.159.232a1.1,1.1,0,0,0-.561.39.793.793,0,0,0-.159.378.5.5,0,0,0,.134.439.768.768,0,0,0,.683.11.622.622,0,0,0,.415-.378,1.22,1.22,0,0,0-.293-.89h.2a.732.732,0,0,0-.268-.171Zm-3.793.549v-.4a.379.379,0,0,1,0-.1v-.061h0a.368.368,0,0,1,0,.1.94.94,0,0,1,0,.451.732.732,0,0,1-.256.39A3.792,3.792,0,0,1,214.136,215.438Zm3.927,0a.61.61,0,0,1,0,.415.5.5,0,0,1-.451.293.39.39,0,0,1-.4-.378.7.7,0,0,1,0-.3.963.963,0,0,1,.537-.512,1.877,1.877,0,0,1,.317.524Z" transform="translate(-140.408 -185.146)" fill="#37474f"/>
            <path id="Path_1874" data-name="Path 1874" d="M196.78,198.848l.4.232c.22.122.22.317,0,.451l-27.527,15.855a.878.878,0,0,1-.781,0l-.4-.232a.232.232,0,0,1,0-.451L196,198.848a.8.8,0,0,1,.781,0Z" transform="translate(-150.421 -188.423)" fill="#e0e0e0"/>
            <path id="Path_1875" data-name="Path 1875" d="M198.762,200.017l.39.22c.22.134.22.329,0,.451l-27.527,15.855a.878.878,0,0,1-.781,0l-.4-.232a.232.232,0,0,1,0-.451l27.552-15.843A.829.829,0,0,1,198.762,200.017Z" transform="translate(-149.989 -188.165)" fill="#e0e0e0"/>
            <path id="Path_1876" data-name="Path 1876" d="M200.725,201.117l.39.232a.244.244,0,0,1,0,.451l-27.54,15.855a.878.878,0,0,1-.781,0l-.4-.232a.232.232,0,0,1,0-.451l27.54-15.855A.878.878,0,0,1,200.725,201.117Z" transform="translate(-149.56 -187.924)" fill="#e0e0e0"/>
            <path id="Path_1877" data-name="Path 1877" d="M205.06,203.627l.4.232c.22.122.22.317,0,.451l-27.527,15.855a.9.9,0,0,1-.793,0l-.39-.232a.232.232,0,0,1,0-.451l27.527-15.855a.842.842,0,0,1,.781,0Z" transform="translate(-148.603 -187.373)" fill="#e0e0e0"/>
            <path id="Path_1878" data-name="Path 1878" d="M207.042,204.768l.39.22c.22.134.22.329,0,.464l-27.527,15.855a.878.878,0,0,1-.781,0l-.4-.232a.232.232,0,0,1,0-.451l27.527-15.855A.829.829,0,0,1,207.042,204.768Z" transform="translate(-148.17 -187.123)" fill="#e0e0e0"/>
            <path id="Path_1879" data-name="Path 1879" d="M209,205.9l.39.232a.232.232,0,0,1,0,.451l-27.527,15.855a.878.878,0,0,1-.781,0l-.4-.232a.232.232,0,0,1,0-.451l27.54-15.855A.878.878,0,0,1,209,205.9Z" transform="translate(-147.74 -186.873)" fill="#e0e0e0"/>
            <path id="Path_1880" data-name="Path 1880" d="M213.334,208.4l.4.232c.22.122.22.317,0,.451L186.245,225a.9.9,0,0,1-.793,0l-.39-.232a.232.232,0,0,1,0-.451l27.527-15.855A.878.878,0,0,1,213.334,208.4Z" transform="translate(-146.777 -186.315)" fill="#e0e0e0"/>
            <path id="Path_1881" data-name="Path 1881" d="M215.322,209.548l.39.232c.22.122.22.317,0,.451l-27.527,15.855a.878.878,0,0,1-.781,0l-.4-.232a.232.232,0,0,1,0-.451l27.527-15.855A.829.829,0,0,1,215.322,209.548Z" transform="translate(-146.351 -186.073)" fill="#e0e0e0"/>
            <path id="Path_1882" data-name="Path 1882" d="M217.28,210.676l.39.232a.232.232,0,0,1,0,.451l-27.527,15.855a.8.8,0,0,1-.781,0l-.4-.232c-.22-.122-.22-.317,0-.451l27.54-15.855A.878.878,0,0,1,217.28,210.676Z" transform="translate(-145.918 -185.823)" fill="#e0e0e0"/>
            <path id="Path_1883" data-name="Path 1883" d="M170.2,208.723v.732a1.7,1.7,0,0,0,.39,1.012l20.21-11.66v-.732a4.355,4.355,0,0,0-1.976-.5h0a3.159,3.159,0,0,0-1.342.281c-1.464.659-1.89.866-2.793,1.22a1.427,1.427,0,0,1-1.366-.2h0l-.61-.549-1.634-1.525a.976.976,0,0,0-.768-.244h0a1.524,1.524,0,0,0-.378,0,5.672,5.672,0,0,1-1.683,0,3.476,3.476,0,0,1-1.817-.7,4.244,4.244,0,0,0-2.817-.988h-.085a4.208,4.208,0,0,0-1.866.451,2,2,0,0,0-1.22,2.183,1.964,1.964,0,0,0,.707,1.878,1.5,1.5,0,0,1,.451.866,1.9,1.9,0,0,1-.4.939.829.829,0,0,0-.22.488v.744a.488.488,0,0,0,.183.366l1.9,1.732.6.561a.147.147,0,0,1,.061.061.818.818,0,0,1-.134.2l-2.439,1.915a2.037,2.037,0,0,0-.951,1.464Zm5.4-11.087a1.39,1.39,0,0,1-.707.744,2.781,2.781,0,0,1-2.122.122,2.256,2.256,0,0,1-.817-.463,1.512,1.512,0,0,1-.39-.561,1.415,1.415,0,0,1,.72-.744l.281-.134a2.793,2.793,0,0,1,2.647.464,1.659,1.659,0,0,1,.39.573Z" transform="translate(-150.003 -189.273)" fill="#37474f"/>
            <path id="Path_1884" data-name="Path 1884" d="M188.806,197.576h0a3.159,3.159,0,0,0-1.342.281c-1.464.659-1.89.866-2.793,1.22a1.427,1.427,0,0,1-1.366-.2h0l-.61-.549-1.634-1.525a.976.976,0,0,0-.768-.244h0a1.524,1.524,0,0,0-.378,0,5.672,5.672,0,0,1-1.683,0,3.476,3.476,0,0,1-1.817-.7,4.244,4.244,0,0,0-2.817-.988h-.085a4.208,4.208,0,0,0-1.866.451,1.927,1.927,0,0,0-.512,3.33,2,2,0,0,1,0,2.537c-.463.561,0,.866,0,.866l1.9,1.732.6.549c.451.415-.073,1-.073,1l-2.439,1.915c-1.061.951-1,1.72-.451,2.439l20.21-11.66a4.354,4.354,0,0,0-2.073-.463Zm-13.611-1.22a1.22,1.22,0,0,1-.317,2.049,2.781,2.781,0,0,1-2.122.122,2.256,2.256,0,0,1-.817-.463,1.22,1.22,0,0,1,.329-2.049l.281-.122a2.793,2.793,0,0,1,2.647.439Z" transform="translate(-149.984 -189.273)" fill="#455a64"/>
          </g>
        </g>
        <g id="freepik--Pen--inject-293" transform="translate(154.318 117.17)">
          <path id="Path_1885" data-name="Path 1885" d="M157.31,235.62l29.93,17.295,5.123,1.049a.159.159,0,0,0,.171-.232l-1.61-2.939L160.994,233.5C159.982,232.912,156.53,235.168,157.31,235.62Z" transform="translate(-157.197 -230.448)" opacity="0.2"/>
          <g id="freepik--pen--inject-293-2" data-name="freepik--pen--inject-293" transform="translate(0.97)">
            <path id="Path_1886" data-name="Path 1886" d="M160.441,231.139h.146l-.293-.159h-.232a1.28,1.28,0,0,0-.61.183A3.037,3.037,0,0,0,158,233.444a1.548,1.548,0,0,0,0,.341.11.11,0,0,0,0,.061h0a.682.682,0,0,0,.11.207h0l.329.183a1.146,1.146,0,0,1-.146-.11,1.11,1.11,0,0,0,.793-.171,3.037,3.037,0,0,0,1.366-2.378,1.1,1.1,0,0,0-.012-.439Zm-2.037,3.269Z" transform="translate(-157.992 -230.98)" fill="#005bea"/>
            <path id="Path_1887" data-name="Path 1887" d="M189.118,247.665l-1.9,3.366-.329-.183-28.235-16.307a1.146,1.146,0,0,1-.146-.11,1.134,1.134,0,0,1-.244-.781,3.013,3.013,0,0,1,1.366-2.366,1.22,1.22,0,0,1,.61-.2h.329Z" transform="translate(-157.934 -230.956)" fill="#f0f0f0"/>
            <path id="Path_1888" data-name="Path 1888" d="M183.006,244.794c.756-.439,1.378-.073,1.378.793a3.049,3.049,0,0,1-1.378,2.439c-.756.439-1.366.085-1.366-.793a3.037,3.037,0,0,1,1.366-2.439Z" transform="translate(-152.798 -227.987)" fill="#005bea"/>
            <path id="Path_1889" data-name="Path 1889" d="M185.938,246.811h0l-1.744-1.927h0a.9.9,0,0,0-1.1,0,3.037,3.037,0,0,0-1.366,2.439c0,.512.207.842.524.939h.1l2.537.549a.634.634,0,0,0,.451-.085,1.769,1.769,0,0,0,.781-1.366.7.7,0,0,0-.183-.549Z" transform="translate(-152.778 -227.967)" fill="#e0e0e0"/>
            <path id="Path_1890" data-name="Path 1890" d="M166.945,236.2h0a.354.354,0,0,0-.317,0,1.049,1.049,0,0,0-.488.842.366.366,0,0,0,.11.293h.061l20.795,12.05,1.366-.781Z" transform="translate(-156.203 -229.842)" fill="#455a64"/>
            <path id="Path_1891" data-name="Path 1891" d="M181.74,246.333l1.939,1.11,1.366-.781-2.622-1.512a3.2,3.2,0,0,0-.683,1.183Z" transform="translate(-152.776 -227.868)" fill="#37474f"/>
            <path id="Path_1892" data-name="Path 1892" d="M186.35,247.518h0l-1.586-1.744h0a.634.634,0,0,0-.781,0,2.122,2.122,0,0,0-.964,1.671c0,.366.134.6.366.671h.061l2.33.5h0a.415.415,0,0,0,.256,0,.988.988,0,0,0,.439-.768.4.4,0,0,0-.122-.329Z" transform="translate(-152.495 -227.76)" fill="#005bea"/>
            <path id="Path_1893" data-name="Path 1893" d="M186.35,247.518h0l-1.586-1.744h0a.634.634,0,0,0-.781,0,2.122,2.122,0,0,0-.964,1.671c0,.366.134.6.366.671h.061l2.33.5h0a.415.415,0,0,0,.256,0,.988.988,0,0,0,.439-.768.4.4,0,0,0-.122-.329Z" transform="translate(-152.495 -227.76)" opacity="0.1"/>
            <path id="Path_1894" data-name="Path 1894" d="M186.222,247.623a.988.988,0,0,1-.439.768.415.415,0,0,1-.256,0h0l-1.22-.256c-.2,0-.317-.207-.317-.488a1.585,1.585,0,0,1,.707-1.22.476.476,0,0,1,.573,0h0l.793.866h0A.4.4,0,0,1,186.222,247.623Z" transform="translate(-152.282 -227.608)" fill="#005bea"/>
            <path id="Path_1895" data-name="Path 1895" d="M185.539,247.19a.273.273,0,0,1,.439.256.988.988,0,0,1-.439.768.273.273,0,0,1-.439-.256A.988.988,0,0,1,185.539,247.19Z" transform="translate(-152.038 -227.431)" opacity="0.1"/>
            <path id="Path_1896" data-name="Path 1896" d="M162.7,233.749a.341.341,0,0,0-.354,0,1.049,1.049,0,0,0-.476.842.342.342,0,0,0,.134.317h0l5.135,2.964a.366.366,0,0,1-.11-.293,1.049,1.049,0,0,1,.488-.842.354.354,0,0,1,.317,0Z" transform="translate(-157.141 -230.383)" fill="#fafafa"/>
            <path id="Path_1897" data-name="Path 1897" d="M162.834,234.066a1.049,1.049,0,0,1-.488.842.3.3,0,0,1-.329,0,.329.329,0,0,1-.146-.317,1.049,1.049,0,0,1,.476-.842.341.341,0,0,1,.354,0,.329.329,0,0,1,.134.317Z" transform="translate(-157.141 -230.383)" fill="#f5f5f5"/>
            <path id="Path_1898" data-name="Path 1898" d="M162.507,232.521h0l-2.025-1.22h0a.866.866,0,0,0-.842.11,2.707,2.707,0,0,0-1.22,2.134.842.842,0,0,0,.366.793h0l2.049,1.22h0a.878.878,0,0,0,.854-.085,2.744,2.744,0,0,0,1.22-2.147A.878.878,0,0,0,162.507,232.521Z" transform="translate(-157.899 -230.923)" fill="#005bea"/>
            <path id="Path_1899" data-name="Path 1899" d="M162.507,232.521h0l-2.025-1.22h0a.866.866,0,0,0-.842.11,2.707,2.707,0,0,0-1.22,2.134.842.842,0,0,0,.366.793h0l2.049,1.22h0a.878.878,0,0,0,.854-.085,2.744,2.744,0,0,0,1.22-2.147A.878.878,0,0,0,162.507,232.521Z" transform="translate(-157.899 -230.923)" opacity="0.05"/>
            <path id="Path_1900" data-name="Path 1900" d="M161.22,232.38c.683-.39,1.22-.073,1.22.707a2.744,2.744,0,0,1-1.22,2.147c-.683.39-1.22.073-1.22-.72a2.732,2.732,0,0,1,1.22-2.134Z" transform="translate(-157.551 -230.709)" opacity="0.1"/>
            <path id="Path_1901" data-name="Path 1901" d="M186.5,247.887h0l-.842-.512h0a.134.134,0,0,0-.159,0,.464.464,0,0,0-.232.39.146.146,0,0,0,.073.146h0l.829.5h0a.342.342,0,0,0,.159,0,.28.28,0,0,0,.171-.524Z" transform="translate(-152.001 -227.385)" fill="#455a64"/>
            <path id="Path_1902" data-name="Path 1902" d="M186.388,247.824h0a.134.134,0,0,0-.146,0,.512.512,0,0,0-.232.39.171.171,0,0,0,.061.146h.146a.317.317,0,0,0,.317-.317.293.293,0,0,0-.146-.22Z" transform="translate(-151.838 -227.285)" fill="#263238"/>
          </g>
        </g>
        <g id="freepik--Keyboard--inject-293" transform="translate(86.537 136.248)">
          <path id="freepik--shadow--inject-293-5" data-name="freepik--shadow--inject-293" d="M102.156,287.42,124.11,300.1a2.7,2.7,0,0,0,2.439,0l64.727-37.321a.756.756,0,0,0,0-1.427l-21.954-12.684a2.744,2.744,0,0,0-2.439,0l-64.727,37.321a.744.744,0,0,0,0,1.427Z" transform="translate(-101.623 -246.235)" opacity="0.2"/>
          <g id="freepik--keyboard--inject-293-2" data-name="freepik--keyboard--inject-293" transform="translate(1.338)">
            <path id="Path_1903" data-name="Path 1903" d="M189.641,259.511a.866.866,0,0,0-.5-.707l-20.588-11.892a2.708,2.708,0,0,0-2.439,0L103.3,283.246a.866.866,0,0,0-.512.707v2.159a.866.866,0,0,0,.512.707L123.878,298.7a2.708,2.708,0,0,0,2.439,0l62.824-36.272a.854.854,0,0,0,.5-.707Z" transform="translate(-102.705 -246.622)" fill="#ebebeb"/>
            <path id="Path_1904" data-name="Path 1904" d="M123.888,296.491,103.312,284.66a.744.744,0,0,1,0-1.415l62.812-36.333a2.708,2.708,0,0,1,2.439,0L189.151,258.8a.744.744,0,0,1,0,1.415l-62.812,36.26A2.708,2.708,0,0,1,123.888,296.491Z" transform="translate(-102.703 -246.622)" fill="#fff"/>
            <path id="Path_1905" data-name="Path 1905" d="M125.015,290.051v2.208a2.439,2.439,0,0,1-1.22-.281L103.232,280.1a.866.866,0,0,1-.512-.707V277.22a.89.89,0,0,0,.512.72L123.8,289.77A2.439,2.439,0,0,0,125.015,290.051Z" transform="translate(-102.72 -239.901)" fill="#e0e0e0"/>
            <path id="Path_1906" data-name="Path 1906" d="M124.452,294.217h0L122.415,293l2.756-1.6,2.11,1.22-2.805,1.6Zm-3.183-1.842h0l-2.037-1.22,2.171-1.22,2.11,1.22-2.171,1.22Zm7.05-.39h0l-2.037-1.22,2.171-1.22,2.11,1.22-2.171,1.22Zm-10.245-1.451h0l-2.037-1.22,3.513-2.025,2.11,1.22-3.561,2.049Zm6.464,0h0l-2.037-1.22,1.72-.988,2.11,1.22-1.72.988Zm7.05-.39h0l-2.037-1.22,2.171-1.22,2.11,1.22-2.171,1.22Zm-4.232-1.22h0l-2.037-1.22,1.732-1,2.1,1.22-1.72,1Zm-12.465-.171h0l-2.037-1.22,2.769-1.6,2.1,1.22-2.756,1.6Zm19.966-.476h0l-2.037-1.22L148.5,278l2.11,1.22-15.685,9.05Zm-12.2-.342h0l-2.037-1.22,1.72-.988,2.11,1.22-1.72.988Zm7.489-.646h0l-2.037-1.22,1.72-.988,2.11,1.22-1.72.988Zm-18.453-.39h0l-2.037-1.22,1.732-.988,2.11,1.22-1.732.988Zm7.05-.378h0l-2.037-1.22,1.72-.988,2.11,1.22-1.72.988Zm6.757-.22h0l-2.037-1.22,1.732-1,2.1,1.22-1.72,1Zm7.5-.646h0l-2.037-1.22,1.72-1,2.11,1.22-1.72,1Zm-18.429-.39h0l-2.037-1.22,1.72-1,2.11,1.22-1.72,1Zm7.05-.39h0l-2.037-1.22,1.72-1,2.11,1.22-1.72,1Zm6.757-.22h0l-2.037-1.22,1.72-1,2.11,1.22-1.72.988Zm-20.5,0h0l-2.037-1.22,2.171-1.22,2.11,1.22-2.171,1.22Zm27.991-.646h0l-2.037-1.22,1.732-.988,2.1,1.22-1.72.988Zm-18.478-.378h0l-2.037-1.22,1.732-1,2.1,1.22-1.72,1Zm7.05-.39h0l-2.037-1.22,1.732-.988,2.1,1.22-1.72.988Zm6.757-.207h0l-2.037-1.22,1.72-.988,2.11,1.22-1.72.988Zm7.489-.646h0l-2.037-1.22,1.72-1,2.11,1.22-1.72,1Zm-26.369-.366h0l-2.037-1.22,1.72-.988,2.11,1.22-1.72.988Zm7.842,0h0l-2.037-1.22,1.72-.988,2.11,1.22-1.72.988Zm7.062-.39h0l-2.037-1.22,1.72-1,2.11,1.22-1.72,1Zm6.745-.22h0l-2.037-1.22,1.732-1,2.11,1.22-1.732,1Zm7.5-.646h0l-2.037-1.22,1.72-1,2.11,1.22-1.72.988Zm-26.32-.317h0l-2.037-1.22,1.72-1,2.11,1.22-1.72,1Zm7.842-.061h0l-2.037-1.22,1.72-1,2.11,1.22-1.72,1Zm7.05-.39h0L128,278.776l1.72-1,2.11,1.22-1.72.988Zm6.757-.22h0l-2.037-1.22,1.72-.988,2.11,1.22-1.72.988Zm7.489-.634h0l-2.037-1.22,1.732-.988,2.1,1.22-1.72.988Zm-26.32-.329h0l-2.037-1.22,1.732-1,2.11,1.22-1.732.988Zm7.842-.061h0l-2.037-1.22,1.732-.988,2.1,1.22-1.72.988Zm25.832-.171h0l-2.037-1.22,2.171-1.22,2.1,1.22-2.159,1.22Zm-18.77-.22h0l-2.037-1.22,1.732-1,2.11,1.22Zm6.757-.22h0l-2.037-1.22,1.732-1,2.1,1.22-1.72,1Zm7.5-.646h0l-2.037-1.22,1.72-1,2.11,1.22-1.72,1Zm-26.332-.354h0l-2.037-1.22,1.72-1,2.11,1.22-1.72.988Zm7.842,0h0l-2.037-1.22,1.72-1,2.11,1.22-1.72,1Zm7.05-.39h0l-2.037-1.22,1.72-1,2.11,1.22-1.72,1Zm19.222,0h0l-2.037-1.22,2.171-1.22,2.1,1.22-2.159,1.22Zm-12.477-.171h0l-2.037-1.22,1.732-.988,2.11,1.22-1.732.988Zm7.513-.659h0l-2.037-1.22,1.732-.988,2.1,1.22Zm-18.478-.378h0l-2.037-1.22,1.72-.988,2.11,1.22-1.72.988Zm7.05-.39h0l-2.037-1.22,1.732-.988,2.1,1.22-1.72.988Zm6.757-.207h0l-2.037-1.22,1.72-1,2.11,1.22-1.72,1Zm-20.417,0h0l-2.037-1.22,1.72-1,2.11,1.22-1.72,1Zm33.321,0h0l-2.037-1.22,2.171-1.22,2.1,1.22-2.159,1.22Zm-5.415-.549h0l-2.049-1.22,1.732-1,2.11,1.22-1.732,1Zm-18.478-.378h0l-2.037-1.22,1.732-1,2.11,1.22-1.732,1Zm7.05-.39h0l-2.049-1.22,1.732-1,2.11,1.22-1.72.854Zm6.757-.22h0l-2.037-1.22,1.732-1,2.1,1.22-1.72.988Zm-20.417,0h0l-2.037-1.22,1.732-.988,2.1,1.22-1.72.988Zm33.772-.293h0l-2.049-1.22,2.769-1.6,2.11,1.22-2.769,1.6Zm-5.854-.3h0l-2.037-1.22,5.44-3.134,2.1,1.22-5.427,3.135Zm-18.5-.549h0l-2.037-1.22,1.72-1,2.11,1.22-1.72.988Zm7.062-.39h0l-2.037-1.22,1.72-.988,2.11,1.22-1.72.988Zm6.745-.207h0l-2.037-1.22,1.72-.988,2.11,1.22-1.732.988Zm-20.417,0h0l-2.049-1.22,1.732-1,2.11,1.22-1.732,1Zm9.44-.976h0l-2.037-1.22,1.732-.988,2.1,1.22-1.72.988Zm25.979-.268h0l-2.037-1.22,1.72-1,2.11,1.22-1.72,1Zm-18.929-.122h0l-2.037-1.22,1.732-1,2.1,1.22-1.72,1Zm6.757-.22h0l-2.037-1.22,1.573-.915a.341.341,0,0,0,.183-.281.366.366,0,0,0-.2-.3l-2.671-1.549,2.025-1.159,5.293,3.025-4.1,2.366Zm-20.417,0h0l-2.037-1.22,1.72-1,2.11,1.22-1.72.988Zm9.428-.976h0l-2.037-1.22,1.72-1,2.11,1.22-1.732,1Zm25.979-.268h0l-2.037-1.22,1.732-1,2.1,1.22-1.72.988Zm-18.929-.122h0l-2.049-1.22,1.732-1,2.11,1.22-1.732.988Zm-12.428-.976h0l-2.037-1.22,1.72-.988,2.11,1.22-1.72.988Zm8.208-.268h0l-2.037-1.22,1.72-.988,2.11,1.22-1.72.988Zm25.966-.256h0l-2.037-1.22,1.732-.988,2.11,1.22-1.732.988Zm-6.013-.22h0l-2.037-1.22,1.72-1,2.11,1.22-1.72.988Zm-25.332-1.012h0l-2.037-1.22,1.732-1,2.1,1.22-1.72,1Zm8.208-.268h0l-2.037-1.22,3.061-1.768,2.11,1.22-3.061,1.768Zm26.564-.61h0l-2.037-1.22,4.537-2.622,2.11,1.22-4.549,2.622Zm-18.624-.293h0l-2.037-1.22,1.732-1,2.1,1.22-1.72,1ZM143,264.348h0l-2.037-1.22,1.72-.988,2.11,1.22-1.72.988Zm28.771-1.086h0l-2.037-1.22,1.732-1,2.1,1.22-1.72,1Zm-12.623-.085h0l-2.037-1.22,1.72-.988,2.11,1.22-1.72.988Zm-6-.207h0l-2.037-1.22,1.72-1,2.11,1.22-1.72,1Zm-7.318-.244h0l-2.037-1.22,1.72-1,2.11,1.22-1.72,1Zm34.772-.878h0l-2.037-1.22,1.732-1,2.1,1.22-1.72,1Zm-6.013-.22h0l-2.037-1.22,1.732-.988,2.1,1.22-1.72.988Zm-12.611-.073h0l-2.037-1.22,1.72-1,2.11,1.22-1.72,1Zm6.6-.134h0l-2.037-1.22,1.72-1,2.11,1.22-1.72,1Zm-12.623-.134h0l-2.037-1.22,1.732-.988,2.1,1.22-1.707.988Zm-6.7-.6h0l-2.049-1.22,1.732-1,2.11,1.22-1.732,1Zm34.15-.524h0l-5.232-3.025,1.72-1,5.305,3.025-1.72,1Zm-6-.207h0l-2.037-1.22,1.72-1,2.11,1.22-1.72,1Zm-6.013-.22h0l-2.037-1.22,1.72-.988,2.11,1.22-1.72.988Zm-12.623-.073h0l-2.025-1.22,1.72-1,2.11,1.22-1.732,1Zm6.61-.134h0l-2.037-1.22,1.72-1,2.11,1.22-1.72,1Zm-13.294-.476h0l-2.037-1.22,1.72-1,2.11,1.22-1.72,1Zm22.124-.939h0l-2.037-1.22,1.732-1,2.1,1.22-1.72,1Zm-6.013-.22h0l-2.049-1.22,1.732-.988,2.11,1.22-1.732.988Zm-6.013-.207h0l-2.037-1.22,1.72-1,2.11,1.22-1.732,1Zm-7.318-.256h0l-2.037-1.22,1.732-.988,2.1,1.22-1.72.988Zm22.124-.951h0l-5.232-3.025,1.732-.988,5.293,3.013-1.72,1Zm-6-.207h0l-2.037-1.22,1.72-1,2.11,1.22-1.72,1Zm-6.013-.207h0l-2.037-1.22,1.72-.988,2.11,1.22-1.72.988Zm-7.513-1.085h0l-.878-.5,1.72-.988.951.512-1.72.988Zm10.33-.549h0l-2.037-1.22,1.732-1,2.1,1.22-1.72,1Zm-7.513-1.085h0l-.878-.5,1.72-1,.951.512-1.72.988Zm10.33-.549h0l-2.037-1.22,1.72-.988,2.11,1.22-1.72.988Zm-7.5-1.073h0l-.89-.5,1.732-.988.939.512-1.707.988Zm2.817-1.634h0l-.878-.5,1.72-1,.951.512-1.72.988Z" transform="translate(-102.035 -246.19)" fill="#005bea"/>
            <path id="Path_1907" data-name="Path 1907" d="M124.452,294.217h0L122.415,293l2.756-1.6,2.11,1.22-2.805,1.6Zm-3.183-1.842h0l-2.037-1.22,2.171-1.22,2.11,1.22-2.171,1.22Zm7.05-.39h0l-2.037-1.22,2.171-1.22,2.11,1.22-2.171,1.22Zm-10.245-1.451h0l-2.037-1.22,3.513-2.025,2.11,1.22-3.561,2.049Zm6.464,0h0l-2.037-1.22,1.72-.988,2.11,1.22-1.72.988Zm7.05-.39h0l-2.037-1.22,2.171-1.22,2.11,1.22-2.171,1.22Zm-4.232-1.22h0l-2.037-1.22,1.732-1,2.1,1.22-1.72,1Zm-12.465-.171h0l-2.037-1.22,2.769-1.6,2.1,1.22-2.756,1.6Zm19.966-.476h0l-2.037-1.22L148.5,278l2.11,1.22-15.685,9.05Zm-12.2-.342h0l-2.037-1.22,1.72-.988,2.11,1.22-1.72.988Zm7.489-.646h0l-2.037-1.22,1.72-.988,2.11,1.22-1.72.988Zm-18.453-.39h0l-2.037-1.22,1.732-.988,2.11,1.22-1.732.988Zm7.05-.378h0l-2.037-1.22,1.72-.988,2.11,1.22-1.72.988Zm6.757-.22h0l-2.037-1.22,1.732-1,2.1,1.22-1.72,1Zm7.5-.646h0l-2.037-1.22,1.72-1,2.11,1.22-1.72,1Zm-18.429-.39h0l-2.037-1.22,1.72-1,2.11,1.22-1.72,1Zm7.05-.39h0l-2.037-1.22,1.72-1,2.11,1.22-1.72,1Zm6.757-.22h0l-2.037-1.22,1.72-1,2.11,1.22-1.72.988Zm-20.5,0h0l-2.037-1.22,2.171-1.22,2.11,1.22-2.171,1.22Zm27.991-.646h0l-2.037-1.22,1.732-.988,2.1,1.22-1.72.988Zm-18.478-.378h0l-2.037-1.22,1.732-1,2.1,1.22-1.72,1Zm7.05-.39h0l-2.037-1.22,1.732-.988,2.1,1.22-1.72.988Zm6.757-.207h0l-2.037-1.22,1.72-.988,2.11,1.22-1.72.988Zm7.489-.646h0l-2.037-1.22,1.72-1,2.11,1.22-1.72,1Zm-26.369-.366h0l-2.037-1.22,1.72-.988,2.11,1.22-1.72.988Zm7.842,0h0l-2.037-1.22,1.72-.988,2.11,1.22-1.72.988Zm7.062-.39h0l-2.037-1.22,1.72-1,2.11,1.22-1.72,1Zm6.745-.22h0l-2.037-1.22,1.732-1,2.11,1.22-1.732,1Zm7.5-.646h0l-2.037-1.22,1.72-1,2.11,1.22-1.72.988Zm-26.32-.317h0l-2.037-1.22,1.72-1,2.11,1.22-1.72,1Zm7.842-.061h0l-2.037-1.22,1.72-1,2.11,1.22-1.72,1Zm7.05-.39h0L128,278.776l1.72-1,2.11,1.22-1.72.988Zm6.757-.22h0l-2.037-1.22,1.72-.988,2.11,1.22-1.72.988Zm7.489-.634h0l-2.037-1.22,1.732-.988,2.1,1.22-1.72.988Zm-26.32-.329h0l-2.037-1.22,1.732-1,2.11,1.22-1.732.988Zm7.842-.061h0l-2.037-1.22,1.732-.988,2.1,1.22-1.72.988Zm25.832-.171h0l-2.037-1.22,2.171-1.22,2.1,1.22-2.159,1.22Zm-18.77-.22h0l-2.037-1.22,1.732-1,2.11,1.22Zm6.757-.22h0l-2.037-1.22,1.732-1,2.1,1.22-1.72,1Zm7.5-.646h0l-2.037-1.22,1.72-1,2.11,1.22-1.72,1Zm-26.332-.354h0l-2.037-1.22,1.72-1,2.11,1.22-1.72.988Zm7.842,0h0l-2.037-1.22,1.72-1,2.11,1.22-1.72,1Zm7.05-.39h0l-2.037-1.22,1.72-1,2.11,1.22-1.72,1Zm19.222,0h0l-2.037-1.22,2.171-1.22,2.1,1.22-2.159,1.22Zm-12.477-.171h0l-2.037-1.22,1.732-.988,2.11,1.22-1.732.988Zm7.513-.659h0l-2.037-1.22,1.732-.988,2.1,1.22Zm-18.478-.378h0l-2.037-1.22,1.72-.988,2.11,1.22-1.72.988Zm7.05-.39h0l-2.037-1.22,1.732-.988,2.1,1.22-1.72.988Zm6.757-.207h0l-2.037-1.22,1.72-1,2.11,1.22-1.72,1Zm-20.417,0h0l-2.037-1.22,1.72-1,2.11,1.22-1.72,1Zm33.321,0h0l-2.037-1.22,2.171-1.22,2.1,1.22-2.159,1.22Zm-5.415-.549h0l-2.049-1.22,1.732-1,2.11,1.22-1.732,1Zm-18.478-.378h0l-2.037-1.22,1.732-1,2.11,1.22-1.732,1Zm7.05-.39h0l-2.049-1.22,1.732-1,2.11,1.22-1.72.854Zm6.757-.22h0l-2.037-1.22,1.732-1,2.1,1.22-1.72.988Zm-20.417,0h0l-2.037-1.22,1.732-.988,2.1,1.22-1.72.988Zm33.772-.293h0l-2.049-1.22,2.769-1.6,2.11,1.22-2.769,1.6Zm-5.854-.3h0l-2.037-1.22,5.44-3.134,2.1,1.22-5.427,3.135Zm-18.5-.549h0l-2.037-1.22,1.72-1,2.11,1.22-1.72.988Zm7.062-.39h0l-2.037-1.22,1.72-.988,2.11,1.22-1.72.988Zm6.745-.207h0l-2.037-1.22,1.72-.988,2.11,1.22-1.732.988Zm-20.417,0h0l-2.049-1.22,1.732-1,2.11,1.22-1.732,1Zm9.44-.976h0l-2.037-1.22,1.732-.988,2.1,1.22-1.72.988Zm25.979-.268h0l-2.037-1.22,1.72-1,2.11,1.22-1.72,1Zm-18.929-.122h0l-2.037-1.22,1.732-1,2.1,1.22-1.72,1Zm6.757-.22h0l-2.037-1.22,1.573-.915a.341.341,0,0,0,.183-.281.366.366,0,0,0-.2-.3l-2.671-1.549,2.025-1.159,5.293,3.025-4.1,2.366Zm-20.417,0h0l-2.037-1.22,1.72-1,2.11,1.22-1.72.988Zm9.428-.976h0l-2.037-1.22,1.72-1,2.11,1.22-1.732,1Zm25.979-.268h0l-2.037-1.22,1.732-1,2.1,1.22-1.72.988Zm-18.929-.122h0l-2.049-1.22,1.732-1,2.11,1.22-1.732.988Zm-12.428-.976h0l-2.037-1.22,1.72-.988,2.11,1.22-1.72.988Zm8.208-.268h0l-2.037-1.22,1.72-.988,2.11,1.22-1.72.988Zm25.966-.256h0l-2.037-1.22,1.732-.988,2.11,1.22-1.732.988Zm-6.013-.22h0l-2.037-1.22,1.72-1,2.11,1.22-1.72.988Zm-25.332-1.012h0l-2.037-1.22,1.732-1,2.1,1.22-1.72,1Zm8.208-.268h0l-2.037-1.22,3.061-1.768,2.11,1.22-3.061,1.768Zm26.564-.61h0l-2.037-1.22,4.537-2.622,2.11,1.22-4.549,2.622Zm-18.624-.293h0l-2.037-1.22,1.732-1,2.1,1.22-1.72,1ZM143,264.348h0l-2.037-1.22,1.72-.988,2.11,1.22-1.72.988Zm28.771-1.086h0l-2.037-1.22,1.732-1,2.1,1.22-1.72,1Zm-12.623-.085h0l-2.037-1.22,1.72-.988,2.11,1.22-1.72.988Zm-6-.207h0l-2.037-1.22,1.72-1,2.11,1.22-1.72,1Zm-7.318-.244h0l-2.037-1.22,1.72-1,2.11,1.22-1.72,1Zm34.772-.878h0l-2.037-1.22,1.732-1,2.1,1.22-1.72,1Zm-6.013-.22h0l-2.037-1.22,1.732-.988,2.1,1.22-1.72.988Zm-12.611-.073h0l-2.037-1.22,1.72-1,2.11,1.22-1.72,1Zm6.6-.134h0l-2.037-1.22,1.72-1,2.11,1.22-1.72,1Zm-12.623-.134h0l-2.037-1.22,1.732-.988,2.1,1.22-1.707.988Zm-6.7-.6h0l-2.049-1.22,1.732-1,2.11,1.22-1.732,1Zm34.15-.524h0l-5.232-3.025,1.72-1,5.305,3.025-1.72,1Zm-6-.207h0l-2.037-1.22,1.72-1,2.11,1.22-1.72,1Zm-6.013-.22h0l-2.037-1.22,1.72-.988,2.11,1.22-1.72.988Zm-12.623-.073h0l-2.025-1.22,1.72-1,2.11,1.22-1.732,1Zm6.61-.134h0l-2.037-1.22,1.72-1,2.11,1.22-1.72,1Zm-13.294-.476h0l-2.037-1.22,1.72-1,2.11,1.22-1.72,1Zm22.124-.939h0l-2.037-1.22,1.732-1,2.1,1.22-1.72,1Zm-6.013-.22h0l-2.049-1.22,1.732-.988,2.11,1.22-1.732.988Zm-6.013-.207h0l-2.037-1.22,1.72-1,2.11,1.22-1.732,1Zm-7.318-.256h0l-2.037-1.22,1.732-.988,2.1,1.22-1.72.988Zm22.124-.951h0l-5.232-3.025,1.732-.988,5.293,3.013-1.72,1Zm-6-.207h0l-2.037-1.22,1.72-1,2.11,1.22-1.72,1Zm-6.013-.207h0l-2.037-1.22,1.72-.988,2.11,1.22-1.72.988Zm-7.513-1.085h0l-.878-.5,1.72-.988.951.512-1.72.988Zm10.33-.549h0l-2.037-1.22,1.732-1,2.1,1.22-1.72,1Zm-7.513-1.085h0l-.878-.5,1.72-1,.951.512-1.72.988Zm10.33-.549h0l-2.037-1.22,1.72-.988,2.11,1.22-1.72.988Zm-7.5-1.073h0l-.89-.5,1.732-.988.939.512-1.707.988Zm2.817-1.634h0l-.878-.5,1.72-1,.951.512-1.72.988Z" transform="translate(-102.035 -246.19)" opacity="0.5"/>
          </g>
        </g>
        <g id="freepik--PC--inject-293" transform="translate(15.916)">
          <path id="freepik--shadow--inject-293-6" data-name="freepik--shadow--inject-293" d="M65.027,284.945,43.72,272.639,150.281,211.12l21.307,12.294Z" transform="translate(-43.72 -118.172)" opacity="0.15"/>
          <g id="freepik--Monitor--inject-293" transform="translate(14.206)">
            <path id="Path_1908" data-name="Path 1908" d="M119.13,265.346l15.221-8.806a4,4,0,0,0,2.354-3.269V251.15l-18.295-10.367a3.342,3.342,0,0,1-1.512-2.634V219.39L90.31,234.77v18.77a3.342,3.342,0,0,0,1.512,2.622l15.953,9.208A12.587,12.587,0,0,0,119.13,265.346Z" transform="translate(-47.693 -116.356)" fill="#e6e6e6"/>
            <path id="Path_1909" data-name="Path 1909" d="M96.691,254.591v2.11L91.812,253.9a3.342,3.342,0,0,1-1.512-2.634V232.527l5.062-2.927c.1,1.22.22,2.61.317,3.915l-3.549,2.049V250.2a3.342,3.342,0,0,0,1.512,2.622Z" transform="translate(-47.695 -114.113)" fill="#e0e0e0"/>
            <path id="Path_1910" data-name="Path 1910" d="M91.81,251.9a3.378,3.378,0,0,0,1.512,2.622l14.124,8.147a12.5,12.5,0,0,0,11.355,0l15.221-8.794c3.147-1.805,3.147-4.744,0-6.549L119.9,239.168a3.378,3.378,0,0,1-1.512-2.622V221.91L91.81,237.241Z" transform="translate(-47.363 -115.802)" fill="#f5f5f5"/>
            <path id="Path_1911" data-name="Path 1911" d="M122.984,240.949h0l-3.086-1.781a3.379,3.379,0,0,1-1.512-2.622V221.91L91.81,237.241v14.636a3.378,3.378,0,0,0,1.512,2.622l3.037,1.756Z" transform="translate(-47.363 -115.802)" fill="#ebebeb"/>
            <path id="Path_1912" data-name="Path 1912" d="M132.49,245.43v2.122a4.025,4.025,0,0,1-2.354,3.281l-15.221,8.794a11.476,11.476,0,0,1-5.415,1.342v-2.11a11.343,11.343,0,0,0,5.415-1.342l15.221-8.806A4,4,0,0,0,132.49,245.43Z" transform="translate(-43.478 -110.636)" fill="#ebebeb"/>
            <path id="Path_1913" data-name="Path 1913" d="M57.138,291.244a4.061,4.061,0,0,0,3.659,0l102.78-59.336a4.183,4.183,0,0,0,1.89-3.281V138.605a3.549,3.549,0,0,0-5.44-3.147L57.26,194.782a4.183,4.183,0,0,0-1.89,3.281v89.961A4.049,4.049,0,0,0,57.138,291.244Z" transform="translate(-55.367 -134.911)" fill="#455a64"/>
            <path id="Path_1914" data-name="Path 1914" d="M60.17,290.714l102.78-59.348a4.147,4.147,0,0,0,1.89-3.269V138.185c0-1.22-.842-1.708-1.89-1.1L60.17,196.423a4.22,4.22,0,0,0-1.89,3.281v89.961C58.28,290.873,59.158,291.36,60.17,290.714Z" transform="translate(-54.728 -134.491)" fill="#005bea"/>
            <path id="Path_1915" data-name="Path 1915" d="M60.17,290.714l102.78-59.348a4.147,4.147,0,0,0,1.89-3.269V138.185c0-1.22-.842-1.708-1.89-1.1L60.17,196.423a4.22,4.22,0,0,0-1.89,3.281v89.961C58.28,290.873,59.158,291.36,60.17,290.714Z" transform="translate(-54.728 -134.491)" fill="#37474f"/>
            <path id="Path_1916" data-name="Path 1916" d="M60.53,265.564a3.537,3.537,0,0,1-5.159-3.281V252.16l3.549,2.061v10.111C58.92,265.381,59.615,265.93,60.53,265.564Z" transform="translate(-55.368 -109.158)" fill="#e0e0e0"/>
            <path id="Path_1917" data-name="Path 1917" d="M58.28,264.919v10.123c0,1.22.854,1.7,1.89,1.1l102.78-59.348a4.147,4.147,0,0,0,1.89-3.269V203.4Z" transform="translate(-54.728 -119.868)" fill="#fff"/>
            <path id="Path_1918" data-name="Path 1918" d="M61.19,271.029V199.838a2.537,2.537,0,0,1,1.134-1.976l97.194-56.1c.622-.366,1.134-.073,1.134.659v71.191a2.537,2.537,0,0,1-1.134,1.976l-97.194,56.1C61.7,272.053,61.19,271.761,61.19,271.029Z" transform="translate(-54.089 -133.442)" fill="#005bea"/>
            <path id="Path_1919" data-name="Path 1919" d="M61.19,271.029V199.838a2.537,2.537,0,0,1,1.134-1.976l97.194-56.1c.622-.366,1.134-.073,1.134.659v71.191a2.537,2.537,0,0,1-1.134,1.976l-97.194,56.1C61.7,272.053,61.19,271.761,61.19,271.029Z" transform="translate(-54.089 -133.442)" fill="#fff" opacity="0.5"/>
            <path id="Path_1920" data-name="Path 1920" d="M66.1,197.894l86.534-50.006c.634-.366,1.134-.073,1.134.659V211.6a2.439,2.439,0,0,1-1.134,1.964L66.116,263.572c-.634.366-1.146.061-1.146-.659V199.87A2.537,2.537,0,0,1,66.1,197.894Z" transform="translate(-53.259 -132.096)" fill="#455a64"/>
            <path id="Path_1921" data-name="Path 1921" d="M153.773,148.575c0-.72-.5-1.012-1.134-.646L66.1,197.934a2.537,2.537,0,0,0-1.134,1.976v4.879l88.8-51.225Z" transform="translate(-53.259 -132.087)" fill="#37474f"/>
            <path id="Path_1922" data-name="Path 1922" d="M102.321,232.046a3.891,3.891,0,0,0-1.781,3.074c0,1.134.793,1.586,1.781,1.025a3.952,3.952,0,0,0,1.768-3.074C104.053,231.924,103.26,231.46,102.321,232.046Z" transform="translate(-45.446 -113.632)" fill="#455a64"/>
            <path id="Path_1923" data-name="Path 1923" d="M59.48,187.207a4.074,4.074,0,0,0-.561,1.878v79.85l-3.549-2.061V187.036a3.891,3.891,0,0,1,.561-1.866Z" transform="translate(-55.367 -123.872)" fill="#263238"/>
            <path id="Path_1924" data-name="Path 1924" d="M76.55,200.378v52.042l61.238-35.37v-52.03c0-.793-.561-1.122-1.22-.72L77.843,198.207A2.781,2.781,0,0,0,76.55,200.378Z" transform="translate(-50.715 -128.494)" fill="#fafafa"/>
            <path id="Path_1925" data-name="Path 1925" d="M85,195.665a4.193,4.193,0,0,0,0,.427v1.122a4.057,4.057,0,0,0,0,.427,1.951,1.951,0,0,0,.061.476.817.817,0,0,0,.171.341.4.4,0,0,0,.293.122.768.768,0,0,0,.427-.134,1.561,1.561,0,0,0,.439-.342,2.025,2.025,0,0,0,.268-.39,1.55,1.55,0,0,0,.159-.39,2.632,2.632,0,0,0,.1-.354,1.147,1.147,0,0,1,.085-.317.378.378,0,0,1,.171-.171l1-.585a.073.073,0,0,1,.11,0,.207.207,0,0,1,0,.159,4.44,4.44,0,0,1-.183,1.22,5.611,5.611,0,0,1-1.22,2.256,3.66,3.66,0,0,1-.939.768,2.025,2.025,0,0,1-.976.317,1.219,1.219,0,0,1-.732-.268,1.573,1.573,0,0,1-.476-.744,3.793,3.793,0,0,1-.183-1.122V196.4a6.33,6.33,0,0,1,.183-1.329,6.794,6.794,0,0,1,.463-1.293,5.7,5.7,0,0,1,.744-1.11,3.866,3.866,0,0,1,.976-.817,2.318,2.318,0,0,1,.939-.317,1.39,1.39,0,0,1,.756.183,1.476,1.476,0,0,1,.5.634,2.549,2.549,0,0,1,.183,1.012.4.4,0,0,1,0,.207.293.293,0,0,1-.11.146l-1,.573c-.085.061-.146.061-.171,0a.476.476,0,0,1-.085-.22,1.1,1.1,0,0,0-.1-.256.451.451,0,0,0-.159-.207.464.464,0,0,0-.268-.073,1.22,1.22,0,0,0-.439.159,1.39,1.39,0,0,0-.427.366,1.659,1.659,0,0,0-.293.463,2.634,2.634,0,0,0-.171.524A3.037,3.037,0,0,0,85,195.665Z" transform="translate(-49.173 -122.475)" fill="#e0e0e0"/>
            <path id="Path_1926" data-name="Path 1926" d="M88.291,193.7a6.427,6.427,0,0,1,.646-2.622,5.731,5.731,0,0,1,.732-1.1,3.817,3.817,0,0,1,1-.829,1.94,1.94,0,0,1,.988-.317,1.073,1.073,0,0,1,.732.256,1.586,1.586,0,0,1,.463.732,3.928,3.928,0,0,1,.2,1.134c0,.329,0,.683,0,1.049v1.037a6.476,6.476,0,0,1-.2,1.354,5.733,5.733,0,0,1-.463,1.281,5.146,5.146,0,0,1-.732,1.11,4.2,4.2,0,0,1-.988.817,2.049,2.049,0,0,1-1,.329,1.11,1.11,0,0,1-.732-.256,1.781,1.781,0,0,1-.463-.756,3.793,3.793,0,0,1-.183-1.122V194.77C88.291,194.4,88.279,194.038,88.291,193.7Zm3.342.1V191.83a2.721,2.721,0,0,0-.073-.5.866.866,0,0,0-.183-.317.4.4,0,0,0-.293-.122.781.781,0,0,0-.415.134,1.585,1.585,0,0,0-.415.341,1.658,1.658,0,0,0-.293.463,2.438,2.438,0,0,0-.183.524,3.232,3.232,0,0,0-.085.585c0,.146,0,.293,0,.463v1.512a1.22,1.22,0,0,0,.268.817c.159.171.39.171.707,0a1.634,1.634,0,0,0,.7-.793,3.159,3.159,0,0,0,.232-1.146Z" transform="translate(-48.137 -123.068)" fill="#e0e0e0"/>
            <path id="Path_1927" data-name="Path 1927" d="M96.687,194.115h-.22a.353.353,0,0,1-.1-.1l-1.744-3.013v3.976a.658.658,0,0,1,0,.256.293.293,0,0,1-.146.171l-1,.585a.122.122,0,0,1-.146,0,.281.281,0,0,1,0-.2v-7.574a.769.769,0,0,1,0-.268.415.415,0,0,1,.146-.171l.793-.464a.183.183,0,0,1,.207,0,.3.3,0,0,1,.11.11l1.744,3v-3.964a.659.659,0,0,1,.061-.256.378.378,0,0,1,.146-.183l1-.573a.1.1,0,0,1,.146,0,.256.256,0,0,1,.061.183v7.586a.659.659,0,0,1-.061.256.6.6,0,0,1-.146.183Z" transform="translate(-47.033 -123.817)" fill="#e0e0e0"/>
            <path id="Path_1928" data-name="Path 1928" d="M102.045,182.8a.1.1,0,0,1,.134,0,.207.207,0,0,1,0,.183v1.22a.5.5,0,0,1,0,.256.378.378,0,0,1-.134.183l-1.342.781v6.013a.768.768,0,0,1,0,.268.707.707,0,0,1-.146.171l-1,.573h-.146a.256.256,0,0,1,0-.183v-6.025l-1.342.781a.122.122,0,0,1-.146,0,.256.256,0,0,1,0-.183v-1.22a.72.72,0,0,1,0-.268.342.342,0,0,1,.146-.171Z" transform="translate(-46.024 -124.397)" fill="#e0e0e0"/>
            <path id="Path_1929" data-name="Path 1929" d="M104.585,181.187a2.854,2.854,0,0,1,.9-.354.927.927,0,0,1,.671.11,1,1,0,0,1,.427.585,3.146,3.146,0,0,1,.159,1.11,5.05,5.05,0,0,1-.244,1.6,4.074,4.074,0,0,1-.671,1.22l.951,2.256a.354.354,0,0,1,0,.11.573.573,0,0,1,0,.207.3.3,0,0,1-.122.146l-1.037.6c-.11.061-.171.073-.22,0a.427.427,0,0,1-.1-.159l-.854-2.012-.7.4v2.573a.659.659,0,0,1,0,.256.427.427,0,0,1-.146.171l-1,.585a.122.122,0,0,1-.146,0,.268.268,0,0,1,0-.2v-7.574a.768.768,0,0,1,0-.268.4.4,0,0,1,.146-.171Zm-.854,4.061.854-.5a1.622,1.622,0,0,0,.537-.5,1.415,1.415,0,0,0,.207-.793c0-.329-.073-.524-.207-.561a.671.671,0,0,0-.537.11l-.854.5Z" transform="translate(-45.027 -124.829)" fill="#e0e0e0"/>
            <path id="Path_1930" data-name="Path 1930" d="M109.86,178.2c.1-.061.183-.061.232,0a.512.512,0,0,1,.11.2l1.659,6.428a.548.548,0,0,1,0,.159.707.707,0,0,1,0,.22.329.329,0,0,1-.122.134l-.964.561c-.1.061-.171.061-.207,0a.232.232,0,0,1-.085-.146l-.22-.854-2.025,1.22-.207,1.1a.842.842,0,0,1-.085.244.537.537,0,0,1-.22.22l-.964.561a.073.073,0,0,1-.11,0,.183.183,0,0,1,0-.146,1.672,1.672,0,0,1,0-.2l1.659-8.355a1.586,1.586,0,0,1,.122-.329.476.476,0,0,1,.232-.256Zm-1.22,5.842,1.22-.707-.622-2.439Z" transform="translate(-44.106 -125.413)" fill="#e0e0e0"/>
            <path id="Path_1931" data-name="Path 1931" d="M112.945,179.543a4.065,4.065,0,0,0,0,.427v1.122a3.82,3.82,0,0,0,0,.415,1.807,1.807,0,0,0,0,.476.817.817,0,0,0,.171.341.415.415,0,0,0,.293.134.8.8,0,0,0,.427-.146,1.353,1.353,0,0,0,.427-.341,1.6,1.6,0,0,0,.281-.378,2.021,2.021,0,0,0,.159-.39,2.752,2.752,0,0,0,.1-.366,1.866,1.866,0,0,1,.073-.3.439.439,0,0,1,.183-.183l1-.573a.073.073,0,0,1,.11,0s0,.073,0,.146a4.366,4.366,0,0,1-.183,1.22,5.854,5.854,0,0,1-.5,1.22,5.476,5.476,0,0,1-.756,1.049,3.659,3.659,0,0,1-.939.768,1.9,1.9,0,0,1-.976.317,1.073,1.073,0,0,1-.732-.256,1.634,1.634,0,0,1-.476-.744,3.927,3.927,0,0,1-.183-1.122v-2.1a6.439,6.439,0,0,1,.646-2.61,5.354,5.354,0,0,1,.744-1.11,3.915,3.915,0,0,1,.976-.829,2.22,2.22,0,0,1,.939-.3,1.293,1.293,0,0,1,.756.183,1.366,1.366,0,0,1,.5.622,2.561,2.561,0,0,1,.183,1.025.464.464,0,0,1,0,.207.293.293,0,0,1-.11.146l-1,.573c-.085,0-.146.061-.183,0a.732.732,0,0,1-.073-.22,1.77,1.77,0,0,0-.1-.256.415.415,0,0,0-.159-.2.476.476,0,0,0-.281-.073.976.976,0,0,0-.427.146,1.818,1.818,0,0,0-.427.366,1.854,1.854,0,0,0-.293.464,2.744,2.744,0,0,0-.171.537A2.817,2.817,0,0,0,112.945,179.543Z" transform="translate(-43.056 -126.014)" fill="#e0e0e0"/>
            <path id="Path_1932" data-name="Path 1932" d="M120.324,172.25h.146a.207.207,0,0,1,0,.183v1.22a.5.5,0,0,1,0,.256.378.378,0,0,1-.146.183l-1.342.768v6.025a.5.5,0,0,1,0,.256.451.451,0,0,1-.134.183l-1,.573a.11.11,0,0,1-.146,0,.207.207,0,0,1-.061-.183v-6.025l-1.342.781a.122.122,0,0,1-.146,0,.3.3,0,0,1,0-.2v-1.22a.659.659,0,0,1,0-.256.378.378,0,0,1,.146-.183Z" transform="translate(-42.02 -126.71)" fill="#e0e0e0"/>
            <path id="Path_1933" data-name="Path 1933" d="M81.523,209.388l49.566-28.637a.557.557,0,0,1,.9.512h0a1.964,1.964,0,0,1-.9,1.561L81.535,211.352c-.5.281-.915.073-.915-.463a1.976,1.976,0,0,1,.9-1.5Z" transform="translate(-49.821 -124.868)" fill="#e0e0e0"/>
            <path id="Path_1934" data-name="Path 1934" d="M81.523,213.892l49.566-28.65c.5-.293.9-.061.9.524h0a2,2,0,0,1-.9,1.647l-49.554,28.43c-.5.281-.915.073-.915-.463a1.939,1.939,0,0,1,.9-1.488Z" transform="translate(-49.821 -123.884)" fill="#e0e0e0"/>
            <path id="Path_1935" data-name="Path 1935" d="M81.523,218.379l49.566-28.65a.561.561,0,0,1,.9.524h0a2,2,0,0,1-.9,1.561L81.535,220.331c-.5.293-.915.085-.915-.451a1.939,1.939,0,0,1,.9-1.5Z" transform="translate(-49.821 -122.895)" fill="#e0e0e0"/>
            <path id="Path_1936" data-name="Path 1936" d="M81.523,225.048l49.566-28.637a.557.557,0,0,1,.9.512h0a1.951,1.951,0,0,1-.9,1.549l-49.554,28.54c-.5.281-.915.073-.915-.463a1.976,1.976,0,0,1,.9-1.5Z" transform="translate(-49.821 -121.429)" fill="#e0e0e0"/>
            <path id="Path_1937" data-name="Path 1937" d="M81.523,229.549l49.566-28.65a.561.561,0,0,1,.9.524h0a2,2,0,0,1-.9,1.561L81.535,231.537c-.5.293-.915.085-.915-.451a1.939,1.939,0,0,1,.9-1.537Z" transform="translate(-49.821 -120.441)" fill="#e0e0e0"/>
            <path id="Path_1938" data-name="Path 1938" d="M81.523,234.039l49.566-28.65a.561.561,0,0,1,.9.524h0a1.964,1.964,0,0,1-.9,1.561L81.535,235.991c-.5.293-.915.085-.915-.451a1.976,1.976,0,0,1,.9-1.5Z" transform="translate(-49.821 -119.455)" fill="#e0e0e0"/>
          </g>
        </g>
      </g>
    </g>
    <g id="freepik--Chair--inject-293" transform="translate(399.756 220.353)">
      <g id="freepik--chair--inject-293-2" data-name="freepik--chair--inject-293">
        <path id="Path_1939" data-name="Path 1939" d="M393.09,416.716a1.72,1.72,0,0,0,1.72-1.72V304.24a1.72,1.72,0,1,0-3.439,0V415a1.72,1.72,0,0,0,1.72,1.72Z" transform="translate(-316.066 -164.319)" fill="#455a64"/>
        <path id="Path_1940" data-name="Path 1940" d="M336.9,379.2a1.732,1.732,0,0,0,1.61-1.086l33.955-85.961a1.719,1.719,0,1,0-3.2-1.268L335.3,376.848a1.72,1.72,0,0,0,.964,2.232,1.67,1.67,0,0,0,.634.122Z" transform="translate(-328.408 -167.115)" fill="#455a64"/>
        <path id="Path_1941" data-name="Path 1941" d="M340.239,367.544a1.671,1.671,0,0,0,1.22-.549l63.2-66.873,63.1,66.642a1.721,1.721,0,0,0,2.5-2.366L405.93,296.439a1.659,1.659,0,0,0-1.22-.549h0a1.707,1.707,0,0,0-1.22.549l-64.446,68.191a1.732,1.732,0,0,0,.073,2.439,1.7,1.7,0,0,0,1.122.476Z" transform="translate(-327.662 -165.775)" fill="#455a64"/>
        <path id="Path_1942" data-name="Path 1942" d="M455.427,379.2a1.671,1.671,0,0,0,.634-.122,1.72,1.72,0,0,0,.976-2.232l-33.967-85.961a1.725,1.725,0,1,0-3.208,1.268l33.967,85.961a1.732,1.732,0,0,0,1.6,1.085Z" transform="translate(-309.834 -167.115)" fill="#455a64"/>
        <path id="Path_1943" data-name="Path 1943" d="M339.32,352.46,334.832,364.3a1.376,1.376,0,0,0,0,.3.66.66,0,0,0,0,.22,1.366,1.366,0,0,0,.671.744,3,3,0,0,0,2.732,0,1.219,1.219,0,0,0,.537-.561h0v-.171l4.171-11.1Z" transform="translate(-328.487 -153.35)" fill="#005bea"/>
        <path id="Path_1944" data-name="Path 1944" d="M447.65,352.46l4.488,11.843a.939.939,0,0,1,0,.3v.22a1.451,1.451,0,0,1-.683.744,3,3,0,0,1-2.732,0,1.146,1.146,0,0,1-.524-.561h0v-.171l-4.159-11.1Z" transform="translate(-304.497 -153.35)" fill="#005bea"/>
        <path id="Path_1945" data-name="Path 1945" d="M391.15,387.8v9.757a.976.976,0,0,0,.586.8,3.073,3.073,0,0,0,2.805,0,.976.976,0,0,0,.585-.805V387.8A4.244,4.244,0,0,0,391.15,387.8Z" transform="translate(-316.114 -145.696)" fill="#005bea"/>
        <path id="Path_1946" data-name="Path 1946" d="M329.63,313.078c0-3.086,2.7-6.367,8.416-10.074,10.562-6.854,41.3-24.015,56.1-32.2a.171.171,0,0,1,.122-.122c11.367-6.9,14.831-36.346,22.7-61.312,2.683-8.538,5.964-13.331,9.867-15.6.915-.537,4.33-2.439,5.086-2.866,7.72-4.622,17.856.939,30.491,7.842,11.623,6.367,20.734,14.514,22.539,36.126,1.11,13.16,0,38.321-2.622,57.323h0c-3.878,31.845-8.623,31.906-15.526,37.236-11.867,9.172-38.6,22.063-49.871,26.491-20.441,8.037-37.138-4.354-49.579-10.5a291.5,291.5,0,0,1-32.931-19.514c-3.11-2.269-4.732-4.561-4.7-6.964C329.643,317.993,329.618,314.078,329.63,313.078Z" transform="translate(-329.628 -189.208)" fill="#005bea"/>
        <path id="Path_1947" data-name="Path 1947" d="M329.63,313.078c0-3.086,2.7-6.367,8.416-10.074,10.562-6.854,41.3-24.015,56.1-32.2a.171.171,0,0,1,.122-.122c11.367-6.9,14.831-36.346,22.7-61.312,2.683-8.538,5.964-13.331,9.867-15.6.915-.537,4.33-2.439,5.086-2.866,7.72-4.622,17.856.939,30.491,7.842,11.623,6.367,20.734,14.514,22.539,36.126,1.11,13.16,0,38.321-2.622,57.323h0c-3.878,31.845-8.623,31.906-15.526,37.236-11.867,9.172-38.6,22.063-49.871,26.491-20.441,8.037-37.138-4.354-49.579-10.5a291.5,291.5,0,0,1-32.931-19.514c-3.11-2.269-4.732-4.561-4.7-6.964C329.643,317.993,329.618,314.078,329.63,313.078Z" transform="translate(-329.628 -189.208)" opacity="0.2"/>
        <path id="Path_1948" data-name="Path 1948" d="M367.309,325.641a289.692,289.692,0,0,1-32.93-19.514c-7.086-5.147-6.428-10.4,3.659-16.99,14.1-9.147,64.19-36.687,64.19-36.687s72.667,42.895,69.52,50.811-40.712,27.332-54.884,32.93C396.447,344.18,379.75,331.788,367.309,325.641Z" transform="translate(-329.619 -175.317)" fill="#005bea"/>
        <g id="Group_1556" data-name="Group 1556" transform="translate(0.047 77.133)" opacity="0.5">
          <path id="Path_1949" data-name="Path 1949" d="M367.309,325.641a289.692,289.692,0,0,1-32.93-19.514c-7.086-5.147-6.428-10.4,3.659-16.99,14.1-9.147,64.19-36.687,64.19-36.687s72.667,42.895,69.52,50.811-40.712,27.332-54.884,32.93C396.447,344.18,379.75,331.788,367.309,325.641Z" transform="translate(-329.666 -252.45)" fill="#fff"/>
        </g>
        <path id="Path_1950" data-name="Path 1950" d="M409.67,193.516c7.647-4.013,17.587,1.451,29.881,8.184,7.879,4.318,14.636,9.428,18.673,19l5.184-3c-4.074-9.525-10.769-14.636-18.624-18.953-12.623-6.915-22.759-12.465-30.491-7.842C413.634,191.3,410.951,192.8,409.67,193.516Z" transform="translate(-312.046 -189.208)" fill="#005bea"/>
        <path id="Path_1951" data-name="Path 1951" d="M409.67,193.516c7.647-4.013,17.587,1.451,29.881,8.184,7.879,4.318,14.636,9.428,18.673,19l5.184-3c-4.074-9.525-10.769-14.636-18.624-18.953-12.623-6.915-22.759-12.465-30.491-7.842C413.634,191.3,410.951,192.8,409.67,193.516Z" transform="translate(-312.046 -189.208)" fill="#fff" opacity="0.5"/>
        <path id="Path_1952" data-name="Path 1952" d="M445.516,201.17c-18.892-10.343-32.223-17.685-40.248,7.672-7.867,24.966-11.331,54.408-22.7,61.312,0,0,7.415,2.439,33.857,15.416,10.855,5.33,17.978,10.708,28.149,17.075,14.953,9.4,13.819,16.4,13.819,16.4,7.428-6.159,11.44-60.153,9.623-81.777S457.139,207.537,445.516,201.17Z" transform="translate(-317.999 -188.678)" fill="#005bea"/>
      </g>
    </g>
    <g id="freepik--speech-bubble--inject-293" transform="translate(218.544 74.77)">
      <g id="freepik--speech-bubble--inject-293-2" data-name="freepik--speech-bubble--inject-293">
        <g id="freepik--speech-bubble--inject-293-3" data-name="freepik--speech-bubble--inject-293">
          <path id="Path_1953" data-name="Path 1953" d="M230.608,84.471a1.22,1.22,0,0,0-.634-.171H218.363l-4.793,2.769V103.68l4.793-2.769,4.147-4.781v11.733L227.3,105.1l12.562-13.538a1.22,1.22,0,0,0-.317-1.927Z" transform="translate(-173.907 -66.668)" fill="#005bea"/>
          <path id="Path_1954" data-name="Path 1954" d="M230.608,84.471a1.22,1.22,0,0,0-.634-.171H218.363l-4.793,2.769V103.68l4.793-2.769,4.147-4.781v11.733L227.3,105.1l12.562-13.538a1.22,1.22,0,0,0-.317-1.927Z" transform="translate(-173.907 -66.668)" fill="#fff" opacity="0.4"/>
          <path id="Path_1955" data-name="Path 1955" d="M220.9,106.935l4.793-2.769,12.562-13.538a1.22,1.22,0,0,0-.951-2.1H225.693L220.9,91.3Z" transform="translate(-172.297 -65.739)" fill="#005bea"/>
          <path id="Path_1956" data-name="Path 1956" d="M234.483,78.926a10.16,10.16,0,0,0-4.61-7.977h0a10.16,10.16,0,0,0-9.221,0l-35,20.027a10.221,10.221,0,0,0-4.6,7.989v37.809a10.221,10.221,0,0,0,4.6,7.989h0a10.16,10.16,0,0,0,9.221,0l35.37-20.344c4.147-2.366,4.183-4.732,4.183-7.672Z" transform="translate(-181.05 -69.843)" fill="#005bea"/>
          <path id="Path_1957" data-name="Path 1957" d="M181.06,132.322a10.221,10.221,0,0,0,4.6,7.989h0a10.294,10.294,0,0,0,8.428.39c-2.171.817-3.818-.427-3.818-3.049V99.843a9.44,9.44,0,0,1,1.342-4.537L182.4,90a9.489,9.489,0,0,0-1.342,4.549Z" transform="translate(-181.048 -65.416)" opacity="0.15"/>
          <path id="Path_1958" data-name="Path 1958" d="M234.09,77.619c-.537-1.951-2.33-2.586-4.452-1.354L194.623,96.3a9.123,9.123,0,0,0-3.244,3.439l-9.208-5.318a9.343,9.343,0,0,1,3.256-3.439l34.98-20.039a10.233,10.233,0,0,1,9.221,0h0A10.147,10.147,0,0,1,234.09,77.619Z" transform="translate(-180.804 -69.841)" fill="#fff" opacity="0.4"/>
        </g>
        <g id="freepik----inject-293" transform="translate(21.856 21.053)">
          <path id="Path_1959" data-name="Path 1959" d="M209.642,91a4.671,4.671,0,0,1,2.183,0,4.074,4.074,0,0,1,1.683.939,4.562,4.562,0,0,1,1.1,1.573,5.428,5.428,0,0,1,.439,1.988,1.671,1.671,0,0,1-.183.744,1.025,1.025,0,0,1-.39.488l-3.513,2.073a.8.8,0,0,1-1.085,0l-.244-.256a1.537,1.537,0,0,0-.5-.317,1.683,1.683,0,0,0-.8-.073,3.147,3.147,0,0,0-1.22.451,8.806,8.806,0,0,0-.988.671,5.855,5.855,0,0,0-.829.817,4.025,4.025,0,0,0-.6.988,3.012,3.012,0,0,0-.22,1.22.962.962,0,0,0,1.11,1.159,6.6,6.6,0,0,0,1.6-.244c.671-.159,1.488-.378,2.439-.634a8.379,8.379,0,0,1,2.586-.341,2.988,2.988,0,0,1,1.829.707,3.659,3.659,0,0,1,1.11,1.842,11.282,11.282,0,0,1,.366,3.159,13.706,13.706,0,0,1-.439,3.437,15.709,15.709,0,0,1-1.22,3.271,16.916,16.916,0,0,1-1.793,2.805,16.589,16.589,0,0,1-2.439,2.439v2.939a2.1,2.1,0,0,1-.22.915,1.415,1.415,0,0,1-.512.622l-3.525,2.025a.366.366,0,0,1-.5,0,.9.9,0,0,1-.22-.671v-3.025a5.037,5.037,0,0,1-2.33,0,4.049,4.049,0,0,1-1.768-.89,4.268,4.268,0,0,1-1.146-1.683,6.5,6.5,0,0,1-.427-2.293,1.793,1.793,0,0,1,.171-.744,1.22,1.22,0,0,1,.39-.5l3.525-2.025a1.122,1.122,0,0,1,.585-.207,1,1,0,0,1,.439.2l.317.354a2.135,2.135,0,0,0,.573.427,1.89,1.89,0,0,0,.915.159,3.244,3.244,0,0,0,1.366-.5,10.05,10.05,0,0,0,2.378-1.854,3.232,3.232,0,0,0,.951-2.256.927.927,0,0,0-.354-.842,1.83,1.83,0,0,0-1.049-.159,10.283,10.283,0,0,0-1.781.354l-2.573.659c-1.842.451-3.2.22-4.037-.707s-1.22-2.586-1.22-4.952a13.673,13.673,0,0,1,.354-3,16.5,16.5,0,0,1,1-3.049,16.736,16.736,0,0,1,1.622-2.866,15.927,15.927,0,0,1,2.159-2.537V90.77a2.1,2.1,0,0,1,.22-.915,1.33,1.33,0,0,1,.5-.622l3.525-2.037a.4.4,0,0,1,.512,0,.9.9,0,0,1,.219.671Z" transform="translate(-198.97 -87.105)" fill="#fafafa"/>
        </g>
      </g>
    </g>
    <g id="freepik--Briefcase--inject-293" transform="translate(154.951 382.103)">
      <g id="freepik--briefcase--inject-293-2" data-name="freepik--briefcase--inject-293">
        <path id="Path_1960" data-name="Path 1960" d="M128.91,370.629v63.519c0,3.086,2.183,4.879,4.879,6.428l6.684,3.866a6.44,6.44,0,0,0,5.22,1.024A14.2,14.2,0,0,0,149.254,444a.33.33,0,0,0,.146-.073l.354-.207,68.3-39.419a16.124,16.124,0,0,0,8-13.965V332.5a4.623,4.623,0,0,0-2.086-3.6l-11.4-6.574a4.5,4.5,0,0,0-4.135,0l-77.448,44.712a4.208,4.208,0,0,0-1.476,1.549,4.317,4.317,0,0,0-.6,2.037Z" transform="translate(-128.91 -321.828)" fill="#005bea"/>
        <path id="Path_1961" data-name="Path 1961" d="M128.91,362.207v63.519c0,3.086,2.183,4.879,4.879,6.428l6.684,3.866a6.44,6.44,0,0,0,5.22,1.024,14.2,14.2,0,0,0,3.561-1.464h0c-2.659,1.22-4.757-.146-4.757-3.293V372.415a6.513,6.513,0,0,1,.915-3.1l-15.855-9.147a4.317,4.317,0,0,0-.646,2.037Z" transform="translate(-128.91 -313.406)" opacity="0.3"/>
        <path id="Path_1962" data-name="Path 1962" d="M141.66,378.928a6.952,6.952,0,0,1,3.135-5.427l73.179-42.273c2.891-1.671,5.257-.293,5.257,3.049v54.152a16.124,16.124,0,0,1-7.977,13.965l-68.3,39.419c-2.891,1.671-5.257.3-5.257-3.037Z" transform="translate(-126.109 -319.919)" opacity="0.2"/>
        <path id="Path_1963" data-name="Path 1963" d="M215.171,324l-77.582,45.237a7.318,7.318,0,0,0-3.659,6.269v65.373l1.22.683V375.494a6.1,6.1,0,0,1,3.025-5.244l78.167-45.578Z" transform="translate(-127.807 -321.35)" fill="#005bea"/>
        <path id="Path_1964" data-name="Path 1964" d="M134.946,363.26a7.318,7.318,0,0,0-.976,3.659v65.373l1.22.683v-66.1a6.1,6.1,0,0,1,.817-3.025Z" transform="translate(-127.799 -312.727)" opacity="0.4"/>
        <path id="Path_1965" data-name="Path 1965" d="M135.8,372.471a5.927,5.927,0,0,1,2.208-2.22l78.167-45.578-1.22-.683-77.582,45.237a7.244,7.244,0,0,0-2.634,2.659" transform="translate(-127.629 -321.353)" opacity="0.3"/>
        <path id="Path_1966" data-name="Path 1966" d="M177,331.074v9.843l3.842,2.22v-13c0-.671-.463-.939-1.049-.61Z" transform="translate(-118.347 -320.168)" fill="#263238"/>
        <path id="Path_1967" data-name="Path 1967" d="M154.83,341.979v15.929l3.659,2.122,2.439-1.427V345.54a2.366,2.366,0,0,1,1.049-1.829l18.746-10.818,3.891-2.244c.585-.329,1.049-.061,1.049.61v13.062l2.439-1.427V326.977a1.111,1.111,0,0,0,0-.207,2.342,2.342,0,0,0-1.049-1.622l-1.561-.915a2.44,2.44,0,0,0-2.11,0l-27.576,15.929A2.293,2.293,0,0,0,154.83,341.979Z" transform="translate(-123.217 -321.352)" fill="#455a64"/>
        <path id="Path_1968" data-name="Path 1968" d="M157.84,343.712v15.916l2.439-1.427V345.139a2.366,2.366,0,0,1,1.049-1.83l18.746-10.818,3.891-2.244c.585-.329,1.049-.061,1.049.61V343.92l2.439-1.427V326.576a1.111,1.111,0,0,0,0-.207c-.1-.524-.524-.707-1.049-.4L158.889,341.9a2.366,2.366,0,0,0-1.049,1.817Z" transform="translate(-122.556 -320.951)" fill="#37474f"/>
      </g>
    </g>
    <g id="freepik--Character--inject-293" transform="translate(198.386 73.193)">
      <g id="freepik--character--inject-293-2" data-name="freepik--character--inject-293" transform="translate(0 0)">
        <path id="Path_1969" data-name="Path 1969" d="M313.966,121.845c1.22-.7,2.208-9.062,1.22-15.111s1.756-7.318,2.988-5.44a10.013,10.013,0,0,1,1.464,3.574,15.855,15.855,0,0,1,7.318,4.513c3.086,3.476,6.708,7.72,5.147,16.538-.3,1.708-2.037,3.988-2.891,6.464-1.342,3.866,16.648,34.5,16.648,51.506,0,16.4-10.44,14.367-20.734,8.977-11.843-6.2-30.272-25.808-30.272-25.808L286,135.14c12.05.878,13.416,2.756,20.807,11.953,8.281,10.391,16.856,21.539,16.856,21.539-3.11-12.2-6.232-29.442-11.27-33.687" transform="translate(-137.841 -61.533)" fill="#ffa8a7"/>
        <path id="Path_1970" data-name="Path 1970" d="M284.1,128.59c6.952.073,10.843.561,15.136,3.147s7.867,8.538,10.6,11.648,13.672,17.868,13.672,17.868l-3.391-15.294,15.087-4.171s4.549,10.147,7.5,17.5,4.879,15.221,3.586,23.064-5.476,9.867-12.2,8.269-13.953-5.427-30.6-20.539S285.2,153.19,285.2,153.19Z" transform="translate(-138.258 -55.362)" fill="#455a64"/>
        <path id="Path_1971" data-name="Path 1971" d="M312.15,138.321l2.281,8.538a29.614,29.614,0,0,0,8.538-1.317c5.4-1.476,6.732-3.586,6.732-3.586l-3.33-7.7S319.748,138.748,312.15,138.321Z" transform="translate(-132.097 -54.117)" fill="#37474f"/>
        <path id="Path_1972" data-name="Path 1972" d="M316.869,155.985c1.854,8.952,6.415,15.66,9.208,18.051,0,0-10.574-5.269-11.757-21.466Z" transform="translate(-131.62 -50.095)" fill="#37474f"/>
        <path id="Path_1973" data-name="Path 1973" d="M330.866,107.408,301.8,91.553A1.732,1.732,0,0,0,300,91.479c-.427.256-2.147,1.22-2.622,1.488a1.805,1.805,0,0,0-.89,1.488l-1.9,17.221a4.256,4.256,0,0,0,2.025,3.9l29.064,15.855a1.842,1.842,0,0,0,1.708.134c.476-.244,2.342-1.305,2.817-1.61a1.842,1.842,0,0,0,.793-1.427c.476-4.33,1.427-12.928,1.9-17.27a4.22,4.22,0,0,0-2.025-3.854Z" transform="translate(-135.958 -63.561)" fill="#005bea"/>
        <path id="Path_1974" data-name="Path 1974" d="M327.68,108.937,298.616,93.082a1.72,1.72,0,0,0-1.866,0l.146-.1c.476-.244,2.183-1.22,2.622-1.476a1.756,1.756,0,0,1,1.805.073l29.064,15.855a3.732,3.732,0,0,1,1.037.927l-2.659,1.476a1.225,1.225,0,0,1,.1.134A3.744,3.744,0,0,0,327.68,108.937Z" transform="translate(-135.479 -63.554)" opacity="0.35"/>
        <path id="Path_1975" data-name="Path 1975" d="M296.607,115.351l29.064,15.855a1.647,1.647,0,0,0,2.61-1.366c.476-4.33,1.427-12.928,1.9-17.258a4.22,4.22,0,0,0-2.025-3.891L299.095,92.836a1.647,1.647,0,0,0-2.61,1.366l-1.9,17.2A4.257,4.257,0,0,0,296.607,115.351Z" transform="translate(-135.958 -63.284)" opacity="0.45"/>
        <path id="Path_1976" data-name="Path 1976" d="M321.889,114.483a1.939,1.939,0,0,1,.842,1.72.7.7,0,0,1-1.1.573,1.866,1.866,0,0,1-.842-1.708.7.7,0,0,1,1.1-.585Z" transform="translate(-130.2 -58.489)" opacity="0.35"/>
        <path id="Path_1977" data-name="Path 1977" d="M298.169,113.542a2.134,2.134,0,0,1-.939-1.805l2.037-17.2L325.282,108.8a2.183,2.183,0,0,1,.939,1.805l-2.037,17.173Z" transform="translate(-135.374 -62.841)" fill="#005bea"/>
        <path id="Path_1978" data-name="Path 1978" d="M298.169,113.542a2.134,2.134,0,0,1-.939-1.805l2.037-17.2L325.282,108.8a2.183,2.183,0,0,1,.939,1.805l-2.037,17.173Z" transform="translate(-135.374 -62.841)" fill="#fff" opacity="0.7"/>
        <path id="Path_1979" data-name="Path 1979" d="M324.257,127.068l-.085.72-26-14.245a2.22,2.22,0,0,1-.939-1.805l2.037-17.2.634.354-1.951,16.477a2.171,2.171,0,0,0,.939,1.817Z" transform="translate(-135.374 -62.841)" fill="#005bea"/>
        <path id="Path_1980" data-name="Path 1980" d="M327.015,108.233c-.476,4.33-1.439,12.94-1.915,17.27a1.829,1.829,0,0,1-.793,1.427c-.476.3-2.342,1.366-2.817,1.61a.2.2,0,0,1-.11,0A1.707,1.707,0,0,0,322.392,127c.476-4.33,1.427-12.928,1.9-17.258a4.256,4.256,0,0,0-.964-3l2.7-1.525A4.232,4.232,0,0,1,327.015,108.233Z" transform="translate(-130.069 -60.495)" opacity="0.55"/>
        <path id="Path_1981" data-name="Path 1981" d="M309.947,119.42c-.939-.866-1.159-3.561-2.7-5.976-1.781-2.781-6.208-2.293-4.952,0s1.634,4.244,2.366,9.855,1.988,6.1,4.244,9.269l1.525-12.818Z" transform="translate(-134.309 -59.108)" fill="#ffa8a7"/>
        <path id="Path_1982" data-name="Path 1982" d="M318.955,94.572a2.988,2.988,0,0,1-1.024-2.439l.171-3.842c0-.951.573-1.415,1.22-1.037a3,3,0,0,1,1.012,2.439l-.171,3.842C320.078,94.5,319.553,94.962,318.955,94.572Z" transform="translate(-130.828 -64.47)" fill="#e0e0e0"/>
        <path id="Path_1983" data-name="Path 1983" d="M312.374,93.189a2.5,2.5,0,0,1-.9-1.476L310.4,87.6c-.256-1.024,0-1.964.512-2.11s1.22.573,1.464,1.586l1.073,4.11c.256,1.024,0,1.976-.512,2.11a.732.732,0,0,1-.561-.11Z" transform="translate(-132.504 -64.832)" fill="#e0e0e0"/>
        <path id="Path_1984" data-name="Path 1984" d="M331.056,136.027a1.952,1.952,0,0,1-.537-.585l-2.012-3.269a2.939,2.939,0,0,1-.3-2.622c.341-.634,1.025-.488,1.525.329l2.025,3.269a2.976,2.976,0,0,1,.293,2.622.634.634,0,0,1-.988.256Z" transform="translate(-128.61 -55.237)" fill="#e0e0e0"/>
        <path id="Path_1985" data-name="Path 1985" d="M333.733,124.93l-2.439-1.549a2.976,2.976,0,0,1-1.012-2.439c0-.964.561-1.427,1.22-1.037l2.439,1.549a2.988,2.988,0,0,1,1.024,2.439C334.818,124.93,334.33,125.332,333.733,124.93Z" transform="translate(-128.116 -57.3)" fill="#e0e0e0"/>
        <path id="Path_1986" data-name="Path 1986" d="M329.994,111.852a2.439,2.439,0,0,1-.915-1.476c-.268-1.025,0-1.976.512-2.11l2.183-.573c.549-.146,1.22.561,1.476,1.586s0,1.964-.512,2.11l-2.2.573a.7.7,0,0,1-.549-.11Z" transform="translate(-128.402 -59.956)" fill="#e0e0e0"/>
        <path id="Path_1987" data-name="Path 1987" d="M325.461,101.4a1.952,1.952,0,0,1-.537-.585,3,3,0,0,1-.293-2.61l1.378-2.561c.329-.634,1.012-.488,1.525.329a2.976,2.976,0,0,1,.293,2.622l-1.366,2.549a.646.646,0,0,1-1,.256Z" transform="translate(-129.393 -62.686)" fill="#e0e0e0"/>
        <path id="Path_1988" data-name="Path 1988" d="M251.871,405.531c-.451,1.793-1.4,6.867-10.843,6.867s-14.843-3.866-16.7-8.659-.793-8.342-.622-12.526-2.927-6.842-3.659-9.1c-1.012-3.33,1.768-7.9,1.768-7.9Z" transform="translate(-152.375 -1.412)" fill="#263238"/>
        <path id="Path_1989" data-name="Path 1989" d="M328.044,379.438a5.732,5.732,0,0,1-.439,4.549c-.683.927-7.013,5.513-14.819,4.561a36.1,36.1,0,0,1-16.075-5.623c-4.561-2.683-7.708-3.073-12.355-3.061s-7.818-.866-8.208-2.025c-.671-2.049-.72-3.366.268-3.33Z" transform="translate(-140.112 -1.346)" fill="#263238"/>
        <path id="Path_1990" data-name="Path 1990" d="M224.07,371.971c0,8.6,16.453,10.16,16.051,3.244l5.745-20.1-18.612-1.976Z" transform="translate(-151.443 -6.04)" fill="#ffa8a7"/>
        <path id="Path_1991" data-name="Path 1991" d="M251.648,402.925c-.61-1.634-2.7-4.159-3.561-5.671a46.213,46.213,0,0,1-6.2-25.881c0-.5.1-1.476-.354-1.842s-1.012,0-1.573.146h0a10.161,10.161,0,0,1-2.976.354c-3.33-.085-6.842-1.378-7.684-1.378-.646,0-1.11,1.951-1.354,4.086-1.061-.89-1.22-2.439-2.183-3.4-.5-.537-.744-.585-.622-1.354.073-.488.159-.927.232-1.427-.8-.354-1.951,2.769-2.988,5.147-1.22,2.732-2.634,5.818-1.9,8.867a25.175,25.175,0,0,0,1.988,4.879,18.612,18.612,0,0,1,2.244,8.659c-.061,1.317-.341,2.622-.329,3.94a11.562,11.562,0,0,0,6.781,10.513c5.4,2.537,13.916,3.427,19.441.159C252.477,407.547,252.282,404.559,251.648,402.925Z" transform="translate(-152.275 -3.1)" fill="#263238"/>
        <path id="Path_1992" data-name="Path 1992" d="M279.538,367.919c4.659,3.342,8.952,3.757,14.428,1.012l2.756-29.272H276.55Z" transform="translate(-139.916 -9.001)" fill="#ffa8a7"/>
        <path id="Path_1993" data-name="Path 1993" d="M246.831,208.862c-3.659,34.15-8.659,101.865-8.659,101.865s-5.586,10.269-7.757,26.722c-2.7,20.332-5.854,58.994-5.854,58.994s9.5,6.171,18.746,3.183c0,0,21.149-60.982,25.369-81.033,3.659-17.465,10.208-53.335,10.208-53.335l8.147,48.786a76.607,76.607,0,0,0-2.634,23.783c.4,9.4,4.1,45.334,4.1,45.334,3.061,2.9,14.831,3.281,18.758.781,0,0,5.647-59.824,6.464-69.7,1.085-12.989,3.1-106.109,3.1-106.109Z" transform="translate(-151.336 -37.891)" fill="#263238"/>
        <path id="Path_1994" data-name="Path 1994" d="M269.1,260.247l4.549-20.978s10.172-2.33,17.441-8.159c0,0-2.659,6.7-13.806,11.831l-4.647,19.624,4,43.115Z" transform="translate(-141.553 -32.844)"/>
        <path id="Path_1995" data-name="Path 1995" d="M324.1,377.149c-7.708-2.878-15.209-6.245-19.953-9.586a40.05,40.05,0,0,1-3.208-2.439c-1.964-1.964-3.159-6.257-4-6.745-.281-.159-.671,0-1.22.378a1.39,1.39,0,0,0-.9-.537l-.11,1.22a12.733,12.733,0,0,1-5.269,1.927c-4.732.6-4.879-.342-5.074,1.22a10.562,10.562,0,0,0,0,1.707c-2.525-.317-4.525-1.049-4.671-2l-.39-3.122c-2.5-.122-2.5,4.342-3.135,9.391-.512,4.074-1.378,7.05-.146,10,3.891,3.147,10.513,2.1,14.331,2.586,5.4.683,8.05,4.561,15.6,6.867,12.2,3.659,19.588-1.378,21.759-3.549C329.1,381.759,328.31,378.686,324.1,377.149Z" transform="translate(-140.17 -4.924)" fill="#263238"/>
        <path id="Path_1996" data-name="Path 1996" d="M273.246,129.84c-9.525,1.451-20.429,2.208-27.113,3.122-7.318.988-9.9,6.952-9.9,19.514,0,18.38,9.4,49.03,9.4,49.03l-2.561,31.345c8.538,9.135,49.518,13.136,71.362-.268,0,0,.585-62.336,0-72.85-1.037-18.49-11.733-30.32-18.551-30.845C295.883,128.827,289.614,127.351,273.246,129.84Z" transform="translate(-148.772 -55.404)" fill="#37474f"/>
        <path id="Path_1997" data-name="Path 1997" d="M277.5,146.862c-.159,4.305-2.037,35.089-2.732,40s6.879,15.343,8.538,15.221,5.135-8.623,5.879-14.087c-.427-6.757-4.379-34.406-7.489-41.651Z" transform="translate(-140.318 -51.461)" fill="#005bea"/>
        <path id="Path_1998" data-name="Path 1998" d="M281.529,146.935c-.073-.207-.159-.4-.232-.585l-4.244.512a14.662,14.662,0,0,1-.073,1.61h0a8.111,8.111,0,0,0,4.549-1.537Z" transform="translate(-139.822 -51.461)" opacity="0.15"/>
        <path id="Path_1999" data-name="Path 1999" d="M275.528,139.273a16.709,16.709,0,0,0,6.379-.573,24.14,24.14,0,0,1,1.646,4.671,12.807,12.807,0,0,1-1.61,4.659,5.123,5.123,0,0,1-4.244.512,16.393,16.393,0,0,1-3.659-3.476,29.27,29.27,0,0,1,1.488-5.793Z" transform="translate(-140.468 -53.141)" fill="#005bea"/>
        <path id="Path_2000" data-name="Path 2000" d="M260.457,82.74s-5.22.72-7.135,4.659c-1.671,3.427-1.073,11.7,1.146,20.734s4.318,14.441,5.623,16.941a6.9,6.9,0,0,0,3.988,3.2l-.256-10.7-.39-7.452s4.781-6.537,5.318-11.892c.671-6.879-.781-9.757-.781-9.757Z" transform="translate(-145.229 -65.433)" fill="#263238"/>
        <path id="Path_2001" data-name="Path 2001" d="M259.318,84.885,252,81.519a4.318,4.318,0,0,1,5.574-2.293,4.171,4.171,0,0,1,1.744,5.659Z" transform="translate(-145.309 -66.273)" fill="#263238"/>
        <path id="Path_2002" data-name="Path 2002" d="M265.94,94.829a19.978,19.978,0,1,0,19.9-20.039A19.978,19.978,0,0,0,265.94,94.829Z" transform="translate(-142.247 -67.179)" fill="#263238"/>
        <path id="Path_2003" data-name="Path 2003" d="M264.269,109c-1.793,1.561-3.256-2.439-4.769-4.037s-6.44-3.659-8.879,1.464,2.256,12.453,5.94,14.16c5.4,2.439,7.818-2.939,7.818-2.939l.573,22.49c5.684,10.245,17.331,6.842,19.112,11.526,1.061-4.159,6.537-6.1,2.622-10.648V133.7s6.1.9,9,.439c4.879-.781,7.476-4.476,8.952-9.757,2.366-8.538,3.317-22.9,0-39.492-5.488-4.257-24.552-3.549-36.089,3.757C269.367,103.321,266.074,107.455,264.269,109Z" transform="translate(-145.759 -65.536)" fill="#ffa8a7"/>
        <path id="Path_2004" data-name="Path 2004" d="M306.709,95.349l-1.086-.1c-3.5-.244-8.086-.183-10.843.768-3.452,1.22-4.671,2.439-6.586,2.537s-3.342-1.085-7.037-2.012c-2.939-.744-7.83-.439-11.574.085l-1.159.183a1.939,1.939,0,0,0-1.293,2,4.318,4.318,0,0,0,1.122,2.244,2.927,2.927,0,0,1,.378.9c.4,1.561.646,4.586,1.427,6.232a7.731,7.731,0,0,0,1.476,2.208,7.446,7.446,0,0,0,.756.634l.439.281a6.4,6.4,0,0,0,1.305.585l.22.061.341.1.366.073a8,8,0,0,0,1.146.134h1.11c4.757-.159,6.732-2.549,7.916-4.976s.866-5.793,3.061-5.866h.4c1.622.317,1.427,3.415,2.439,5.6A8.538,8.538,0,0,0,292.6,109.4a3.368,3.368,0,0,0,.366.354l.2.171.207.171.2.134.207.134.159.1.11.073a6.537,6.537,0,0,0,1.89.7h.183a9.878,9.878,0,0,0,2.317.146,6.964,6.964,0,0,0,6.708-4.622,43.1,43.1,0,0,0,1.354-6.342,1.94,1.94,0,0,1,.4-.842,4.61,4.61,0,0,0,1-2.354A1.776,1.776,0,0,0,306.709,95.349ZM283.9,105.107a7.477,7.477,0,0,1-1.647,3.378h0a6.781,6.781,0,0,1-5.171,2.1,5.562,5.562,0,0,1-4.988-2.232l-.159-.232-.146-.232a1.975,1.975,0,0,1-.122-.22l-.11-.2-.073-.159a.742.742,0,0,1-.061-.146l-.11-.232h0c-.1-.232-.171-.463-.244-.683h0l-.122-.415c-.061-.232-.11-.463-.159-.659a.634.634,0,0,1,0-.134v-.122c-.366-1.647-.8-4.879,0-5.671s2.976-1.622,6.513-1.4h.378a12.063,12.063,0,0,1,1.622.22l.622.134a11.513,11.513,0,0,1,1.586.463l.476.183.524.232h.11l.183.11a3.025,3.025,0,0,1,1.061.829c.634,1.049.427,3.22.037,5.1Zm20.649-1.5c-.281,1.317-.866,4.147-3.342,5.464a6.1,6.1,0,0,1-2.634.683,5.525,5.525,0,0,1-5.293-2.293h0a1.012,1.012,0,0,1-.1-.146l-.11-.171v-.1l-.146-.256a2.3,2.3,0,0,1-.134-.3l-.073-.146a.781.781,0,0,1,0-.085.367.367,0,0,1,0-.122v-.1a9.01,9.01,0,0,1-.341-1.22c-.366-1.842-.561-3.988.1-5.037s3.281-2.281,5.793-2.683c.585-.1,1.122-.159,1.634-.2h1.671a7.549,7.549,0,0,1,.805.11h.524l.232.073.427.329h.073a3.221,3.221,0,0,1,.866.537c.817.683.39,4,.049,5.671Z" transform="translate(-141.987 -62.711)" fill="#263238"/>
        <path id="Path_2005" data-name="Path 2005" d="M305.659,76.112a.915.915,0,0,0-.72-.561,1.22,1.22,0,0,0-.671.293,31.481,31.481,0,0,1-4.342,3.013A15.856,15.856,0,0,0,300,72.892c-.22-1.22-.561-4.013-2.049-4.318-.9-.171-1.671.573-2.342,1.22-6,5.61-13.831,3.013-21.063,3.244-6.1.2-13.343,2.647-16.075,8.538-1.22,2.683-1.464,5.513,1.012,7.318a16.953,16.953,0,0,0,7.318,2.744c12.05,2.1,29.272,7.05,38.212-4.171a8.928,8.928,0,0,0,1.866-5.915,12.2,12.2,0,0,0-1.22-5.379Z" transform="translate(-144.084 -68.55)" fill="#263238"/>
        <path id="Path_2006" data-name="Path 2006" d="M283.622,126.126s-10.977-2.171-14.794-4.2a12.587,12.587,0,0,1-5.318-5.22,17.405,17.405,0,0,0,3.025,6.171c2.817,3.574,17.075,6.171,17.075,6.171Z" transform="translate(-142.781 -57.971)" fill="#f28f8f"/>
        <path id="Path_2007" data-name="Path 2007" d="M278.71,101.881a2.2,2.2,0,1,1-2.2-2.281,2.232,2.232,0,0,1,2.2,2.281Z" transform="translate(-140.406 -61.73)" fill="#263238"/>
        <path id="Path_2008" data-name="Path 2008" d="M278.15,95.052l-4.879,2.2a2.817,2.817,0,0,1,1.39-3.659,2.622,2.622,0,0,1,3.488,1.464Z" transform="translate(-140.687 -63.097)" fill="#263238"/>
        <path id="Path_2009" data-name="Path 2009" d="M278.631,113.48l7,2.61a3.659,3.659,0,0,1-4.744,2.33,3.9,3.9,0,0,1-2.256-4.94Z" transform="translate(-139.509 -58.681)" fill="#b16668"/>
        <path id="Path_2010" data-name="Path 2010" d="M280.873,118.09a3.537,3.537,0,0,0,1.939.146,3.4,3.4,0,0,0-3.391-3.256,3.11,3.11,0,0,0-.951.159,3.793,3.793,0,0,0,2.4,2.952Z" transform="translate(-139.495 -58.351)" fill="#f28f8f"/>
        <path id="Path_2011" data-name="Path 2011" d="M295.264,96.569,290.19,94.7a2.586,2.586,0,0,1,3.427-1.671,2.842,2.842,0,0,1,1.647,3.537Z" transform="translate(-136.92 -63.212)" fill="#263238"/>
        <path id="Path_2012" data-name="Path 2012" d="M293.58,101.281A2.2,2.2,0,1,1,291.4,99,2.232,2.232,0,0,1,293.58,101.281Z" transform="translate(-137.14 -61.861)" fill="#263238"/>
        <path id="Path_2013" data-name="Path 2013" d="M283.88,100.467l.72,12.526,6.891-2.439-6.867-10.294a1.659,1.659,0,0,0-.744.207Z" transform="translate(-138.306 -61.585)" fill="#f28f8f"/>
        <path id="Path_2014" data-name="Path 2014" d="M271.293,96.55l-16.063,3.659a7,7,0,0,1,3.659,2.439l12.379-2.342Z" transform="translate(-144.599 -62.399)" fill="#263238"/>
        <path id="Path_2015" data-name="Path 2015" d="M263.126,124.55c-1.39.11-2.012.317-3.147,2.586-1.293,2.573-2.439,4.879-2.439,4.879a15.539,15.539,0,0,0,4.708,10c4.659,4.72,14.99,7.928,14.99,7.928s.854-4.781,1.512-6.745c1.451-4.293,3.659-.878,3.659-.878a5.013,5.013,0,0,0-1.22-2.549c-.927-.817-6.842-1.329-11.55-4.293a17.185,17.185,0,0,1-6.476-8.208Z" transform="translate(-144.092 -56.249)" fill="#455a64"/>
        <path id="Path_2016" data-name="Path 2016" d="M277.925,142.05a4.879,4.879,0,0,1,1.22-3.793,9.22,9.22,0,0,0,1.329-5.745c0-1.988,0-6.452,0-6.452,1.61.207,2.793.488,3.793,2.976s2.83,7.574,2,12.55-2.964,6.623-2.964,6.623-1.22-4.208-2-6.1S279.084,139.61,277.925,142.05Z" transform="translate(-139.621 -55.918)" fill="#455a64"/>
        <path id="Path_2017" data-name="Path 2017" d="M262.872,132a21.063,21.063,0,0,0-19.039,14.867c-2.769,8.05-9.586,28.637-13.721,41.358-7.232-3.488-24.759-11.965-28.247-15.05a64.641,64.641,0,0,1-8.928-9.574,43.066,43.066,0,0,1-4.269-6.44,41.579,41.579,0,0,1-3.439-8.806c-.927-2.7-4.391.146-4.342,4.964a24.54,24.54,0,0,0,1.537,7.708c-1.744-.171-6.806-.683-7.586-.744-2.72-.22-11.087-.073-10.257,4.354.2.988.866,1.9.768,2.915a6.342,6.342,0,0,1-.4,1.378,5.074,5.074,0,0,0,1.22,5.037,4.061,4.061,0,0,1,1.22,2.061,6.318,6.318,0,0,0,.793,2.439,10.04,10.04,0,0,0,1.573,1.378,8.074,8.074,0,0,1,1.549,2.22,9.756,9.756,0,0,0,1.488,2.281c1.488,1.549,3.891,1.146,5.83,1.122,2.6,0,5.879-.646,8.684-.366,5.135,1.22,23.868,17.734,39.907,26.454,5.488,2.988,9.977,4.476,13.416,2.634h0c2.939-1.159,4.379-4.379,6.257-8.977,4.257-10.782,15.27-39.529,15.27-39.529C266.336,153.783,266.006,137.842,262.872,132Z" transform="translate(-164.523 -54.613)" fill="#ffa8a7"/>
        <path id="Path_2018" data-name="Path 2018" d="M177.757,157.05c2.586,0,3.757,1.293,4.818,4.683.622,2.012,2.439,5.513,5.11,6.257a5.367,5.367,0,0,1-3.232-.281c-1.378-.707-1.7-.732-2.061.061a4.061,4.061,0,0,1-1.22,1.366,2.72,2.72,0,0,1,1.281,3c-.476,2.086-5.135,3.659-9.623,2.976,0,0,6.867-.134,7.647-2.6s-3.342-3.842-6.025-3.659c0,0,6.489-.573,6.745-2.854s-2.72-2.939-6.562-2.659c0,0,5.269-.768,5.562-2.732C180.538,158.209,178.636,157.5,177.757,157.05Z" transform="translate(-162.698 -49.111)" fill="#f28f8f"/>
        <path id="Path_2019" data-name="Path 2019" d="M258.658,131.8c-5.257-.11-10.038.744-14.221,3.781s-6.1,4.793-11.6,21.551-10,30.259-10,30.259l-20.051-9.342a40.248,40.248,0,0,1-8.2,16.112s13.221,10.44,20.014,14.721,14.489,8.135,18.075,6.94,4.879-2.037,9.684-14.233,14.709-37.407,14.709-37.407S262.841,146.486,258.658,131.8Z" transform="translate(-157.919 -54.659)" fill="#455a64"/>
        <path id="Path_2020" data-name="Path 2020" d="M209.211,172.793,199,167.39s-2.854,9.757-8.623,15.221l10.721,8.062S209.431,183.672,209.211,172.793Z" transform="translate(-158.843 -46.84)" fill="#37474f"/>
        <path id="Path_2021" data-name="Path 2021" d="M217.75,177.984c7.72,4.318,10.648,9.843,10.648,9.843s-1.11-7.794-9.525-13.2Z" transform="translate(-152.832 -45.249)" fill="#37474f"/>
      </g>
    </g>
  </g>
</svg>
