<?xml version="1.0" encoding="utf-8"?>
<!-- Generator: Adobe Illustrator 16.0.0, SVG Export Plug-In . SVG Version: 6.00 Build 0)  -->
<!DOCTYPE svg PUBLIC "-//W3C//DTD SVG 1.1//EN" "http://www.w3.org/Graphics/SVG/1.1/DTD/svg11.dtd">
<svg version="1.1" id="Layer_1" xmlns="http://www.w3.org/2000/svg" xmlns:xlink="http://www.w3.org/1999/xlink" x="0px" y="0px"
	 width="479.596px" height="331px" viewBox="66.202 231 479.596 331" enable-background="new 66.202 231 479.596 331"
	 xml:space="preserve">
<g id="freepik--background-simple--inject-165">
	<path fill="#F0F0F0" d="M117.218,274.065c76.092-46.993,204,104.856,259.667,102.588c55.668-2.269,129.45,37.348,105.101,98.451
		c-27.034,67.85-216.24,39.813-295.163,3.011S45.443,318.39,117.218,274.065z"/>
</g>
<g id="freepik--Plant--inject-165">
	<path fill="#4E75FF" d="M401.146,515.512c-1.979,0.157-3.81,1.114-5.067,2.651c-1.237,1.529-2.108,3.321-2.546,5.239
		c-0.946,3.672-0.31,7.988,0.768,11.628c3.957-1.453,6.364-5.712,7.449-7.932C403.471,523.565,404.435,516.14,401.146,515.512"/>
	<path fill="#4E75FF" d="M388.628,539.518c1.198-1.888,1.292-4.273,0.245-6.25c-1.076-1.938-2.884-3.363-5.019-3.958
		c-0.955-0.383-2.03-0.323-2.938,0.163c-0.761,0.595-1.144,1.551-1.004,2.506c0.159,0.938,0.562,1.819,1.167,2.554
		C383.03,537.127,385.396,539.281,388.628,539.518"/>
	<path fill="#455A64" d="M388.596,552.117c0.103-0.247,0.169-0.509,0.195-0.775c0.099-0.498,0.229-1.232,0.359-2.138
		c0.381-2.366,0.444-4.773,0.188-7.156c-0.281-2.41-1.209-4.699-2.685-6.626c-0.456-0.572-0.982-1.085-1.566-1.526
		c-0.202-0.174-0.431-0.314-0.678-0.416c0.722,0.656,1.391,1.368,1.999,2.13c1.372,1.931,2.233,4.176,2.506,6.528
		c0.246,2.351,0.224,4.721-0.065,7.066C388.709,550.17,388.624,551.142,388.596,552.117z"/>
	<path fill="#455A64" d="M399.913,521.101c-0.224,0.376-0.418,0.769-0.579,1.176c-0.359,0.767-0.816,1.885-1.437,3.264
		c-1.183,2.774-2.758,6.643-4.39,10.959s-3.011,8.258-3.958,11.122c-0.473,1.436-0.815,2.603-1.093,3.411
		c-0.146,0.412-0.261,0.835-0.343,1.265c0.204-0.389,0.371-0.796,0.497-1.216c0.318-0.865,0.727-1.991,1.225-3.362
		c1.02-2.84,2.448-6.756,4.08-11.073c1.632-4.316,3.158-8.16,4.268-10.991l1.306-3.329
		C399.67,521.932,399.812,521.521,399.913,521.101z"/>
	<path fill="#4E75FF" d="M392.749,543.125c2.649-3.879,7.005-6.245,11.701-6.356c1.175,0,2.57,0.269,3.036,1.346
		c0.465,1.077-0.303,2.317-1.118,3.134c-3.685,3.423-9.066,4.295-13.644,2.211"/>
	<path fill="#455A64" d="M402.435,539.657c-0.254-0.039-0.513-0.039-0.767,0c-0.299,0.016-0.597,0.054-0.89,0.114
		c-0.39,0.059-0.776,0.137-1.158,0.236c-1.005,0.254-1.981,0.609-2.913,1.061c-1.135,0.563-2.207,1.245-3.199,2.032
		c-0.975,0.81-1.861,1.72-2.644,2.717c-0.63,0.822-1.177,1.705-1.632,2.636c-0.181,0.352-0.339,0.714-0.474,1.085
		c-0.117,0.266-0.215,0.538-0.294,0.816c-0.092,0.237-0.146,0.488-0.163,0.742c0.082,0,0.375-1.02,1.199-2.546
		c0.47-0.886,1.017-1.729,1.632-2.521c1.552-1.937,3.499-3.521,5.713-4.643c0.899-0.456,1.839-0.83,2.807-1.118
		C401.357,539.82,402.443,539.738,402.435,539.657z"/>
</g>
<g id="freepik--Device--inject-165">
	<path fill="#263238" d="M354.911,473.193l-81.502-0.375c-9.802-0.045-17.711-8.027-17.667-17.829v-0.001l0.816-204.326
		c0.045-9.808,8.03-17.723,17.838-17.683l81.502,0.375c9.804,0.045,17.715,8.026,17.675,17.83l-0.824,204.335
		c-0.041,9.802-8.02,17.715-17.821,17.674C354.922,473.193,354.917,473.193,354.911,473.193z"/>
	<path fill="#FFFFFF" d="M355.4,240.52l-15.806-0.074c-2.165,0.041-3.888,1.826-3.852,3.99v2.864
		c0.041,2.167-1.683,3.958-3.851,3.999c0,0,0,0-0.001,0l-30.788-0.147c-2.166-0.062-3.874-1.865-3.819-4.031v-2.864
		c0.05-2.165-1.655-3.965-3.819-4.031h-5.557l-13.848-0.082c-6.868-0.032-12.461,5.51-12.493,12.378c0,0.003,0,0.006,0,0.008
		l-0.816,199.439c-0.032,6.863,5.507,12.453,12.37,12.484c0,0,0,0,0,0l81.338,0.376c6.864,0.035,12.457-5.499,12.493-12.362
		c0-0.006,0-0.012,0-0.017l0.816-199.439c0.036-6.863-5.499-12.457-12.362-12.493C355.406,240.52,355.403,240.52,355.4,240.52z"/>
	
		<rect x="305.485" y="264.939" transform="matrix(-1 -0.0045 0.0045 -1 630.744 535.1608)" fill="#455A64" width="20.988" height="3.852"/>
	<path fill="#455A64" d="M282.663,290.842c1.156-0.514,1.896-1.665,1.885-2.93c0.122-1.64-1.109-3.069-2.75-3.19
		c-1.64-0.122-3.069,1.109-3.19,2.75c-0.011,0.146-0.011,0.294,0,0.44c-0.02,1.276,0.726,2.439,1.893,2.954
		c-1.915,0.229-3.501,1.592-4.015,3.452c1.054,1.2,2.5,1.987,4.08,2.219h1.828c1.621-0.212,3.108-1.007,4.186-2.236
		C286.102,292.458,284.552,291.088,282.663,290.842z"/>
	<path fill="#455A64" d="M281.52,296.587c0-0.049,0.596,0,1.632-0.294c1.447-0.39,2.722-1.251,3.623-2.448
		c1.335-1.789,1.676-4.131,0.906-6.226c-0.217-0.586-0.519-1.136-0.897-1.632c-0.389-0.531-0.86-0.996-1.396-1.379
		c-2.299-1.688-5.428-1.688-7.728,0c-0.533,0.385-1.004,0.85-1.395,1.379c-0.378,0.497-0.681,1.046-0.898,1.632
		c-0.774,2.096-0.43,4.441,0.914,6.226c0.899,1.196,2.171,2.058,3.615,2.448c1.028,0.27,1.632,0.245,1.632,0.294
		c-0.144,0.018-0.289,0.018-0.433,0c-0.406-0.001-0.812-0.048-1.208-0.139c-1.517-0.348-2.864-1.213-3.811-2.448
		c-0.664-0.847-1.117-1.84-1.322-2.897c-0.246-1.209-0.165-2.463,0.237-3.631c0.469-1.31,1.322-2.447,2.448-3.264
		c2.441-1.817,5.785-1.817,8.225,0c0.564,0.412,1.06,0.91,1.469,1.477c0.396,0.544,0.704,1.147,0.914,1.787
		c0.42,1.166,0.516,2.423,0.277,3.639c-0.508,2.638-2.518,4.73-5.132,5.345c-0.404,0.096-0.817,0.146-1.232,0.147
		C281.813,296.616,281.666,296.611,281.52,296.587z"/>
	<path fill="#E0E0E0" d="M360.501,302.674c0,0,0.212,0,0.604-0.082c0.587-0.118,1.127-0.401,1.559-0.816
		c0.7-0.68,1.06-1.638,0.979-2.611c0-1.159,0-2.448,0-3.99c0-3.011,0-6.691,0-10.958c0-1.069,0-2.171,0-3.313
		c0.061-1.159-0.532-2.255-1.534-2.84c-1.004-0.636-2.317-0.359-3.582-0.416h-3.934l-84.048,0.065
		c-0.972,0.003-1.883,0.474-2.448,1.265c-0.277,0.39-0.457,0.84-0.522,1.313c-0.057,0.457,0,0.996,0,1.494v6.03
		c0,3.998,0,7.929,0,11.791c0.034,0.918,0.492,1.768,1.24,2.301c0.361,0.262,0.776,0.438,1.216,0.514
		c0.463,0.053,0.929,0.072,1.395,0.058h16.557l37.772,0.041l25.468,0.073l6.92,0.041h1.803h0.612c0,0-0.212,0-0.612,0h-1.803h-6.92
		l-25.468,0.065l-37.772,0.049h-16.613c-0.488,0.021-0.977,0.002-1.461-0.057c-0.505-0.082-0.983-0.283-1.396-0.587
		c-0.845-0.608-1.365-1.571-1.412-2.611c0-3.874,0-7.812,0-11.816v-5.916c0-0.514,0-0.995,0.041-1.55
		c0.07-0.542,0.274-1.059,0.596-1.501c0.64-0.907,1.681-1.445,2.791-1.444l84.048,0.065h5.826c1.855-0.066,3.413,1.385,3.479,3.241
		c0.003,0.1,0.003,0.201-0.003,0.301c0,1.143,0,2.244,0,3.313c0,4.268,0,7.948-0.041,10.959c0,1.501,0,2.832,0,3.99
		c0.069,1.005-0.317,1.987-1.053,2.676c-0.45,0.429-1.019,0.713-1.632,0.816C360.939,302.67,360.72,302.687,360.501,302.674z"/>
	<rect x="294.56" y="284.037" fill="#455A64" width="23.737" height="1.779"/>
	<rect x="294.56" y="294.098" fill="#455A64" width="41.583" height="1.779"/>
	<rect x="294.56" y="288.949" fill="#455A64" width="60.262" height="1.779"/>
	<path fill="#455A64" d="M282.663,354.662c1.156-0.514,1.896-1.665,1.885-2.93c0.122-1.64-1.109-3.069-2.75-3.19
		c-1.64-0.122-3.069,1.109-3.19,2.75c-0.011,0.146-0.011,0.294,0,0.44c-0.02,1.276,0.726,2.439,1.893,2.954
		c-1.915,0.229-3.501,1.593-4.015,3.452c1.054,1.2,2.5,1.987,4.08,2.219h1.828c1.621-0.212,3.108-1.007,4.186-2.236
		C286.102,356.277,284.552,354.907,282.663,354.662z"/>
	<path fill="#455A64" d="M281.52,360.406c0-0.049,0.596,0,1.632-0.294c1.447-0.39,2.722-1.251,3.623-2.448
		c1.335-1.789,1.676-4.131,0.906-6.226c-0.217-0.586-0.519-1.136-0.897-1.632c-0.389-0.531-0.86-0.996-1.396-1.379
		c-2.299-1.688-5.428-1.688-7.728,0c-0.533,0.385-1.004,0.85-1.395,1.379c-0.378,0.497-0.681,1.046-0.898,1.632
		c-0.763,2.093-0.413,4.432,0.931,6.209c0.898,1.196,2.171,2.058,3.615,2.448c1.028,0.269,1.632,0.245,1.632,0.293
		c-0.144,0.018-0.289,0.018-0.433,0c-0.417,0.002-0.834-0.047-1.24-0.147c-1.516-0.347-2.864-1.213-3.811-2.448
		c-0.665-0.847-1.118-1.84-1.322-2.897c-0.235-1.216-0.139-2.473,0.277-3.639c0.469-1.31,1.322-2.447,2.448-3.264
		c2.441-1.817,5.785-1.817,8.226,0c0.564,0.412,1.06,0.911,1.469,1.477c0.402,0.535,0.719,1.13,0.938,1.763
		c0.42,1.166,0.516,2.423,0.278,3.639c-0.508,2.638-2.518,4.73-5.133,5.345c-0.404,0.096-0.817,0.146-1.232,0.147
		C281.849,360.402,281.684,360.416,281.52,360.406z"/>
	<path fill="#E0E0E0" d="M360.501,366.494c0,0,0.212,0,0.604-0.082c0.587-0.118,1.127-0.401,1.559-0.816
		c0.7-0.68,1.06-1.638,0.979-2.611c0-1.158,0-2.488,0-3.99c0-3.011,0-6.691,0-10.958c0-1.069,0-2.171,0-3.313
		c0.061-1.159-0.532-2.255-1.534-2.84c-1.004-0.636-2.317-0.359-3.582-0.416h-3.934l-84.048,0.065
		c-0.972,0.003-1.883,0.474-2.448,1.265c-0.277,0.39-0.457,0.84-0.522,1.313c-0.057,0.457,0,0.996,0,1.494v6.03
		c0,3.998,0,7.929,0,11.791c0.034,0.918,0.492,1.768,1.24,2.301c0.361,0.262,0.776,0.438,1.216,0.514
		c0.463,0.053,0.929,0.072,1.395,0.058h16.557l37.772,0.041l25.468,0.074h6.92h1.803h0.612c0,0-0.212,0-0.612,0h-1.803l-6.92,0.041
		l-25.468,0.065l-37.772,0.049h-16.613c-0.488,0.021-0.977,0.002-1.461-0.057c-0.505-0.082-0.983-0.283-1.396-0.587
		c-0.845-0.608-1.365-1.571-1.412-2.611c0-3.873,0-7.812,0-11.815v-6.03c0-0.514,0-0.996,0.041-1.551
		c0.07-0.542,0.274-1.059,0.596-1.501c0.643-0.903,1.682-1.441,2.791-1.444l84.048,0.065h5.826c1.855-0.066,3.413,1.385,3.479,3.241
		c0.003,0.1,0.003,0.201-0.003,0.301c0,1.143,0,2.244,0,3.313c0,4.268,0,7.948-0.041,10.959c0,1.501,0,2.832,0,3.99
		c0.069,1.005-0.317,1.988-1.053,2.676c-0.45,0.429-1.019,0.713-1.632,0.816C360.944,366.415,360.725,366.469,360.501,366.494z"/>
	<rect x="294.086" y="347.856" fill="#455A64" width="23.738" height="1.779"/>
	<rect x="294.56" y="357.917" fill="#455A64" width="41.583" height="1.779"/>
	<rect x="294.56" y="352.769" fill="#455A64" width="60.262" height="1.779"/>
	<path fill="#455A64" d="M282.663,386.567c1.154-0.511,1.895-1.659,1.885-2.921c0.122-1.64-1.109-3.069-2.75-3.19
		c-1.64-0.122-3.069,1.109-3.19,2.75c-0.011,0.146-0.011,0.294,0,0.44c-0.022,1.276,0.724,2.441,1.893,2.954
		c-1.915,0.229-3.501,1.593-4.015,3.452c1.051,1.204,2.499,1.991,4.08,2.22h1.828c1.622-0.209,3.111-1.004,4.186-2.236
		C286.103,388.188,284.553,386.816,282.663,386.567z"/>
	<path fill="#455A64" d="M281.52,392.312c0-0.049,0.596,0,1.632-0.286c1.446-0.392,2.72-1.253,3.623-2.448
		c1.336-1.785,1.678-4.126,0.906-6.218c-0.215-0.586-0.518-1.137-0.897-1.632c-0.385-0.534-0.856-1-1.396-1.379
		c-2.299-1.688-5.428-1.688-7.728,0c-0.537,0.381-1.008,0.847-1.395,1.379c-0.38,0.496-0.683,1.046-0.898,1.632
		c-0.774,2.096-0.43,4.441,0.914,6.226c0.901,1.193,2.172,2.054,3.615,2.448c1.028,0.27,1.632,0.237,1.632,0.286
		c-0.144,0.021-0.289,0.021-0.433,0c-0.418-0.001-0.835-0.053-1.24-0.155c-1.518-0.346-2.866-1.212-3.811-2.448
		c-0.663-0.848-1.116-1.84-1.322-2.897c-0.234-1.219-0.139-2.478,0.277-3.647c0.47-1.309,1.323-2.447,2.448-3.264
		c2.442-1.812,5.783-1.812,8.225,0c1.111,0.822,1.95,1.959,2.407,3.264c0.79,2.21,0.399,4.671-1.036,6.528
		c-0.95,1.235-2.3,2.101-3.819,2.448c-0.403,0.102-0.817,0.154-1.232,0.155C281.837,392.332,281.677,392.334,281.52,392.312z"/>
	<path fill="#E0E0E0" d="M360.501,398.399c0,0,0.212,0,0.604-0.082c0.586-0.12,1.126-0.403,1.559-0.816
		c0.7-0.68,1.06-1.638,0.979-2.611c0-1.159,0-2.497,0-3.999c0-3.011,0-6.691,0-10.958c0-1.061,0-2.171,0-3.313
		c0.059-1.159-0.533-2.253-1.534-2.84c-1.004-0.636-2.317-0.359-3.582-0.416h-3.934l-84.048,0.065
		c-0.973-0.001-1.886,0.47-2.448,1.265c-0.277,0.387-0.456,0.834-0.522,1.306c-0.057,0.457,0,0.995,0,1.493v6.039
		c0,3.993,0,7.923,0,11.791c0.037,0.915,0.495,1.761,1.24,2.292c0.358,0.269,0.775,0.447,1.216,0.522
		c0.463,0.05,0.93,0.066,1.395,0.049h16.557l37.772,0.05l25.468,0.064h6.92h1.803h0.612h-0.612h-1.803h-6.92l-25.468,0.074
		l-37.772,0.04h-16.613c-0.488,0.013-0.976-0.006-1.461-0.057c-0.505-0.089-0.982-0.293-1.396-0.596
		c-0.848-0.606-1.369-1.569-1.412-2.611c0-3.868,0-7.804,0-11.808v-6.038c0-0.514,0-0.996,0.041-1.551
		c0.071-0.54,0.276-1.053,0.596-1.493c0.64-0.907,1.681-1.445,2.791-1.444l84.048,0.057h5.826c0.642-0.025,1.276,0.137,1.828,0.465
		c1.068,0.643,1.696,1.822,1.632,3.068c0,1.143,0,2.252,0,3.313c0,4.268,0,7.948-0.04,10.959c0,1.501,0,2.84,0,3.999
		c0.067,1.004-0.319,1.987-1.053,2.676c-0.456,0.422-1.021,0.705-1.633,0.816C360.938,398.279,360.724,398.356,360.501,398.399z"/>
	<rect x="294.56" y="379.77" fill="#455A64" width="23.737" height="1.779"/>
	<rect x="294.56" y="389.823" fill="#455A64" width="41.583" height="1.779"/>
	<rect x="294.56" y="384.674" fill="#455A64" width="60.262" height="1.779"/>
	<path fill="#455A64" d="M282.663,418.48c1.156-0.514,1.896-1.664,1.885-2.929c0.122-1.641-1.109-3.069-2.75-3.191
		c-1.64-0.121-3.069,1.11-3.19,2.75c-0.011,0.147-0.011,0.294,0,0.441c-0.02,1.275,0.726,2.438,1.893,2.953
		c-1.915,0.229-3.501,1.593-4.015,3.452c1.054,1.2,2.5,1.987,4.08,2.22h1.828c1.621-0.213,3.108-1.008,4.186-2.236
		C286.102,420.096,284.552,418.727,282.663,418.48z"/>
	<path fill="#455A64" d="M281.52,424.226c0-0.049,0.596,0,1.632-0.294c1.447-0.39,2.722-1.252,3.623-2.448
		c1.335-1.788,1.676-4.131,0.906-6.226c-0.217-0.586-0.519-1.136-0.897-1.632c-0.389-0.531-0.86-0.996-1.396-1.38
		c-2.299-1.688-5.428-1.688-7.728,0c-0.533,0.386-1.004,0.851-1.395,1.38c-0.378,0.496-0.681,1.046-0.898,1.632
		c-0.774,2.096-0.43,4.441,0.914,6.226c0.899,1.196,2.171,2.058,3.615,2.448c1.028,0.27,1.632,0.245,1.632,0.294
		c-0.144,0.018-0.289,0.018-0.433,0c-0.418,0.002-0.834-0.047-1.24-0.147c-1.517-0.347-2.864-1.213-3.811-2.447
		c-0.664-0.848-1.117-1.84-1.322-2.897c-0.234-1.216-0.139-2.473,0.277-3.639c0.47-1.31,1.323-2.447,2.448-3.265
		c2.444-1.806,5.781-1.806,8.225,0c0.564,0.412,1.06,0.911,1.469,1.478c0.402,0.535,0.719,1.13,0.938,1.763
		c0.42,1.165,0.516,2.423,0.277,3.639c-0.508,2.638-2.518,4.73-5.132,5.345c-0.403,0.101-0.817,0.149-1.232,0.147
		C281.837,424.23,281.678,424.238,281.52,424.226z"/>
	<path fill="#E0E0E0" d="M360.501,430.313c0,0,0.212,0,0.604-0.081c0.587-0.119,1.127-0.401,1.559-0.816
		c0.7-0.68,1.06-1.638,0.979-2.611c0-1.158,0-2.488,0-3.99c0-3.011,0-6.691,0-10.959c0-1.068,0-2.17,0-3.313
		c0.061-1.159-0.532-2.255-1.534-2.84c-1.004-0.637-2.317-0.359-3.582-0.416h-3.934l-84.048,0.057
		c-0.972,0.003-1.883,0.474-2.448,1.266c-0.277,0.389-0.457,0.84-0.522,1.313c-0.057,0.457,0,0.995,0,1.493v6.03
		c0,3.998,0,7.929,0,11.791c0.034,0.918,0.492,1.768,1.24,2.301c0.361,0.263,0.776,0.438,1.216,0.515
		c0.463,0.057,0.929,0.075,1.395,0.057h16.557l37.772,0.041l25.468,0.073l6.92,0.041h1.803h0.612c0,0-0.212,0-0.612,0h-1.803h-6.92
		l-25.468,0.065l-37.772,0.049h-16.613c-0.488,0.021-0.977,0.002-1.461-0.057c-0.505-0.082-0.983-0.284-1.396-0.588
		c-0.845-0.608-1.365-1.57-1.412-2.611c0-3.873,0-7.812,0-11.815v-6.03c0-0.515,0-0.996,0.041-1.551
		c0.07-0.542,0.274-1.059,0.596-1.501c0.643-0.904,1.682-1.441,2.791-1.444l84.048,0.065h5.826c0.641-0.018,1.273,0.144,1.828,0.465
		c1.07,0.646,1.697,1.828,1.632,3.076c0,1.143,0,2.244,0,3.313c0,4.269,0,7.948-0.04,10.959c0,1.502,0,2.832,0,3.99
		c0.068,1.006-0.318,1.988-1.053,2.677c-0.45,0.43-1.02,0.714-1.633,0.816C360.934,430.227,360.72,430.284,360.501,430.313z"/>
	<rect x="294.56" y="411.676" fill="#455A64" width="23.737" height="1.778"/>
	<rect x="294.56" y="421.736" fill="#455A64" width="41.583" height="1.779"/>
	<rect x="294.56" y="416.588" fill="#455A64" width="60.262" height="1.778"/>
	<path fill="#455A64" d="M309.786,445.972c-0.063,0.927-0.865,1.626-1.791,1.563c-0.927-0.063-1.626-0.865-1.563-1.792
		c0.061-0.884,0.796-1.568,1.682-1.566C309.07,444.212,309.818,445.015,309.786,445.972z"/>
	<path fill="#455A64" d="M314.976,445.996c-0.063,0.927-0.864,1.626-1.791,1.563c-0.926-0.063-1.626-0.865-1.563-1.792
		c0.06-0.884,0.796-1.568,1.681-1.566c0.955,0.031,1.704,0.83,1.674,1.785C314.977,445.989,314.977,445.993,314.976,445.996z"/>
	<path fill="#455A64" d="M320.182,446.021c-0.063,0.927-0.865,1.626-1.791,1.563c-0.927-0.063-1.626-0.866-1.563-1.792
		c0.062-0.899,0.821-1.59,1.722-1.565C319.493,444.278,320.219,445.077,320.182,446.021z"/>
</g>
<g id="freepik--Character--inject-165">
	<path fill="#4E75FF" d="M235.743,309.686l89.997-6.3c1.771-0.124,3.307,1.211,3.431,2.982l1.314,18.768
		c0.124,1.771-1.212,3.308-2.982,3.432l-89.997,6.3c-1.771,0.124-3.307-1.211-3.431-2.982l-1.314-18.768
		C232.637,311.346,233.972,309.81,235.743,309.686z"/>
	
		<rect x="259.84" y="312.899" transform="matrix(-0.9974 0.0719 -0.0719 -0.9974 565.2611 607.2438)" fill="#FAFAFA" width="23.737" height="1.779"/>
	
		<rect x="260.539" y="322.294" transform="matrix(-0.9974 0.0719 -0.0719 -0.9974 585.1544 625.3177)" fill="#FAFAFA" width="41.584" height="1.779"/>
	
		<rect x="260.592" y="317.342" transform="matrix(-0.9976 0.0698 -0.0698 -0.9976 603.1046 615.3843)" fill="#FAFAFA" width="60.409" height="1.783"/>
	<path fill="#FAFAFA" d="M248.431,321.377c1.12-0.589,1.779-1.791,1.673-3.052c0.021-1.645-1.295-2.996-2.94-3.017
		c-1.645-0.021-2.995,1.295-3.017,2.94c-0.002,0.159,0.009,0.319,0.032,0.476c0.074,1.274,0.903,2.38,2.105,2.807
		c-1.894,0.366-3.38,1.838-3.762,3.729c1.143,1.135,2.66,1.816,4.268,1.918l1.82-0.123c1.601-0.329,3.027-1.228,4.015-2.53
		C252.001,322.719,250.341,321.472,248.431,321.377z"/>
	<path fill="#FAFAFA" d="M247.729,327.187c0-0.049,0.604-0.065,1.632-0.408c1.414-0.498,2.621-1.454,3.427-2.717
		c0.557-0.859,0.903-1.838,1.012-2.856c0.122-1.168-0.067-2.347-0.546-3.419c-0.256-0.577-0.6-1.111-1.02-1.583
		c-0.42-0.506-0.922-0.939-1.485-1.281c-2.415-1.521-5.539-1.296-7.711,0.555c-0.991,0.837-1.709,1.951-2.064,3.199
		c-0.627,2.143-0.117,4.457,1.354,6.136c0.98,1.137,2.313,1.913,3.786,2.203c1.044,0.196,1.632,0.123,1.632,0.171
		c-0.138,0.039-0.281,0.058-0.424,0.057c-0.417,0.026-0.836,0.004-1.249-0.065c-1.537-0.241-2.943-1.005-3.982-2.163
		c-0.719-0.801-1.238-1.76-1.518-2.799c-0.327-1.197-0.327-2.459,0-3.656c0.174-0.646,0.45-1.26,0.816-1.819
		c0.365-0.599,0.825-1.133,1.363-1.583c2.298-1.96,5.604-2.198,8.16-0.587c1.163,0.732,2.081,1.795,2.636,3.052
		c0.503,1.134,0.691,2.383,0.547,3.615c-0.129,1.069-0.509,2.092-1.11,2.986c-0.855,1.301-2.14,2.26-3.631,2.709
		c-0.394,0.13-0.802,0.212-1.216,0.245C248.002,327.196,247.865,327.199,247.729,327.187z"/>
	<polygon fill="#4E75FF" points="215.114,545.442 213.915,552.37 224.588,553.146 224.62,546.34 	"/>
	<path fill="#263238" d="M219.912,545.54c0.047,1.057-0.016,2.115-0.188,3.158c-0.069,1.056-0.239,2.102-0.506,3.125
		c-0.047-1.057,0.016-2.114,0.188-3.158C219.475,547.61,219.644,546.563,219.912,545.54z"/>
	<path fill="#263238" d="M224.588,552.395c-0.517,0.016-1.034-0.022-1.542-0.114l-3.713-0.408c-1.444-0.171-2.758-0.343-3.696-0.506
		c-0.517-0.058-1.026-0.172-1.518-0.343c0.516-0.005,1.032,0.033,1.542,0.114l3.713,0.416c1.444,0.163,2.758,0.343,3.705,0.506
		C223.592,552.113,224.099,552.226,224.588,552.395z"/>
	<path fill="#4E75FF" d="M259.162,550.975l1.363-6.055l-11.326-2.627l-2.081,8.837l0.685,0.212
		c3.084,0.897,15.757,4.341,17.993,4.194C268.285,555.365,259.162,550.975,259.162,550.975z"/>
	<path fill="#EBEBEB" d="M251.238,551.995c0.051-0.994-0.262-1.972-0.881-2.75c-0.608-0.768-1.481-1.28-2.448-1.437l-0.734,3.166
		L251.238,551.995z"/>
	<path fill="#EBEBEB" d="M263.568,553.292c0,0,3.142,1.755,2.595,2.212c-0.547,0.457-13.48-2.546-19.062-4.374l0.074-0.245
		l15.055,3.632C262.23,554.517,262.915,553.161,263.568,553.292z"/>
	<path fill="#263238" d="M247.011,550.836l0.196,0.065l0.547,0.163l2.04,0.571c1.722,0.465,4.08,1.077,6.765,1.697
		s5.076,1.126,6.822,1.469l2.081,0.392l0.571,0.098h0.196l-0.196-0.057l-0.563-0.123l-2.064-0.432
		c-1.746-0.367-4.162-0.89-6.813-1.51c-2.652-0.62-5.043-1.216-6.773-1.632l-2.048-0.522l-0.555-0.139L247.011,550.836z"/>
	<path fill="#263238" d="M262.197,554.688c0.17-0.318,0.375-0.616,0.612-0.89c0.273-0.24,0.571-0.451,0.89-0.628
		C262.933,553.318,262.337,553.921,262.197,554.688z"/>
	<path fill="#263238" d="M259.251,552.224c0,0,0.229-0.131,0.457-0.359s0.383-0.425,0.359-0.449s-0.229,0.131-0.457,0.352
		C259.382,551.986,259.227,552.19,259.251,552.224z"/>
	<path fill="#263238" d="M258.443,551.521c0,0,0.229,0,0.465-0.172c0.237-0.171,0.408-0.269,0.392-0.302
		c-0.016-0.032-0.229,0.049-0.457,0.18S258.427,551.488,258.443,551.521z"/>
	<path fill="#263238" d="M258.117,550.322c0.174,0.109,0.368,0.182,0.571,0.212c0.194,0.063,0.399,0.089,0.604,0.073
		c0-0.041-0.245-0.131-0.571-0.212C258.395,550.313,258.125,550.281,258.117,550.322z"/>
	<path fill="#263238" d="M258.093,549.514c0,0,0.236,0.229,0.612,0.352c0.222,0.092,0.467,0.115,0.702,0.065
		c-0.213-0.089-0.435-0.157-0.661-0.204C258.533,549.641,258.315,549.57,258.093,549.514z"/>
	<path fill="#263238" d="M259.863,551.317c0.231,0.097,0.477,0.154,0.727,0.171c0.271,0.025,0.544,0.025,0.816,0
		c0.165-0.013,0.329-0.04,0.489-0.081c0.098-0.03,0.18-0.098,0.229-0.188c0.049-0.105,0.033-0.229-0.041-0.318
		c-0.508-0.408-1.23-0.408-1.738,0c-0.146,0.118-0.265,0.266-0.351,0.433c-0.057,0.122-0.074,0.188-0.065,0.195
		c0.125-0.208,0.285-0.393,0.473-0.547c0.209-0.153,0.458-0.244,0.718-0.261c0.295-0.021,0.588,0.072,0.816,0.261
		c0.098,0.114,0,0.237-0.123,0.286c-0.147,0.04-0.297,0.067-0.449,0.081c-0.271,0.025-0.544,0.025-0.816,0
		C260.149,551.358,259.872,551.301,259.863,551.317z"/>
	<path fill="#263238" d="M260.043,551.399c0.126-0.13,0.199-0.302,0.204-0.481c0.018-0.196-0.007-0.395-0.074-0.58
		c-0.098-0.195-0.204-0.457-0.522-0.514c-0.161,0-0.293,0.125-0.302,0.285c-0.009,0.119,0.007,0.239,0.049,0.352
		c0.058,0.183,0.137,0.357,0.236,0.521c0.086,0.156,0.206,0.29,0.351,0.393c0,0-0.114-0.164-0.261-0.441
		c-0.085-0.161-0.153-0.33-0.204-0.506c-0.065-0.18-0.065-0.473,0.123-0.465s0.326,0.253,0.408,0.424
		c0.066,0.167,0.099,0.344,0.098,0.522C260.128,551.075,260.093,551.239,260.043,551.399z"/>
	<path fill="#263238" d="M247.966,547.776c0,0,0.326,0.04,0.816,0.22c1.34,0.455,2.294,1.646,2.448,3.052
		c0.057,0.53,0,0.857,0,0.865c0.031-0.072,0.051-0.149,0.057-0.229c0.018-0.215,0.018-0.43,0-0.645
		c-0.104-1.458-1.092-2.703-2.489-3.134c-0.202-0.064-0.41-0.107-0.62-0.13C248.108,547.763,248.036,547.763,247.966,547.776z"/>
	<path fill="#455A64" d="M250.234,543.354c-0.261,0.753-0.473,1.521-0.636,2.301c-0.212,0.768-0.381,1.547-0.506,2.334
		c0.262-0.752,0.475-1.521,0.636-2.301C249.94,544.919,250.109,544.14,250.234,543.354z"/>
	<path fill="#263238" d="M252.96,551.22c0.517,0.254,1.066,0.438,1.632,0.547c0.549,0.161,1.117,0.246,1.689,0.253
		c0-0.041-0.743-0.163-1.632-0.384C253.76,551.415,252.96,551.187,252.96,551.22z"/>
	<path fill="#263238" d="M250.7,550.705c0,0,0,0.172,0.065,0.359c0.065,0.188,0.041,0.343,0.082,0.351
		c0.041,0.009,0.098-0.163,0.057-0.383C250.863,550.812,250.732,550.681,250.7,550.705z"/>
	<path fill="#263238" d="M250.112,549.465c0,0,0,0.155,0.098,0.302c0.098,0.147,0.188,0.253,0.22,0.229
		c0.033-0.024,0-0.154-0.098-0.302C250.234,549.547,250.145,549.449,250.112,549.465z"/>
	<path fill="#263238" d="M249.019,548.715c0,0.04,0.155,0.073,0.31,0.171c0.155,0.098,0.245,0.212,0.286,0.196
		c0.041-0.017,0-0.196-0.212-0.318C249.19,548.641,249.019,548.674,249.019,548.715z"/>
	<path fill="#263238" d="M248.219,548.29c0,0,0,0.106,0.122,0.163c0.123,0.058,0.171,0.082,0.188,0.049
		c0.016-0.032,0-0.105-0.114-0.163C248.301,548.282,248.244,548.258,248.219,548.29z"/>
	<path fill="#E5BAAB" d="M318.175,323.735c-0.816-1.232-6.152,2.057-6.626,2.301s-0.816-0.424-0.399-0.62
		c0.628-0.286,7.123-3.452,6.308-4.667c-0.457-0.669-1.633,0.261-1.633,0.261s-5.866,3.402-6.233,2.815s3.003-2.717,4.186-3.346
		c1.184-0.628,1.354-1.436,0.653-1.729c-0.49-0.196-4.179,1.632-5.337,2.309c-1.159,0.677-4.309,2.497-3.501,0.326
		c0.808-2.17,0.62-4.153,0.196-4.651c-0.288-0.279-0.748-0.272-1.027,0.016c-0.157,0.162-0.23,0.389-0.197,0.613
		c-0.025,0.783-0.154,1.56-0.384,2.309c-0.143,0.622-0.421,1.204-0.816,1.706c-0.229,0.253-0.433,0.498-0.628,0.726l0,0
		l-0.612,0.816c-0.767,0.922-1.15,1.444-1.15,1.444l0,0l-30.698,38.842l1.632,16.141l35.602-48.365v-0.041
		c2.269-0.568,4.505-1.257,6.699-2.064c3.198-1.322,3.084-1.632,2.864-1.958c-0.588-0.93-5.712,2.122-4.986,0.816
		C312.813,326.428,318.827,324.682,318.175,323.735z"/>
	<path fill="#E5BAAB" d="M231.312,351.561l4.284-25.051c0.481-0.62,1.191-1.534,1.991-2.652c0.384-0.531,0.855-0.992,1.396-1.363
		c0.651-0.49,1.368-0.886,2.13-1.175c0.408-0.075,0.677-0.467,0.602-0.875c-0.043-0.233-0.193-0.433-0.406-0.537
		c-0.628-0.245-2.636,0.245-4.488,1.787c-1.852,1.542-1.126-2.179-0.881-3.541c0.245-1.363,0.816-5.606,0.424-6.014
		c-0.53-0.596-1.265-0.139-1.469,1.232c-0.204,1.371-1.126,5.41-1.836,5.247s0.612-7.066,0.612-7.066s0.522-1.436-0.294-1.632
		c-1.477-0.383-2.333,7.067-2.399,7.777c-0.049,0.498-0.816,0.351-0.751-0.18c0.065-0.53,1.477-6.871,0-7.271
		c-1.15-0.318-0.759,6.12-1.779,7.271s0.204-4.896-0.906-5.165c-0.416-0.09-0.734-0.106-0.938,3.476
		c-0.027,2.582,0.079,5.164,0.318,7.735c-0.171,0.931-5.108,27.932-5.435,31.963c-0.326,4.031,13.521,27.858,13.521,27.858
		l9.563-9.792L231.312,351.561z"/>
	<path fill="#4E75FF" d="M225.143,367.824c-0.334,0.734,5.712,9.196,8.788,15.61l2.709,17.862
		c-3.109,5.712-6.675,12.33-8.397,19.649c12.281,5.712,26.259,5.043,39.69,2.448l-2.815-19.724l4.692-19.583l11.595-13.986
		l-8.429-11.212l-9.221,9.841l-4.35,1.077c-3.966,0.987-11.293,0.342-15.031-1.33l0,0l-6.25-8.054L225.143,367.824z"/>
	<path fill="#263238" d="M254.91,400.187c-0.577,0.366-1.207,0.642-1.869,0.815c-1.581,0.53-3.229,0.83-4.896,0.89
		c-1.662,0.059-3.325-0.12-4.937-0.53c-0.675-0.133-1.324-0.37-1.926-0.702c2.24,0.552,4.539,0.826,6.846,0.816
		C250.434,401.321,252.71,400.889,254.91,400.187z"/>
	<path fill="#263238" d="M272.928,380.7c-0.124,0.141-0.273,0.257-0.441,0.343c-0.438,0.268-0.91,0.476-1.403,0.62
		c-3.435,1.047-7.083-0.814-8.25-4.211c-0.181-0.479-0.291-0.982-0.326-1.493c0-0.359,0-0.563,0-0.563
		c0.156,0.661,0.35,1.312,0.579,1.95c1.245,3.134,4.624,4.856,7.891,4.023C272.226,381.083,272.887,380.626,272.928,380.7z"/>
	<path fill="#263238" d="M279.823,371.838c-0.421-0.577-0.792-1.188-1.11-1.828c-0.653-1.134-1.559-2.701-2.619-4.398
		c-1.061-1.697-2.073-3.199-2.815-4.284c-0.438-0.563-0.826-1.164-1.159-1.795c0.531,0.486,1.002,1.034,1.404,1.632
		c0.816,1.044,1.86,2.529,2.929,4.235s1.942,3.305,2.53,4.488C279.333,370.505,279.615,371.159,279.823,371.838z"/>
	<path fill="#263238" d="M239.365,361.728c-0.604,0.434-1.246,0.813-1.917,1.134l-4.676,2.587l-4.635,2.676
		c-0.62,0.409-1.275,0.761-1.958,1.053c0.556-0.498,1.16-0.938,1.804-1.314c1.142-0.75,2.758-1.754,4.578-2.783
		c1.82-1.028,3.517-1.893,4.749-2.448C237.963,362.265,238.652,361.961,239.365,361.728z"/>
	<path fill="#263238" d="M236.077,377.42c-0.116,0.703-0.313,1.391-0.588,2.048c-0.15,0.697-0.383,1.374-0.693,2.016
		c-0.097-0.728,0.002-1.469,0.286-2.146C235.232,378.619,235.577,377.957,236.077,377.42z"/>
	<path fill="#E5BAAB" d="M257.26,369.798c-0.147-1.82-0.229-3.884-0.229-3.884s4.398-1.077,4.08-5.712s-1.999-15.243-1.999-15.243
		l-8.674-3.076l-8.021,8.226l4.374,22.848l8.299-0.547C256.397,372.264,257.356,371.11,257.26,369.798z"/>
	<path fill="#D78776" d="M256.053,357.468c0,0,0,0.09-0.041,0.212c-0.113,0.165-0.292,0.271-0.489,0.294
		c-0.522,0-1.094-0.465-1.371-1.143c-0.129-0.324-0.182-0.673-0.155-1.02c-0.007-0.305,0.145-0.592,0.4-0.759
		c0.109-0.047,0.233-0.047,0.343,0c0.085,0.029,0.157,0.086,0.204,0.163c0.082,0.13,0.041,0.22,0,0.212
		c-0.041-0.008,0-0.074-0.106-0.155c-0.113-0.096-0.279-0.096-0.392,0c-0.184,0.151-0.281,0.383-0.261,0.62
		c-0.008,0.31,0.047,0.618,0.163,0.906c0.245,0.612,0.743,1.061,1.134,1.061c0.16-0.001,0.312-0.066,0.424-0.18
		C256.012,357.534,256.036,357.468,256.053,357.468z"/>
	<path fill="#263238" d="M257.921,341.393l0.179,0.245c-1.597-1.143-3.568-1.639-5.516-1.387c-2.033,0.098-4.029,0.579-5.883,1.42
		c-0.498,0.229-0.996,0.457-1.485,0.702c0.266-0.425,0.474-0.883,0.62-1.363c0.497-1.496,0.027-3.144-1.183-4.153
		c-1.376-0.883-3.194-0.611-4.251,0.636c-0.977,1.301-0.977,3.09,0,4.39c0.708,0.907,1.766,1.473,2.913,1.559
		c-0.327,0.22-0.645,0.449-0.947,0.694c-2.601,2.175-3.782,5.612-3.068,8.927c0.238,0.881,0.549,1.741,0.93,2.57
		c0.064,0.733,0.034,1.47-0.09,2.195c-0.286,1.804-1.417,3.363-3.043,4.194c-0.614,0.181-1.174,0.509-1.632,0.955
		c-0.38,0.63-0.38,1.418,0,2.048c0.652,1.11,1.737,1.897,2.995,2.171c0.196,0.048,0.396,0.083,0.596,0.106
		c-0.143,0.983-0.019,1.986,0.359,2.905c1.656,2.65,4.727,4.064,7.817,3.599l0.123-2.162l0.816,2.448c0,0,2.726,1.02,8.87-1.754
		c2.048-0.938-0.955-8.38-0.955-8.38c-1.526-1.509-1.037-4.015-1.037-4.015c-1.289,0.163-2.546-3.207-2.276-4.333
		c0.215-1.177,1.205-2.055,2.399-2.13c0.514,0,0.383,2.644,1.722,2.35c1.134,0,0.71-2.113,1.061-3.174
		c0.816-2.31,2.35-5.541,1.787-7.907C261.52,342.617,259.741,340.047,257.921,341.393z"/>
	<path fill="#263238" d="M236.975,348.843c-0.272-0.499-0.345-1.082-0.204-1.632c0.096-0.591,0.331-1.15,0.686-1.632
		c0.435-0.61,1.056-1.063,1.771-1.289c0.698-0.165,1.413-0.25,2.13-0.253c0.546-0.01,1.079-0.168,1.542-0.457
		c0.42-0.275,0.714-0.707,0.816-1.199c0,0,0.082,0.146,0,0.44c-0.094,0.407-0.335,0.764-0.677,1.004
		c-0.489,0.361-1.074,0.571-1.681,0.604c-0.684,0.019-1.365,0.106-2.032,0.261c-1.156,0.414-2.021,1.389-2.293,2.587
		C236.958,347.795,236.938,348.32,236.975,348.843z"/>
	<path fill="#263238" d="M256.46,372.042c0.359-0.519,0.678-1.064,0.955-1.632c0.578-1.401,0.537-2.981-0.114-4.349
		c-0.409-0.739-0.861-1.453-1.354-2.138c-0.417-0.587-0.724-1.245-0.906-1.942c-0.227-0.643-0.152-1.353,0.204-1.934
		c-0.114,0.619-0.083,1.256,0.09,1.861c0.213,0.644,0.527,1.25,0.93,1.795c0.523,0.687,0.998,1.409,1.42,2.163
		c0.397,0.802,0.58,1.693,0.53,2.586c-0.04,0.722-0.22,1.428-0.53,2.081c-0.208,0.435-0.483,0.834-0.816,1.183
		C256.64,371.953,256.477,372.059,256.46,372.042z"/>
	<path fill="#263238" d="M228.708,421.141l-17.242,125.077l17.136,0.521c0,0,17.479-110.095,18.629-109.449
		c1.151,0.645,12.836,47.507,12.322,50.38c-0.293,1.632-13.488,57.829-12.55,57.609c0.938-0.221,16.532,1.354,16.532,1.354
		s13.44-59.104,13.244-60.531c-0.465-3.476-9.302-66.479-9.302-66.479L228.708,421.141z"/>
	<path fill="#455A64" d="M253.662,438.799c-0.723-0.028-1.44-0.141-2.138-0.334c-3.404-0.742-6.721-1.836-9.898-3.265
		c-0.672-0.263-1.312-0.6-1.91-1.003c0.697,0.183,1.377,0.426,2.032,0.726c1.24,0.481,2.954,1.126,4.896,1.763
		c1.942,0.637,3.68,1.143,4.97,1.493C252.312,438.329,252.997,438.537,253.662,438.799z"/>
	<path fill="#455A64" d="M258.436,546.144c0.114,0,0.114,0.49,0,1.037c-0.114,0.546-0.31,0.979-0.424,0.954s-0.114-0.489,0-1.044
		S258.321,546.144,258.436,546.144z"/>
	<path fill="#455A64" d="M260.141,538.253c0.014,1.357-0.265,2.701-0.816,3.941c-0.066-0.68,0.009-1.366,0.22-2.016
		C259.613,539.504,259.815,538.849,260.141,538.253z"/>
	<path fill="#455A64" d="M261.854,530.387c0.006,1.354-0.271,2.694-0.816,3.934C261.029,532.966,261.308,531.626,261.854,530.387z"
		/>
	<path fill="#455A64" d="M263.568,522.48c0.066,0.68-0.009,1.365-0.22,2.015c-0.078,0.678-0.292,1.333-0.628,1.926
		c-0.07-0.679,0.002-1.365,0.212-2.016C263.01,523.728,263.227,523.071,263.568,522.48z"/>
	<path fill="#455A64" d="M265.273,514.646c0.006,1.354-0.271,2.693-0.816,3.933C264.448,517.226,264.727,515.885,265.273,514.646z"
		/>
	<path fill="#455A64" d="M266.979,506.772c-0.005,1.359-0.297,2.702-0.857,3.94C266.127,509.354,266.419,508.011,266.979,506.772z"
		/>
	<path fill="#455A64" d="M268.684,498.905c0.066,0.677-0.006,1.36-0.212,2.008c-0.077,0.679-0.293,1.335-0.637,1.926
		c-0.002-1.354,0.275-2.692,0.816-3.934H268.684z"/>
	<path fill="#455A64" d="M270.398,491.031c-0.005,1.359-0.297,2.702-0.857,3.941C269.546,493.613,269.838,492.271,270.398,491.031z"
		/>
	<path fill="#455A64" d="M270.912,483.116c0.295,0.615,0.461,1.284,0.489,1.967c0.075,0.503,0.118,1.01,0.131,1.518v0.041l0,0
		c-0.106,0.293-0.188,0.457-0.237,0.448c-0.049-0.008-0.065-0.204,0-0.514v0.049c-0.126-0.491-0.222-0.99-0.286-1.493
		C270.839,484.474,270.806,483.787,270.912,483.116z"/>
	<path fill="#455A64" d="M269.77,475.152c0.295,0.615,0.458,1.284,0.481,1.966c0.167,0.662,0.188,1.353,0.065,2.024
		c-0.295-0.615-0.458-1.285-0.481-1.967C269.668,476.514,269.646,475.823,269.77,475.152z"/>
	<path fill="#455A64" d="M268.66,467.163c0.299,0.614,0.465,1.284,0.49,1.967c0.161,0.663,0.184,1.352,0.065,2.023
		c-0.295-0.615-0.462-1.284-0.49-1.966C268.569,468.523,268.546,467.836,268.66,467.163z"/>
	<path fill="#455A64" d="M267.558,459.183c0.295,0.616,0.462,1.285,0.49,1.967c0.156,0.663,0.179,1.352,0.065,2.023
		c-0.299-0.614-0.465-1.284-0.49-1.966C267.462,460.544,267.44,459.854,267.558,459.183z"/>
	<path fill="#455A64" d="M266.457,451.202c0.295,0.615,0.458,1.285,0.481,1.967c0.167,0.662,0.188,1.353,0.065,2.023
		c-0.29-0.616-0.454-1.285-0.481-1.966C266.36,452.563,266.338,451.874,266.457,451.202z"/>
	<path fill="#455A64" d="M265.347,443.23c0.299,0.614,0.465,1.283,0.49,1.966c0.162,0.663,0.184,1.353,0.065,2.024
		c-0.295-0.615-0.458-1.285-0.481-1.967C265.259,444.591,265.234,443.902,265.347,443.23z"/>
	<path fill="#455A64" d="M264.245,435.25c0.295,0.615,0.462,1.284,0.49,1.966c0.161,0.663,0.184,1.353,0.065,2.024
		c-0.295-0.616-0.462-1.285-0.49-1.967C264.154,436.609,264.132,435.922,264.245,435.25z"/>
	<path fill="#455A64" d="M263.413,429.244c0.122,0,0.277,0.424,0.351,0.979c0.074,0.556,0.049,1.021-0.065,1.037
		c-0.114,0.016-0.278-0.425-0.351-0.979S263.299,429.26,263.413,429.244z"/>
	<polygon fill="#455A64" points="245.249,547.604 264.278,548.723 265.282,543.271 246.318,542.513 	"/>
	<polygon fill="#455A64" points="210.34,546.209 229.377,547.319 230.373,541.876 211.409,541.117 	"/>
	<path fill="#455A64" d="M243.674,437.942c-0.114,0-0.114-0.498,0-1.045c0.114-0.546,0.294-0.979,0.408-0.954s0.122,0.489,0,1.036
		C243.959,437.526,243.788,437.959,243.674,437.942z"/>
	<path fill="#455A64" d="M242.066,445.776c-0.072-0.676-0.005-1.358,0.196-2.008c0.066-0.674,0.272-1.327,0.604-1.918
		c0.013,1.353-0.266,2.69-0.816,3.926H242.066z"/>
	<path fill="#455A64" d="M240.5,453.65c-0.078-0.675-0.017-1.357,0.18-2.008c0.067-0.675,0.27-1.33,0.596-1.926
		c0.087,0.675,0.026,1.36-0.18,2.008C241.033,452.401,240.83,453.057,240.5,453.65z"/>
	<path fill="#455A64" d="M238.966,461.517c-0.083-0.674-0.024-1.357,0.171-2.007c0.063-0.676,0.262-1.331,0.588-1.926
		c0.083,0.673,0.024,1.356-0.171,2.007C239.489,460.266,239.289,460.921,238.966,461.517z"/>
	<path fill="#455A64" d="M237.456,469.391c-0.083-0.673-0.028-1.356,0.163-2.007c0.06-0.678,0.257-1.335,0.58-1.934
		c0.093,0.672,0.041,1.356-0.155,2.007C237.987,468.136,237.787,468.795,237.456,469.391z"/>
	<path fill="#455A64" d="M236.02,477.273c-0.046-1.35,0.199-2.694,0.718-3.941c0.088,0.673,0.035,1.356-0.155,2.008
		C236.528,476.016,236.337,476.674,236.02,477.273z"/>
	<path fill="#455A64" d="M234.616,485.164c-0.05-1.351,0.187-2.696,0.694-3.949c0.095,0.672,0.047,1.355-0.139,2.008
		C235.123,483.901,234.934,484.563,234.616,485.164z"/>
	<path fill="#455A64" d="M233.262,493.055c-0.051-1.349,0.176-2.692,0.669-3.949c0.105,0.673,0.063,1.36-0.122,2.016
		C233.766,491.797,233.58,492.457,233.262,493.055z"/>
	<path fill="#455A64" d="M231.973,500.962c-0.111-0.669-0.075-1.354,0.106-2.007c0.041-0.678,0.221-1.339,0.53-1.942
		c0.102,0.669,0.065,1.353-0.106,2.007C232.462,499.697,232.282,500.358,231.973,500.962z"/>
	<path fill="#455A64" d="M230.732,508.877c-0.075-1.348,0.134-2.695,0.612-3.957C231.421,506.268,231.212,507.616,230.732,508.877z"
		/>
	<path fill="#455A64" d="M229.549,516.809c-0.107-0.67-0.08-1.355,0.082-2.016c0.029-0.679,0.201-1.343,0.506-1.95
		c0.107,0.671,0.08,1.356-0.082,2.016C230.026,515.537,229.854,516.202,229.549,516.809z"/>
	<path fill="#455A64" d="M228.48,524.74c-0.124-0.668-0.104-1.355,0.057-2.016c0.028-0.677,0.194-1.341,0.49-1.95
		c0.117,0.667,0.095,1.35-0.065,2.008C228.935,523.461,228.771,524.127,228.48,524.74z"/>
	<path fill="#455A64" d="M227.387,532.68c-0.143-0.661-0.143-1.346,0-2.007c0.021-0.679,0.183-1.345,0.473-1.959
		c0.107,1.344-0.067,2.694-0.514,3.966H227.387z"/>
	<path fill="#455A64" d="M226.391,540.636c-0.122-1.344,0.045-2.699,0.49-3.974c0.136,0.662,0.136,1.345,0,2.008
		C226.862,539.353,226.695,540.023,226.391,540.636z"/>
	<path fill="#455A64" d="M225.689,546.642c-0.114,0-0.155-0.473-0.09-1.036s0.212-1.004,0.326-0.987s0.155,0.481,0.09,1.036
		S225.812,546.658,225.689,546.642z"/>
	<path fill="#455A64" d="M270.798,487.392c-1.654-0.001-3.308-0.088-4.953-0.261c-1.657-0.035-3.31-0.16-4.953-0.375
		C264.207,486.477,267.545,486.691,270.798,487.392z"/>
	<path fill="#455A64" d="M269.859,485.352c-2.743,0.593-5.568,0.697-8.348,0.311c1.384-0.16,2.777-0.23,4.17-0.212
		C267.07,485.327,268.466,485.294,269.859,485.352z"/>
	<path fill="#455A64" d="M226.685,491.309c-1.559-2.066-2.889-4.296-3.965-6.65C224.278,486.725,225.608,488.955,226.685,491.309z"
		/>
	<path fill="#455A64" d="M267.966,424.331c0,0,0,0.213,0,0.571c-0.073,0.517-0.185,1.027-0.334,1.526
		c-0.21,0.764-0.605,1.465-1.151,2.04c-0.718,0.7-1.699,1.064-2.701,1.004c-0.96-0.05-1.903-0.274-2.783-0.661
		c-0.727-0.292-1.4-0.702-1.991-1.216c-0.587-0.44-0.977-1.094-1.085-1.82c0.322,0.607,0.757,1.147,1.281,1.592
		c0.587,0.457,1.243,0.82,1.942,1.077c0.841,0.35,1.735,0.554,2.644,0.604c0.899,0.065,1.786-0.245,2.448-0.856
		c0.52-0.523,0.911-1.16,1.143-1.86C267.754,425.123,267.893,424.315,267.966,424.331z"/>
	<path fill="#455A64" d="M244.082,435.984c0,0-0.139-0.099-0.343-0.303c-0.328-0.256-0.631-0.543-0.906-0.856
		c-0.432-0.466-0.782-1.001-1.037-1.583c-0.138-0.759-0.174-1.533-0.106-2.301c0.09-1.632,0.277-3.036,0.417-4.08
		c0.042-0.555,0.149-1.103,0.318-1.632c0.139,0-0.098,2.595-0.31,5.761c-0.065,0.723-0.045,1.451,0.057,2.17
		c0.228,0.541,0.53,1.046,0.898,1.502c0.277,0.433,0.612,0.669,0.816,0.938S244.106,435.927,244.082,435.984z"/>
</g>
</svg>
