<svg xmlns="http://www.w3.org/2000/svg" xmlns:xlink="http://www.w3.org/1999/xlink" width="282.434" height="194.168" viewBox="0 0 282.434 194.168">
  <defs>
    <clipPath id="clip-path">
      <path id="Path_2102" data-name="Path 2102" d="M233.233,153.855a33.853,33.853,0,0,0-46.534-31.1,40.9,40.9,0,0,0-76.687,9.038,35.2,35.2,0,1,0,2.311,70.361l112.024-.006a24.956,24.956,0,0,0,8.885-48.279Z" transform="translate(-75.964 -99.78)" fill="none"/>
    </clipPath>
  </defs>
  <g id="Cloud_hosting-rafiki_1_" data-name="Cloud hosting-rafiki (1)" transform="translate(0 -55)">
    <g id="freepik--background-complete--inject-393" transform="translate(0 55)">
      <rect id="Rectangle_106" data-name="Rectangle 106" width="282.434" height="0.141" transform="translate(0 184.938)" fill="#ebebeb"/>
      <rect id="Rectangle_107" data-name="Rectangle 107" width="31.198" height="0.141" transform="translate(222.937 194.027)" fill="#ebebeb"/>
      <rect id="Rectangle_108" data-name="Rectangle 108" width="4.909" height="0.141" transform="translate(181.78 191.067)" fill="#ebebeb"/>
      <rect id="Rectangle_109" data-name="Rectangle 109" width="10.84" height="0.141" transform="translate(210.397 188.785)" fill="#ebebeb"/>
      <rect id="Rectangle_110" data-name="Rectangle 110" width="24.397" height="0.141" transform="translate(29.633 189.734)" fill="#ebebeb"/>
      <rect id="Rectangle_111" data-name="Rectangle 111" width="25.826" height="0.141" transform="translate(121.633 193.383)" fill="#ebebeb"/>
      <rect id="Rectangle_112" data-name="Rectangle 112" width="52.917" height="0.141" transform="translate(79.341 190.993)" fill="#ebebeb"/>
      <path id="Path_2022" data-name="Path 2022" d="M153.731,211.519a3.225,3.225,0,0,1-3.231,3.225H41.43a3.225,3.225,0,0,1-3.22-3.225V58.2A3.225,3.225,0,0,1,41.43,55H150.5a3.225,3.225,0,0,1,3.225,3.225m-.141,0a3.09,3.09,0,0,0-3.084-3.112H41.43A3.084,3.084,0,0,0,38.351,58.2V211.519A3.084,3.084,0,0,0,41.43,214.6H150.5a3.09,3.09,0,0,0,3.084-3.084" transform="translate(-16.626 -55)" fill="#ebebeb"/>
      <path id="Path_2023" data-name="Path 2023" d="M366.8,214.745H257.725a3.231,3.231,0,0,1-3.225-3.225V58.2a3.231,3.231,0,0,1,3.225-3.2H366.8a3.225,3.225,0,0,1,3.214,3.2V211.519A3.225,3.225,0,0,1,366.8,214.745ZM257.725,55.113a3.09,3.09,0,0,0-3.084,3.084V211.519a3.09,3.09,0,0,0,3.084,3.084H366.8a3.09,3.09,0,0,0,3.084-3.084V58.2a3.09,3.09,0,0,0-3.084-3.084Z" transform="translate(-110.741 -55)" fill="#ebebeb"/>
      <path id="Path_2024" data-name="Path 2024" d="M136.391,127.806a16.048,16.048,0,0,0-22.064-14.749,19.4,19.4,0,0,0-36.378,4.293,16.7,16.7,0,0,0,1.09,33.327h53.137a11.862,11.862,0,0,0,4.214-22.9Z" transform="translate(-27.287 -75.522)" fill="#e0e0e0"/>
      <path id="Path_2025" data-name="Path 2025" d="M376.964,264.246a16.048,16.048,0,0,0-22.03-14.749,19.4,19.4,0,0,0-36.378,4.293,16.7,16.7,0,0,0,1.09,33.361h53.137a11.862,11.862,0,0,0,4.18-22.905Z" transform="translate(-131.811 -134.891)" fill="#f5f5f5"/>
      <path id="Path_2026" data-name="Path 2026" d="M314.4,181.608a8.332,8.332,0,0,0-11.444-7.654,10.06,10.06,0,0,0-18.867,2.231,8.659,8.659,0,0,0,.565,17.3h27.56a6.14,6.14,0,0,0,2.186-11.862Z" transform="translate(-120.082 -104.3)" fill="#e0e0e0"/>
      <path id="Path_2027" data-name="Path 2027" d="M373.721,90.292A11.009,11.009,0,0,0,358.6,80.181a13.3,13.3,0,0,0-24.928,2.943,11.444,11.444,0,0,0,.746,22.86h36.411a8.112,8.112,0,0,0,2.892-15.692Z" transform="translate(-140.56 -62.709)" fill="#ebebeb"/>
      <path id="Path_2028" data-name="Path 2028" d="M167.045,261.682a11,11,0,0,0-15.122-10.105A13.291,13.291,0,0,0,127,254.514a11.444,11.444,0,0,0,.74,22.86H164.17a8.112,8.112,0,0,0,2.892-15.692Z" transform="translate(-50.631 -137.287)" fill="#f5f5f5"/>
      <path id="Path_2029" data-name="Path 2029" d="M130.8,174.624a.288.288,0,0,1-.2-.085.237.237,0,0,1-.062-.09.243.243,0,0,1,0-.107.272.272,0,0,1,0-.113.237.237,0,0,1,.062-.09.3.3,0,0,1,.305-.062.362.362,0,0,1,.09.062.277.277,0,0,1,.085.2.242.242,0,0,1,0,.107.237.237,0,0,1-.062.09A.288.288,0,0,1,130.8,174.624Z" transform="translate(-56.797 -106.806)" fill="#e0e0e0"/>
      <path id="Path_2030" data-name="Path 2030" d="M130.5,189.19a.282.282,0,0,1,.282-.282h0a.282.282,0,0,1,.282.282h0a.282.282,0,0,1-.282.282h0A.282.282,0,0,1,130.5,189.19Zm0-3.112a.282.282,0,0,1,.282-.282h0a.282.282,0,0,1,.282.282h0a.282.282,0,0,1-.282.282h0a.288.288,0,0,1-.282-.282Zm0-3.112a.282.282,0,0,1,.282-.282h0a.282.282,0,0,1,.282.282h0a.282.282,0,0,1-.282.282h0A.288.288,0,0,1,130.5,182.965Zm0-3.112a.282.282,0,0,1,.282-.282h0a.282.282,0,0,1,.282.282h0a.282.282,0,0,1-.282.282h0A.288.288,0,0,1,130.5,179.852Z" transform="translate(-56.785 -109.204)" fill="#e0e0e0"/>
      <path id="Path_2031" data-name="Path 2031" d="M130.795,202.193a.243.243,0,0,1-.107,0,.3.3,0,0,1-.153-.153.232.232,0,0,1,0-.107.243.243,0,0,1,0-.107.2.2,0,0,1,.062-.09.26.26,0,0,1,.09-.062.282.282,0,0,1,.215,0,.26.26,0,0,1,.09.062.2.2,0,0,1,.062.09.243.243,0,0,1,0,.107.266.266,0,0,1-.085.2.2.2,0,0,1-.09.062A.231.231,0,0,1,130.795,202.193Z" transform="translate(-56.797 -118.813)" fill="#e0e0e0"/>
      <path id="Path_2032" data-name="Path 2032" d="M184.94,201.892a.282.282,0,0,1,.277-.282h0a.288.288,0,0,1,.288.283h0a.282.282,0,0,1-.288.282h0a.277.277,0,0,1-.277-.282Zm-3.451,0a.282.282,0,0,1,.282-.282h0a.282.282,0,0,1,.277.282h0a.277.277,0,0,1-.277.282h0A.282.282,0,0,1,181.489,201.892Zm-3.451,0a.282.282,0,0,1,.282-.282h0a.288.288,0,0,1,.282.282h0a.282.282,0,0,1-.282.282h0a.282.282,0,0,1-.254-.282Zm-3.457,0a.288.288,0,0,1,.282-.282h0a.282.282,0,0,1,.282.282h0a.282.282,0,0,1-.282.282h0A.282.282,0,0,1,174.58,201.892Zm-3.451,0a.288.288,0,0,1,.282-.282h0a.282.282,0,0,1,.282.282h0a.282.282,0,0,1-.282.282h0A.282.282,0,0,1,171.129,201.892Zm-3.451,0a.282.282,0,0,1,.282-.282h0a.282.282,0,0,1,.282.282h0a.282.282,0,0,1-.282.282h0A.282.282,0,0,1,167.678,201.892Zm-3.451,0a.282.282,0,0,1,.282-.282h0a.282.282,0,0,1,.282.282h0a.282.282,0,0,1-.282.282h0A.282.282,0,0,1,164.226,201.892Zm-3.451,0a.282.282,0,0,1,.282-.282h0a.288.288,0,0,1,.282.282h0a.282.282,0,0,1-.282.282h0A.282.282,0,0,1,160.775,201.892Zm-3.451,0a.282.282,0,0,1,.282-.282h0a.288.288,0,0,1,.282.282h0a.282.282,0,0,1-.282.282h0A.282.282,0,0,1,157.324,201.892Zm-3.451,0a.282.282,0,0,1,.282-.282h0a.288.288,0,0,1,.282.282h0a.282.282,0,0,1-.282.282h0A.282.282,0,0,1,153.872,201.892Zm-3.457,0a.288.288,0,0,1,.282-.282h0a.288.288,0,0,1,.288.283h0a.282.282,0,0,1-.288.282h0A.282.282,0,0,1,150.415,201.892Zm-3.446,0a.282.282,0,0,1,.282-.282h0a.282.282,0,0,1,.277.282h0a.277.277,0,0,1-.277.282h0a.282.282,0,0,1-.254-.282Zm-3.457,0a.288.288,0,0,1,.282-.282h0a.282.282,0,0,1,.282.282h0a.282.282,0,0,1-.282.282h0A.282.282,0,0,1,143.513,201.892Zm-3.451,0a.288.288,0,0,1,.282-.282h0a.282.282,0,0,1,.282.282h0a.282.282,0,0,1-.282.282h0A.282.282,0,0,1,140.061,201.892Zm-3.451,0a.288.288,0,0,1,.282-.282h0a.282.282,0,0,1,.282.282h0a.282.282,0,0,1-.282.282h0A.282.282,0,0,1,136.61,201.892Z" transform="translate(-59.443 -118.795)" fill="#e0e0e0"/>
      <path id="Path_2033" data-name="Path 2033" d="M228.575,202.193a.232.232,0,0,1-.107,0,.254.254,0,0,1-.1-.062.249.249,0,0,1-.057-.09.232.232,0,0,1,0-.107.311.311,0,0,1,.079-.2.254.254,0,0,1,.1-.062.282.282,0,0,1,.215,0,.2.2,0,0,1,.09.062.282.282,0,0,1,.085.2.288.288,0,0,1-.085.2.2.2,0,0,1-.09.062.243.243,0,0,1-.13,0Z" transform="translate(-99.344 -118.813)" fill="#e0e0e0"/>
      <path id="Path_2034" data-name="Path 2034" d="M228.28,175.078a.282.282,0,0,1,.282-.282h0a.282.282,0,0,1,.282.282h0a.288.288,0,0,1-.282.282h0A.282.282,0,0,1,228.28,175.078Zm0-3.389a.282.282,0,0,1,.282-.282h0a.282.282,0,0,1,.282.282h0a.282.282,0,0,1-.282.282h0a.282.282,0,0,1-.282-.26Zm0-3.389a.282.282,0,0,1,.282-.282h0a.288.288,0,0,1,.282.282h0a.282.282,0,0,1-.282.282h0a.282.282,0,0,1-.282-.237Zm0-3.389a.282.282,0,0,1,.282-.282h0a.282.282,0,0,1,.282.282h0a.282.282,0,0,1-.282.282h0a.282.282,0,0,1-.282-.209Zm0-3.389a.282.282,0,0,1,.282-.282h0a.288.288,0,0,1,.282.282h0a.282.282,0,0,1-.282.282h0a.282.282,0,0,1-.282-.186Zm0-3.389a.282.282,0,0,1,.282-.282h0a.282.282,0,0,1,.282.282h0a.288.288,0,0,1-.282.282h0a.282.282,0,0,1-.282-.158Zm0-3.389a.282.282,0,0,1,.282-.282h0a.288.288,0,0,1,.282.282h0a.282.282,0,0,1-.282.282h0a.282.282,0,0,1-.282-.136Zm0-3.361a.282.282,0,0,1,.282-.282h0a.282.282,0,0,1,.282.282h0a.288.288,0,0,1-.282.282h0a.282.282,0,0,1-.282-.136Zm0-3.389a.282.282,0,0,1,.282-.282h0a.282.282,0,0,1,.282.282h0a.282.282,0,0,1-.282.282h0a.282.282,0,0,1-.282-.113Z" transform="translate(-99.332 -95.341)" fill="#e0e0e0"/>
      <path id="Path_2035" data-name="Path 2035" d="M228.575,142.639a.328.328,0,0,1-.107,0l-.1-.062a.305.305,0,0,1-.056-.09.243.243,0,0,1,0-.107.272.272,0,0,1,0-.113.305.305,0,0,1,.057-.09l.1-.062a.283.283,0,0,1,.215,0,.361.361,0,0,1,.09.062.311.311,0,0,1,.085.2.288.288,0,0,1-.282.282Z" transform="translate(-99.345 -92.897)" fill="#e0e0e0"/>
      <path id="Path_2036" data-name="Path 2036" d="M308.563,142.338a.282.282,0,0,1,.282-.288h0a.288.288,0,0,1,.282.288h0a.288.288,0,0,1-.282.282h0A.282.282,0,0,1,308.563,142.338Zm-3.389,0a.282.282,0,0,1,.282-.288h0a.282.282,0,0,1,.282.288h0a.282.282,0,0,1-.282.282h0A.282.282,0,0,1,305.173,142.338Zm-3.389,0a.288.288,0,0,1,.283-.288h0a.282.282,0,0,1,.282.288h0a.282.282,0,0,1-.282.282h0A.288.288,0,0,1,301.784,142.338Zm-3.389,0a.282.282,0,0,1,.282-.288h0a.282.282,0,0,1,.277.288h0a.282.282,0,0,1-.277.282h0A.282.282,0,0,1,298.395,142.338Zm-3.389,0a.282.282,0,0,1,.282-.288h0a.288.288,0,0,1,.282.288h0a.288.288,0,0,1-.282.282h0A.282.282,0,0,1,295.006,142.338Zm-3.389,0a.282.282,0,0,1,.282-.288h0a.282.282,0,0,1,.282.288h0a.282.282,0,0,1-.282.282h0a.282.282,0,0,1-.254-.282Zm-3.389,0a.288.288,0,0,1,.283-.288h0a.282.282,0,0,1,.282.288h0a.282.282,0,0,1-.282.282h0a.288.288,0,0,1-.249-.282Zm-3.389,0a.282.282,0,0,1,.282-.288h0a.288.288,0,0,1,.282.288h0a.288.288,0,0,1-.282.282h0a.282.282,0,0,1-.237-.282Zm-3.389,0a.282.282,0,0,1,.282-.288h0a.288.288,0,0,1,.282.288h0a.288.288,0,0,1-.282.282h0a.282.282,0,0,1-.232-.282Zm-3.389,0a.288.288,0,0,1,.283-.288h0a.282.282,0,0,1,.282.288h0a.282.282,0,0,1-.282.282h0a.288.288,0,0,1-.226-.282Zm-3.389,0a.288.288,0,0,1,.288-.288h0a.282.282,0,0,1,.277.288h0a.282.282,0,0,1-.277.282h0a.288.288,0,0,1-.226-.282Zm-3.389,0a.282.282,0,0,1,.282-.288h0a.288.288,0,0,1,.282.288h0a.288.288,0,0,1-.282.282h0a.282.282,0,0,1-.209-.282Zm-3.389,0a.282.282,0,0,1,.282-.288h0a.282.282,0,0,1,.282.288h0a.282.282,0,0,1-.282.282h0a.283.283,0,0,1-.2-.282Zm-3.389,0a.288.288,0,0,1,.283-.288h0a.282.282,0,0,1,.282.288h0a.282.282,0,0,1-.282.282h0a.288.288,0,0,1-.2-.282Zm-3.389,0a.288.288,0,0,1,.282-.288h0a.288.288,0,0,1,.288.288h0a.288.288,0,0,1-.288.282h0a.288.288,0,0,1-.192-.282Zm-3.389,0a.282.282,0,0,1,.282-.288h0a.288.288,0,0,1,.282.288h0a.288.288,0,0,1-.282.282h0a.282.282,0,0,1-.181-.282Zm-3.389,0a.282.282,0,0,1,.282-.288h0a.288.288,0,0,1,.282.288h0a.288.288,0,0,1-.282.282h0a.282.282,0,0,1-.175-.282Zm-3.389,0a.288.288,0,0,1,.282-.288h0a.282.282,0,0,1,.282.288h0a.282.282,0,0,1-.282.282h0a.288.288,0,0,1-.169-.282Zm-3.389,0a.282.282,0,0,1,.282-.288h0a.282.282,0,0,1,.277.288h0a.282.282,0,0,1-.277.282h0a.282.282,0,0,1-.158-.282Zm-3.389,0a.282.282,0,0,1,.282-.288h0a.288.288,0,0,1,.282.288h0a.288.288,0,0,1-.282.282h0a.282.282,0,0,1-.153-.282Zm-3.389,0a.282.282,0,0,1,.282-.288h0a.282.282,0,0,1,.282.288h0a.282.282,0,0,1-.282.282h0a.282.282,0,0,1-.147-.282Zm-3.389,0a.288.288,0,0,1,.283-.288h0a.282.282,0,0,1,.282.288h0a.282.282,0,0,1-.282.282h0a.288.288,0,0,1-.141-.282Zm-3.389,0a.282.282,0,0,1,.282-.288h0a.288.288,0,0,1,.282.288h0a.288.288,0,0,1-.282.282h0a.282.282,0,0,1-.13-.282Z" transform="translate(-101.821 -92.878)" fill="#e0e0e0"/>
      <path id="Path_2037" data-name="Path 2037" d="M372.262,142.622a.282.282,0,0,1-.282-.282.305.305,0,0,1,.079-.2.515.515,0,0,1,.09-.062.294.294,0,0,1,.311.062.4.4,0,0,1,.062.1.327.327,0,0,1,0,.107.283.283,0,0,1-.079.2A.288.288,0,0,1,372.262,142.622Z" transform="translate(-161.86 -92.88)" fill="#e0e0e0"/>
      <path id="Path_2038" data-name="Path 2038" d="M372,124.009a.282.282,0,0,1,.282-.277h0a.282.282,0,0,1,.288.277h0a.282.282,0,0,1-.288.282h0A.282.282,0,0,1,372,124.009Zm0-3.259a.288.288,0,0,1,.282-.282h0a.288.288,0,0,1,.288.282h0a.288.288,0,0,1-.288.288h0a.288.288,0,0,1-.282-.294Zm0-3.259a.288.288,0,0,1,.282-.282h0a.288.288,0,0,1,.288.282h0a.282.282,0,0,1-.288.282h0A.282.282,0,0,1,372,117.49Zm0-3.259a.288.288,0,0,1,.282-.282h0a.288.288,0,0,1,.288.282h0a.282.282,0,0,1-.288.282h0A.282.282,0,0,1,372,114.231Zm0-3.259a.288.288,0,0,1,.282-.282h0a.288.288,0,0,1,.288.282h0a.282.282,0,0,1-.288.282h0A.282.282,0,0,1,372,110.972Zm0-3.259a.288.288,0,0,1,.282-.282h0a.288.288,0,0,1,.288.282h0a.282.282,0,0,1-.288.282h0a.282.282,0,0,1-.282-.282Z" transform="translate(-161.869 -77.814)" fill="#e0e0e0"/>
      <path id="Path_2039" data-name="Path 2039" d="M372.259,102.228a.277.277,0,0,1-.2-.085.283.283,0,0,1-.079-.2.328.328,0,0,1,0-.107.361.361,0,0,1,.062-.09.288.288,0,0,1,.4,0,.282.282,0,0,1,.079.2.328.328,0,0,1,0,.107.362.362,0,0,1-.062.09.237.237,0,0,1-.09.062A.243.243,0,0,1,372.259,102.228Z" transform="translate(-161.857 -75.306)" fill="#e0e0e0"/>
      <path id="Path_2040" data-name="Path 2040" d="M165.592,290.4a.288.288,0,0,1-.2-.079.283.283,0,0,1-.062-.1.327.327,0,0,1,0-.107.288.288,0,0,1,.085-.2.3.3,0,0,1,.311-.062.322.322,0,0,1,.09.062.282.282,0,0,1,.079.2.327.327,0,0,1,0,.107.4.4,0,0,1-.062.1.305.305,0,0,1-.09.056.243.243,0,0,1-.147.023Z" transform="translate(-71.937 -157.185)" fill="#e0e0e0"/>
      <path id="Path_2041" data-name="Path 2041" d="M165.3,306.646a.282.282,0,0,1,.282-.282h0a.277.277,0,0,1,.277.282h0a.282.282,0,0,1-.277.282h0A.282.282,0,0,1,165.3,306.646Zm0-3.468a.282.282,0,0,1,.282-.282h0a.282.282,0,0,1,.277.282h0a.277.277,0,0,1-.277.282h0a.282.282,0,0,1-.282-.282Zm0-3.463a.282.282,0,0,1,.282-.282h0a.282.282,0,0,1,.277.282h0a.282.282,0,0,1-.277.282h0a.282.282,0,0,1-.282-.282Zm0-3.463a.282.282,0,0,1,.282-.282h0a.277.277,0,0,1,.277.282h0a.282.282,0,0,1-.277.282h0a.282.282,0,0,1-.282-.282Z" transform="translate(-71.927 -159.854)" fill="#e0e0e0"/>
      <path id="Path_2042" data-name="Path 2042" d="M165.592,321.066a.271.271,0,0,1-.2-.085.259.259,0,0,1-.062-.09.327.327,0,0,1,0-.107.367.367,0,0,1,0-.107.26.26,0,0,1,.062-.09.288.288,0,0,1,.311-.062.237.237,0,0,1,.09.062.362.362,0,0,1,.062.09.355.355,0,0,1,0,.107.327.327,0,0,1,0,.107.362.362,0,0,1-.062.09.237.237,0,0,1-.09.062A.243.243,0,0,1,165.592,321.066Z" transform="translate(-71.937 -170.529)" fill="#e0e0e0"/>
      <path id="Path_2043" data-name="Path 2043" d="M200.119,320.782a.282.282,0,0,1,.282-.282h0a.282.282,0,0,1,.282.282h0a.282.282,0,0,1-.282.282h0A.282.282,0,0,1,200.119,320.782Zm-3.231,0a.282.282,0,0,1,.282-.282h0a.282.282,0,0,1,.282.282h0a.282.282,0,0,1-.282.282h0A.282.282,0,0,1,196.888,320.782Zm-3.237,0a.282.282,0,0,1,.282-.282h0a.282.282,0,0,1,.282.282h0a.282.282,0,0,1-.282.282h0A.282.282,0,0,1,193.651,320.782Zm-3.231,0a.282.282,0,0,1,.282-.282h0a.282.282,0,0,1,.282.282h0a.282.282,0,0,1-.282.282h0A.282.282,0,0,1,190.42,320.782Zm-3.237,0a.282.282,0,0,1,.282-.282h0a.282.282,0,0,1,.282.282h0a.282.282,0,0,1-.282.282h0a.282.282,0,0,1-.282-.282Zm-3.237,0a.282.282,0,0,1,.288-.282h0a.277.277,0,0,1,.277.282h0a.277.277,0,0,1-.277.282h0a.282.282,0,0,1-.288-.282Zm-3.231,0A.282.282,0,0,1,181,320.5h0a.282.282,0,0,1,.282.282h0a.282.282,0,0,1-.282.282h0A.282.282,0,0,1,180.716,320.782Zm-3.237,0a.282.282,0,0,1,.282-.282h0a.282.282,0,0,1,.282.282h0a.282.282,0,0,1-.282.282h0a.282.282,0,0,1-.282-.282Zm-3.231,0a.282.282,0,0,1,.282-.282h0a.282.282,0,0,1,.282.282h0a.282.282,0,0,1-.282.282h0a.282.282,0,0,1-.282-.282Zm-3.248,0a.282.282,0,0,1,.282-.282h0a.282.282,0,0,1,.282.282h0a.282.282,0,0,1-.282.282h0A.282.282,0,0,1,171,320.782Z" transform="translate(-74.408 -170.527)" fill="#e0e0e0"/>
      <path id="Path_2044" data-name="Path 2044" d="M228.575,321.083a.232.232,0,0,1-.107,0,.254.254,0,0,1-.1-.062.248.248,0,0,1-.056-.09.232.232,0,0,1,0-.107.282.282,0,0,1,.079-.2.255.255,0,0,1,.1-.062.282.282,0,0,1,.215,0,.2.2,0,0,1,.09.062.288.288,0,0,1,.085.2.243.243,0,0,1,0,.107.26.26,0,0,1-.062.09.2.2,0,0,1-.09.062.243.243,0,0,1-.153,0Z" transform="translate(-99.344 -170.546)" fill="#e0e0e0"/>
      <path id="Path_2045" data-name="Path 2045" d="M228.28,282.027a.282.282,0,0,1,.282-.282h0a.282.282,0,0,1,.282.282h0a.288.288,0,0,1-.282.282h0A.282.282,0,0,1,228.28,282.027Zm0-3.288a.282.282,0,0,1,.282-.288h0a.288.288,0,0,1,.282.288h0a.288.288,0,0,1-.282.282h0A.282.282,0,0,1,228.28,278.74Zm0-3.293a.282.282,0,0,1,.282-.282h0a.288.288,0,0,1,.282.282h0a.282.282,0,0,1-.282.282h0A.282.282,0,0,1,228.28,275.447Zm0-3.288a.282.282,0,0,1,.282-.282h0a.288.288,0,0,1,.282.282h0a.282.282,0,0,1-.282.282h0A.282.282,0,0,1,228.28,272.159Zm0-3.288a.282.282,0,0,1,.282-.282h0a.282.282,0,0,1,.282.282h0a.288.288,0,0,1-.282.282h0a.282.282,0,0,1-.282-.282Zm0-3.288a.282.282,0,0,1,.282-.282h0a.282.282,0,0,1,.282.282h0a.288.288,0,0,1-.282.282h0a.282.282,0,0,1-.282-.282Zm0-3.288a.282.282,0,0,1,.282-.282h0a.282.282,0,0,1,.282.282h0a.288.288,0,0,1-.282.282h0a.282.282,0,0,1-.282-.282Zm0-3.293a.282.282,0,0,1,.282-.282h0a.288.288,0,0,1,.282.282h0a.282.282,0,0,1-.282.282h0a.282.282,0,0,1-.282-.282Zm0-3.288a.282.282,0,0,1,.282-.282h0a.282.282,0,0,1,.282.282h0a.282.282,0,0,1-.282.282h0a.282.282,0,0,1-.282-.282Zm0-3.288a.282.282,0,0,1,.282-.282h0a.282.282,0,0,1,.282.282h0a.288.288,0,0,1-.282.282h0a.282.282,0,0,1-.282-.282Zm0-3.288a.282.282,0,0,1,.282-.282h0a.282.282,0,0,1,.282.282h0a.288.288,0,0,1-.282.282h0a.282.282,0,0,1-.282-.26Zm0-3.293a.282.282,0,0,1,.282-.282h0a.288.288,0,0,1,.282.282h0a.282.282,0,0,1-.282.282h0a.282.282,0,0,1-.282-.282Zm0-3.288a.282.282,0,0,1,.282-.282h0a.282.282,0,0,1,.282.282h0a.282.282,0,0,1-.282.282h0a.282.282,0,0,1-.282-.282Zm0-3.288a.282.282,0,0,1,.282-.282h0a.282.282,0,0,1,.282.282h0a.282.282,0,0,1-.282.282h0a.282.282,0,0,1-.282-.282Z" transform="translate(-99.332 -135.06)" fill="#e0e0e0"/>
      <path id="Path_2046" data-name="Path 2046" d="M228.575,233.753a.328.328,0,0,1-.107,0,.35.35,0,0,1-.1-.062.305.305,0,0,1-.056-.09.243.243,0,0,1,0-.107.294.294,0,0,1,.079-.2.333.333,0,0,1,.1-.056.283.283,0,0,1,.215,0,.248.248,0,0,1,.09.056.311.311,0,0,1,.085.2.243.243,0,0,1,0,.107.321.321,0,0,1-.062.09.282.282,0,0,1-.2.085Z" transform="translate(-99.345 -132.546)" fill="#e0e0e0"/>
      <path id="Path_2047" data-name="Path 2047" d="M275.327,233.452a.282.282,0,0,1,.282-.282h0a.282.282,0,0,1,.282.282h0a.282.282,0,0,1-.282.282h0a.288.288,0,0,1-.282-.282Zm-3.417,0a.282.282,0,0,1,.282-.282h0a.282.282,0,0,1,.288.282h0a.288.288,0,0,1-.288.282h0a.288.288,0,0,1-.282-.282Zm-3.417,0a.282.282,0,0,1,.282-.282h0a.282.282,0,0,1,.282.282h0a.282.282,0,0,1-.282.282h0A.288.288,0,0,1,268.492,233.452Zm-3.389,0a.277.277,0,0,1,.277-.282h0a.282.282,0,0,1,.282.282h0a.282.282,0,0,1-.282.282h0a.282.282,0,0,1-.3-.282Zm-3.389,0a.282.282,0,0,1,.282-.282h0a.282.282,0,0,1,.282.282h0a.288.288,0,0,1-.282.282h0a.282.282,0,0,1-.333-.282Zm-3.417,0a.282.282,0,0,1,.282-.282h0a.282.282,0,0,1,.282.282h0a.288.288,0,0,1-.282.282h0a.282.282,0,0,1-.333-.282Zm-3.417,0a.282.282,0,0,1,.282-.282h0a.282.282,0,0,1,.282.282h0a.288.288,0,0,1-.282.282h0a.282.282,0,0,1-.333-.282Zm-3.417,0a.282.282,0,0,1,.282-.282h0a.282.282,0,0,1,.282.282h0a.282.282,0,0,1-.282.282h0a.288.288,0,0,1-.333-.282Zm-3.417,0a.282.282,0,0,1,.282-.282h0a.282.282,0,0,1,.282.282h0a.282.282,0,0,1-.282.282h0a.282.282,0,0,1-.333-.282Zm-3.389,0a.282.282,0,0,1,.282-.282h0a.282.282,0,0,1,.282.282h0a.282.282,0,0,1-.282.282h0a.288.288,0,0,1-.362-.282Zm-3.417,0a.282.282,0,0,1,.282-.282h0a.282.282,0,0,1,.282.282h0a.282.282,0,0,1-.282.282h0a.288.288,0,0,1-.362-.282Zm-3.389,0a.282.282,0,0,1,.282-.282h0a.282.282,0,0,1,.282.282h0a.288.288,0,0,1-.282.282h0a.282.282,0,0,1-.384-.282Zm-3.389,0a.282.282,0,0,1,.282-.282h0a.282.282,0,0,1,.282.282h0a.288.288,0,0,1-.282.282h0a.282.282,0,0,1-.412-.282Z" transform="translate(-101.963 -132.527)" fill="#e0e0e0"/>
      <path id="Path_2048" data-name="Path 2048" d="M313.256,233.732a.288.288,0,0,1-.2-.085.322.322,0,0,1-.062-.09.368.368,0,0,1,0-.107.329.329,0,0,1,0-.107.283.283,0,0,1,.062-.1.249.249,0,0,1,.09-.056.237.237,0,0,1,.215,0,.332.332,0,0,1,.1.056.272.272,0,0,1,.057.1.231.231,0,0,1,0,.107.283.283,0,0,1-.079.2A.311.311,0,0,1,313.256,233.732Z" transform="translate(-136.193 -132.525)" fill="#e0e0e0"/>
      <path id="Path_2049" data-name="Path 2049" d="M313,218.9a.282.282,0,0,1,.282-.282h0a.282.282,0,0,1,.282.282h0a.282.282,0,0,1-.282.282h0A.288.288,0,0,1,313,218.9Zm0-3.564a.282.282,0,0,1,.282-.282h0a.282.282,0,0,1,.282.282h0a.277.277,0,0,1-.282.277h0a.282.282,0,0,1-.282-.277Zm0-3.57a.288.288,0,0,1,.282-.282h0a.282.282,0,0,1,.282.282h0a.282.282,0,0,1-.282.282h0A.282.282,0,0,1,313,211.767Zm0-3.564a.288.288,0,0,1,.282-.282h0a.282.282,0,0,1,.282.282h0a.282.282,0,0,1-.282.282h0A.282.282,0,0,1,313,208.2Z" transform="translate(-136.196 -121.54)" fill="#e0e0e0"/>
      <path id="Path_2050" data-name="Path 2050" d="M313.256,202.177a.282.282,0,0,1-.2-.079A.351.351,0,0,1,313,202a.327.327,0,0,1,0-.107.367.367,0,0,1,0-.107.3.3,0,0,1,.153-.152.294.294,0,0,1,.311.062.311.311,0,0,1,.079.2.271.271,0,0,1-.282.282Z" transform="translate(-136.193 -118.797)" fill="#e0e0e0"/>
      <path id="Path_2051" data-name="Path 2051" d="M372.262,312.735a.288.288,0,0,1-.2-.085.282.282,0,0,1-.079-.2.305.305,0,0,1,.079-.2.294.294,0,0,1,.311-.056.3.3,0,0,1,.09.056.4.4,0,0,1,.062.1.327.327,0,0,1,0,.107.282.282,0,0,1-.079.2A.288.288,0,0,1,372.262,312.735Z" transform="translate(-161.86 -166.903)" fill="#e0e0e0"/>
      <path id="Path_2052" data-name="Path 2052" d="M372,334.486a.282.282,0,0,1,.282-.282h0a.282.282,0,0,1,.288.282h0a.282.282,0,0,1-.288.282h0A.282.282,0,0,1,372,334.486Zm0-3.254a.282.282,0,0,1,.282-.282h0a.282.282,0,0,1,.288.282h0a.288.288,0,0,1-.288.282h0a.288.288,0,0,1-.282-.282Zm0-3.259a.288.288,0,0,1,.282-.282h0a.288.288,0,0,1,.288.282h0a.288.288,0,0,1-.288.288h0a.288.288,0,0,1-.282-.288Zm0-3.254a.288.288,0,0,1,.282-.282h0a.288.288,0,0,1,.288.283h0a.282.282,0,0,1-.288.282h0a.282.282,0,0,1-.282-.254Zm0-3.254a.282.282,0,0,1,.282-.282h0a.282.282,0,0,1,.288.282h0a.282.282,0,0,1-.288.282h0A.282.282,0,0,1,372,321.466Zm0-3.254a.282.282,0,0,1,.282-.282h0a.282.282,0,0,1,.288.282h0a.288.288,0,0,1-.288.282h0A.288.288,0,0,1,372,318.212Z" transform="translate(-161.869 -169.409)" fill="#e0e0e0"/>
      <path id="Path_2053" data-name="Path 2053" d="M372.268,353.068a.277.277,0,0,1-.2-.085.282.282,0,0,1-.068-.2.326.326,0,0,1,0-.107.361.361,0,0,1,.062-.09.288.288,0,0,1,.4,0,.282.282,0,0,1,.079.2.356.356,0,0,1,0,.107.361.361,0,0,1-.062.09.237.237,0,0,1-.09.062A.243.243,0,0,1,372.268,353.068Z" transform="translate(-161.866 -184.454)" fill="#e0e0e0"/>
      <path id="Path_2054" data-name="Path 2054" d="M308.563,352.782a.282.282,0,0,1,.282-.282h0a.282.282,0,0,1,.282.282h0a.282.282,0,0,1-.282.282h0A.282.282,0,0,1,308.563,352.782Zm-3.389,0a.282.282,0,0,1,.282-.282h0a.282.282,0,0,1,.282.282h0a.282.282,0,0,1-.282.282h0A.282.282,0,0,1,305.173,352.782Zm-3.389,0a.282.282,0,0,1,.282-.282h0a.282.282,0,0,1,.282.282h0a.282.282,0,0,1-.282.282h0A.282.282,0,0,1,301.784,352.782Zm-3.389,0a.282.282,0,0,1,.282-.282h0a.282.282,0,0,1,.282.282h0a.282.282,0,0,1-.282.282h0A.282.282,0,0,1,298.395,352.782Zm-3.389,0a.282.282,0,0,1,.282-.282h0a.282.282,0,0,1,.282.282h0a.282.282,0,0,1-.282.282h0A.282.282,0,0,1,295.006,352.782Zm-3.389,0a.282.282,0,0,1,.282-.282h0a.282.282,0,0,1,.282.282h0a.282.282,0,0,1-.282.282h0a.282.282,0,0,1-.254-.282Zm-3.389,0a.282.282,0,0,1,.282-.282h0a.282.282,0,0,1,.282.282h0a.282.282,0,0,1-.282.282h0a.282.282,0,0,1-.249-.282Zm-3.389,0a.282.282,0,0,1,.288-.282h0a.282.282,0,0,1,.282.282h0a.282.282,0,0,1-.282.282h0a.282.282,0,0,1-.249-.282Zm-3.389,0a.282.282,0,0,1,.282-.282h0a.282.282,0,0,1,.282.282h0a.282.282,0,0,1-.282.282h0a.282.282,0,0,1-.232-.282Zm-3.389,0a.282.282,0,0,1,.282-.282h0a.282.282,0,0,1,.282.282h0a.282.282,0,0,1-.282.282h0a.282.282,0,0,1-.226-.282Zm-3.389,0a.282.282,0,0,1,.282-.282h0a.282.282,0,0,1,.282.282h0a.282.282,0,0,1-.282.282h0a.282.282,0,0,1-.22-.282Zm-3.389,0a.282.282,0,0,1,.282-.282h0a.282.282,0,0,1,.288.282h0a.282.282,0,0,1-.288.282h0a.282.282,0,0,1-.215-.282Zm-3.389,0a.282.282,0,0,1,.282-.282h0a.282.282,0,0,1,.282.282h0a.282.282,0,0,1-.282.282h0a.282.282,0,0,1-.2-.282Zm-3.389,0a.282.282,0,0,1,.282-.282h0a.282.282,0,0,1,.282.282h0a.282.282,0,0,1-.282.282h0a.282.282,0,0,1-.2-.282Zm-3.389,0a.282.282,0,0,1,.282-.282h0a.282.282,0,0,1,.282.282h0a.282.282,0,0,1-.282.282h0a.282.282,0,0,1-.192-.282Zm-3.389,0a.282.282,0,0,1,.282-.282h0a.282.282,0,0,1,.282.282h0a.282.282,0,0,1-.282.282h0a.282.282,0,0,1-.181-.282Zm-3.389,0a.282.282,0,0,1,.282-.282h0a.282.282,0,0,1,.282.282h0a.282.282,0,0,1-.282.282h0a.282.282,0,0,1-.175-.282Zm-3.389,0a.282.282,0,0,1,.282-.282h0a.282.282,0,0,1,.282.282h0a.282.282,0,0,1-.282.282h0a.282.282,0,0,1-.169-.282Zm-3.389,0a.277.277,0,0,1,.277-.282h0a.282.282,0,0,1,.282.282h0a.282.282,0,0,1-.282.282h0a.277.277,0,0,1-.152-.282Zm-3.389,0a.282.282,0,0,1,.282-.282h0a.282.282,0,0,1,.282.282h0a.282.282,0,0,1-.282.282h0a.282.282,0,0,1-.153-.282Zm-3.389,0a.282.282,0,0,1,.282-.282h0a.282.282,0,0,1,.282.282h0a.282.282,0,0,1-.282.282h0a.282.282,0,0,1-.147-.282Zm-3.389,0a.282.282,0,0,1,.282-.282h0a.282.282,0,0,1,.282.282h0a.282.282,0,0,1-.282.282h0a.282.282,0,0,1-.141-.282Zm-3.389,0a.282.282,0,0,1,.282-.282h0a.282.282,0,0,1,.288.282h0a.282.282,0,0,1-.288.282h0a.282.282,0,0,1-.136-.282Z" transform="translate(-101.821 -184.452)" fill="#e0e0e0"/>
      <path id="Path_2055" data-name="Path 2055" d="M228.564,353.083a.231.231,0,0,1-.107,0,.255.255,0,0,1-.1-.062.294.294,0,0,1,0-.4.254.254,0,0,1,.1-.062.283.283,0,0,1,.215,0,.2.2,0,0,1,.09.062.277.277,0,0,1,0,.4.2.2,0,0,1-.09.062A.243.243,0,0,1,228.564,353.083Z" transform="translate(-99.334 -184.47)" fill="#e0e0e0"/>
      <path id="Path_2056" data-name="Path 2056" d="M228.28,338.028a.282.282,0,0,1,.282-.282h0a.282.282,0,0,1,.282.282h0a.282.282,0,0,1-.282.282h0A.282.282,0,0,1,228.28,338.028Zm0-3.615a.282.282,0,0,1,.282-.282h0a.282.282,0,0,1,.282.282h0a.282.282,0,0,1-.282.282h0A.282.282,0,0,1,228.28,334.413Zm0-3.615a.282.282,0,0,1,.282-.282h0a.282.282,0,0,1,.282.282h0a.282.282,0,0,1-.282.282h0a.282.282,0,0,1-.282-.282Zm0-3.615a.282.282,0,0,1,.282-.282h0a.282.282,0,0,1,.282.282h0a.282.282,0,0,1-.282.282h0A.282.282,0,0,1,228.28,327.182Z" transform="translate(-99.332 -173.312)" fill="#e0e0e0"/>
      <path id="Path_2057" data-name="Path 2057" d="M228.575,321.083a.232.232,0,0,1-.107,0,.254.254,0,0,1-.1-.062.248.248,0,0,1-.056-.09.232.232,0,0,1,0-.107.282.282,0,0,1,.079-.2.255.255,0,0,1,.1-.062.282.282,0,0,1,.215,0,.2.2,0,0,1,.09.062.288.288,0,0,1,.085.2.243.243,0,0,1,0,.107.26.26,0,0,1-.062.09.2.2,0,0,1-.09.062.243.243,0,0,1-.153,0Z" transform="translate(-99.344 -170.546)" fill="#e0e0e0"/>
      <path id="Path_2058" data-name="Path 2058" d="M228.575,202.193a.232.232,0,0,1-.107,0,.254.254,0,0,1-.1-.062.249.249,0,0,1-.057-.09.232.232,0,0,1,0-.107.311.311,0,0,1,.079-.2.254.254,0,0,1,.1-.062.282.282,0,0,1,.215,0,.2.2,0,0,1,.09.062.282.282,0,0,1,.085.2.288.288,0,0,1-.085.2.2.2,0,0,1-.09.062.243.243,0,0,1-.13,0Z" transform="translate(-99.344 -118.813)" fill="#e0e0e0"/>
      <path id="Path_2059" data-name="Path 2059" d="M228.28,218.9a.282.282,0,0,1,.282-.288h0a.288.288,0,0,1,.282.288h0a.288.288,0,0,1-.282.282h0A.282.282,0,0,1,228.28,218.9Zm0-3.564a.282.282,0,0,1,.282-.282h0a.282.282,0,0,1,.282.282h0a.288.288,0,0,1-.282.282h0A.282.282,0,0,1,228.28,215.337Zm0-3.57a.282.282,0,0,1,.282-.282h0a.288.288,0,0,1,.282.282h0a.282.282,0,0,1-.282.282h0A.282.282,0,0,1,228.28,211.767Zm0-3.564a.282.282,0,0,1,.282-.282h0a.288.288,0,0,1,.282.282h0a.282.282,0,0,1-.282.282h0A.282.282,0,0,1,228.28,208.2Z" transform="translate(-99.332 -121.54)" fill="#e0e0e0"/>
      <path id="Path_2060" data-name="Path 2060" d="M228.575,233.753a.328.328,0,0,1-.107,0,.35.35,0,0,1-.1-.062.305.305,0,0,1-.056-.09.243.243,0,0,1,0-.107.294.294,0,0,1,.079-.2.333.333,0,0,1,.1-.056.283.283,0,0,1,.215,0,.248.248,0,0,1,.09.056.311.311,0,0,1,.085.2.243.243,0,0,1,0,.107.321.321,0,0,1-.062.09.282.282,0,0,1-.2.085Z" transform="translate(-99.345 -132.546)" fill="#e0e0e0"/>
    </g>
    <g id="freepik--Monitors--inject-393" transform="translate(68.057 202.216)">
      <path id="Path_2061" data-name="Path 2061" d="M123.3,337.006l1.13-19.341a2.2,2.2,0,0,1,2.163-2.045h31.39a1.909,1.909,0,0,1,1.926,2.045l-1.13,19.341a2.2,2.2,0,0,1-2.163,2.05H125.228a1.921,1.921,0,0,1-1.932-2.05Z" transform="translate(-121.705 -315.62)" fill="#407bff"/>
      <path id="Path_2062" data-name="Path 2062" d="M120.487,337.006l1.13-19.341a2.2,2.2,0,0,1,2.169-2.045h32.644a1.915,1.915,0,0,1,1.932,2.045l-1.13,19.341a2.2,2.2,0,0,1-2.163,2.05H122.418a1.921,1.921,0,0,1-1.932-2.05Z" transform="translate(-120.482 -315.62)" fill="#fff"/>
      <path id="Path_2063" data-name="Path 2063" d="M120.487,337.006l1.13-19.341a2.2,2.2,0,0,1,2.169-2.045h32.644a1.915,1.915,0,0,1,1.932,2.045l-1.13,19.341a2.2,2.2,0,0,1-2.163,2.05H122.418a1.921,1.921,0,0,1-1.932-2.05Z" transform="translate(-120.482 -315.62)" fill="#407bff" opacity="0.3"/>
      <rect id="Rectangle_113" data-name="Rectangle 113" width="4.349" height="15.901" rx="2.175" transform="translate(29.304 25.289) rotate(90)" fill="#407bff"/>
      <g id="Group_1557" data-name="Group 1557" transform="translate(13.403 25.289)" opacity="0.6">
        <rect id="Rectangle_114" data-name="Rectangle 114" width="4.349" height="15.901" rx="2.175" transform="translate(15.901) rotate(90)" fill="#fff"/>
      </g>
      <rect id="Rectangle_115" data-name="Rectangle 115" width="4.349" height="17.161" rx="2.175" transform="translate(25.717 25.289) rotate(90)" fill="#fff"/>
      <rect id="Rectangle_116" data-name="Rectangle 116" width="4.349" height="17.161" rx="2.175" transform="translate(25.717 25.289) rotate(90)" fill="#407bff" opacity="0.3"/>
      <path id="Path_2064" data-name="Path 2064" d="M156.093,338.824H122.642a.847.847,0,0,1-.853-.9l1.13-19.646a.972.972,0,0,1,.955-.9h33.452a.847.847,0,0,1,.853.9l-1.13,19.646a.972.972,0,0,1-.955.9Z" transform="translate(-121.05 -316.381)" fill="#fff" opacity="0.9"/>
      <path id="Path_2065" data-name="Path 2065" d="M135.244,338.824H128.59l6.084-21.454h6.654Z" transform="translate(-124.01 -316.381)" fill="#407bff" opacity="0.1"/>
      <path id="Path_2066" data-name="Path 2066" d="M146.429,338.824H141.78l6.084-21.454h4.649Z" transform="translate(-129.75 -316.381)" fill="#407bff" opacity="0.1"/>
      <path id="Path_2067" data-name="Path 2067" d="M164.369,338.824H159.72L165.8,317.37h4.649Z" transform="translate(-137.556 -316.381)" fill="#407bff" opacity="0.1"/>
      <path id="Path_2068" data-name="Path 2068" d="M219,337.006l1.13-19.341a2.192,2.192,0,0,1,2.163-2.045h31.384a1.909,1.909,0,0,1,1.932,2.045l-1.13,19.341a2.2,2.2,0,0,1-2.163,2.05H220.933a1.909,1.909,0,0,1-1.937-2.05Z" transform="translate(-163.346 -315.62)" fill="#407bff"/>
      <path id="Path_2069" data-name="Path 2069" d="M216.206,337.006l1.13-19.341a2.2,2.2,0,0,1,2.163-2.045h32.649a1.909,1.909,0,0,1,1.926,2.045l-1.13,19.341a2.2,2.2,0,0,1-2.163,2.05H218.138a1.915,1.915,0,0,1-1.932-2.05Z" transform="translate(-162.133 -315.62)" fill="#fff"/>
      <path id="Path_2070" data-name="Path 2070" d="M216.206,337.006l1.13-19.341a2.2,2.2,0,0,1,2.163-2.045h32.649a1.909,1.909,0,0,1,1.926,2.045l-1.13,19.341a2.2,2.2,0,0,1-2.163,2.05H218.138a1.915,1.915,0,0,1-1.932-2.05Z" transform="translate(-162.133 -315.62)" fill="#407bff" opacity="0.3"/>
      <rect id="Rectangle_117" data-name="Rectangle 117" width="4.349" height="15.901" rx="2.175" transform="translate(83.368 25.289) rotate(90)" fill="#407bff"/>
      <g id="Group_1558" data-name="Group 1558" transform="translate(67.467 25.289)" opacity="0.6">
        <rect id="Rectangle_118" data-name="Rectangle 118" width="4.349" height="15.901" rx="2.175" transform="translate(15.901) rotate(90)" fill="#fff"/>
      </g>
      <rect id="Rectangle_119" data-name="Rectangle 119" width="4.349" height="17.161" rx="2.175" transform="translate(79.781 25.289) rotate(90)" fill="#fff"/>
      <rect id="Rectangle_120" data-name="Rectangle 120" width="4.349" height="17.161" rx="2.175" transform="translate(79.781 25.289) rotate(90)" fill="#407bff" opacity="0.3"/>
      <path id="Path_2071" data-name="Path 2071" d="M251.8,338.824H218.346a.842.842,0,0,1-.847-.9l1.13-19.646a.972.972,0,0,1,.955-.9h33.452a.842.842,0,0,1,.847.9l-1.13,19.646A.966.966,0,0,1,251.8,338.824Z" transform="translate(-162.696 -316.381)" fill="#fff" opacity="0.9"/>
      <path id="Path_2072" data-name="Path 2072" d="M230.958,338.824H224.31l6.084-21.454h6.648Z" transform="translate(-165.661 -316.381)" fill="#407bff" opacity="0.1"/>
      <path id="Path_2073" data-name="Path 2073" d="M242.143,338.824H237.5l6.084-21.454h4.649Z" transform="translate(-171.4 -316.381)" fill="#407bff" opacity="0.1"/>
      <path id="Path_2074" data-name="Path 2074" d="M260.083,338.824H255.44l6.084-21.454h4.649Z" transform="translate(-179.207 -316.381)" fill="#407bff" opacity="0.1"/>
      <path id="Path_2075" data-name="Path 2075" d="M314.727,337.006l1.13-19.341a2.192,2.192,0,0,1,2.163-2.045H349.4a1.915,1.915,0,0,1,1.932,2.045l-1.13,19.341a2.2,2.2,0,0,1-2.169,2.05H316.658a1.921,1.921,0,0,1-1.932-2.05Z" transform="translate(-205.002 -315.62)" fill="#407bff"/>
      <path id="Path_2076" data-name="Path 2076" d="M311.926,337.006l1.13-19.341a2.192,2.192,0,0,1,2.163-2.045h32.644a1.915,1.915,0,0,1,1.932,2.045l-1.13,19.341a2.2,2.2,0,0,1-2.163,2.05H313.852a1.909,1.909,0,0,1-1.926-2.05Z" transform="translate(-203.783 -315.62)" fill="#fff"/>
      <path id="Path_2077" data-name="Path 2077" d="M311.926,337.006l1.13-19.341a2.192,2.192,0,0,1,2.163-2.045h32.644a1.915,1.915,0,0,1,1.932,2.045l-1.13,19.341a2.2,2.2,0,0,1-2.163,2.05H313.852a1.909,1.909,0,0,1-1.926-2.05Z" transform="translate(-203.783 -315.62)" fill="#407bff" opacity="0.3"/>
      <rect id="Rectangle_121" data-name="Rectangle 121" width="4.349" height="15.901" rx="2.175" transform="translate(137.437 25.289) rotate(90)" fill="#407bff"/>
      <g id="Group_1559" data-name="Group 1559" transform="translate(121.536 25.289)" opacity="0.6">
        <rect id="Rectangle_122" data-name="Rectangle 122" width="4.349" height="15.901" rx="2.175" transform="translate(15.901) rotate(90)" fill="#fff"/>
      </g>
      <rect id="Rectangle_123" data-name="Rectangle 123" width="4.349" height="17.161" rx="2.175" transform="translate(133.85 25.289) rotate(90)" fill="#fff"/>
      <rect id="Rectangle_124" data-name="Rectangle 124" width="4.349" height="17.161" rx="2.175" transform="translate(133.85 25.289) rotate(90)" fill="#407bff" opacity="0.3"/>
      <path id="Path_2078" data-name="Path 2078" d="M347.551,338.824h-33.48a.847.847,0,0,1-.853-.9l1.13-19.646a.966.966,0,0,1,.955-.9h33.446a.842.842,0,0,1,.853.9l-1.13,19.646A.972.972,0,0,1,347.551,338.824Z" transform="translate(-204.347 -316.381)" fill="#fff" opacity="0.9"/>
      <path id="Path_2079" data-name="Path 2079" d="M326.674,338.824H320.02L326.1,317.37h6.654Z" transform="translate(-207.307 -316.381)" fill="#407bff" opacity="0.1"/>
      <path id="Path_2080" data-name="Path 2080" d="M337.859,338.824H333.21L339.3,317.37h4.643Z" transform="translate(-213.047 -316.381)" fill="#407bff" opacity="0.1"/>
      <path id="Path_2081" data-name="Path 2081" d="M355.8,338.824H351.15l6.089-21.454h4.643Z" transform="translate(-220.853 -316.381)" fill="#407bff" opacity="0.1"/>
    </g>
    <g id="freepik--Connection--inject-393" transform="translate(86.527 185.817)">
      <path id="Path_2082" data-name="Path 2082" d="M153.476,308.38a.326.326,0,0,1-.107,0l-.1-.062a.3.3,0,0,1-.056-.09.26.26,0,0,1,0-.107.288.288,0,0,1,.079-.2.3.3,0,0,1,.311-.062.259.259,0,0,1,.09.062.237.237,0,0,1,.062.09.254.254,0,0,1,0,.113.26.26,0,0,1,0,.107.238.238,0,0,1-.062.09.282.282,0,0,1-.2.085Z" transform="translate(-153.193 -295.834)" fill="#407bff"/>
      <path id="Path_2083" data-name="Path 2083" d="M153.18,304.412a.282.282,0,0,1,.282-.282h0a.282.282,0,0,1,.282.282h0a.282.282,0,0,1-.282.282h0A.282.282,0,0,1,153.18,304.412Z" transform="translate(-153.18 -294.222)" fill="#407bff"/>
      <path id="Path_2084" data-name="Path 2084" d="M153.475,301.036a.288.288,0,0,1-.2-.085.248.248,0,0,1-.056-.09.232.232,0,0,1,0-.107.282.282,0,0,1,.079-.2.288.288,0,0,1,.311-.062.26.26,0,0,1,.09.062.2.2,0,0,1,.062.09.243.243,0,0,1,0,.107.232.232,0,0,1,0,.107.3.3,0,0,1-.153.152.243.243,0,0,1-.13.023Z" transform="translate(-153.193 -292.63)" fill="#407bff"/>
      <path id="Path_2085" data-name="Path 2085" d="M207.063,300.782a.282.282,0,0,1,.277-.282h0a.282.282,0,0,1,.282.282h0a.282.282,0,0,1-.282.282h0a.277.277,0,0,1-.277-.282Zm-2.259,0a.288.288,0,0,1,.282-.282h0a.282.282,0,0,1,.282.282h0a.282.282,0,0,1-.282.282h0a.282.282,0,0,1-.294-.282Zm-2.259,0a.282.282,0,0,1,.282-.282h0a.288.288,0,0,1,.282.282h0a.282.282,0,0,1-.282.282h0a.282.282,0,0,1-.3-.282Zm-2.259,0a.282.282,0,0,1,.282-.282h0a.282.282,0,0,1,.277.282h0a.277.277,0,0,1-.277.282h0a.282.282,0,0,1-.305-.282Zm-2.259,0a.288.288,0,0,1,.282-.282h0a.282.282,0,0,1,.282.282h0a.282.282,0,0,1-.282.282h0a.282.282,0,0,1-.316-.282Zm-2.259,0a.282.282,0,0,1,.282-.282h0a.288.288,0,0,1,.282.282h0a.282.282,0,0,1-.282.282h0a.282.282,0,0,1-.322-.282Zm-2.259,0a.282.282,0,0,1,.282-.282h0a.288.288,0,0,1,.282.282h0a.282.282,0,0,1-.282.282h0a.282.282,0,0,1-.328-.282Zm-2.259,0a.288.288,0,0,1,.282-.282h0a.282.282,0,0,1,.282.282h0a.282.282,0,0,1-.282.282h0a.282.282,0,0,1-.339-.282Zm-2.259,0a.282.282,0,0,1,.282-.282h0a.288.288,0,0,1,.282.282h0a.282.282,0,0,1-.282.282h0a.282.282,0,0,1-.345-.282Zm-2.259,0a.282.282,0,0,1,.282-.282h0a.288.288,0,0,1,.282.282h0a.282.282,0,0,1-.282.282h0a.282.282,0,0,1-.35-.282Zm-2.259,0a.288.288,0,0,1,.282-.282h0a.282.282,0,0,1,.282.282h0a.282.282,0,0,1-.282.282h0a.282.282,0,0,1-.362-.282Zm-2.259,0a.282.282,0,0,1,.282-.282h0a.288.288,0,0,1,.282.282h0a.282.282,0,0,1-.282.282h0a.282.282,0,0,1-.367-.282Zm-2.259,0a.288.288,0,0,1,.288-.282h0a.288.288,0,0,1,.282.282h0a.282.282,0,0,1-.282.282h0a.282.282,0,0,1-.384-.282Zm-2.259,0a.288.288,0,0,1,.282-.282h0a.282.282,0,0,1,.282.282h0a.282.282,0,0,1-.282.282h0a.282.282,0,0,1-.384-.282Zm-2.259,0a.282.282,0,0,1,.282-.282h0a.282.282,0,0,1,.282.282h0a.282.282,0,0,1-.282.282h0a.282.282,0,0,1-.39-.282Zm-2.259,0a.288.288,0,0,1,.282-.282h0a.288.288,0,0,1,.288.283h0a.282.282,0,0,1-.288.282h0a.282.282,0,0,1-.4-.282Zm-2.259,0a.282.282,0,0,1,.282-.282h0a.282.282,0,0,1,.282.282h0a.282.282,0,0,1-.282.282h0a.282.282,0,0,1-.407-.282Zm-2.259,0a.282.282,0,0,1,.282-.282h0a.288.288,0,0,1,.282.282h0a.282.282,0,0,1-.282.282h0a.282.282,0,0,1-.412-.282Zm-2.259,0a.288.288,0,0,1,.282-.282h0a.282.282,0,0,1,.282.282h0a.282.282,0,0,1-.282.282h0a.282.282,0,0,1-.424-.282Zm-2.259,0a.288.288,0,0,1,.282-.282h0a.282.282,0,0,1,.282.282h0a.282.282,0,0,1-.282.282h0a.282.282,0,0,1-.429-.282Zm-2.259,0a.282.282,0,0,1,.282-.282h0a.288.288,0,0,1,.282.282h0a.282.282,0,0,1-.282.282h0a.282.282,0,0,1-.435-.282Zm-2.259,0a.282.282,0,0,1,.277-.282h0a.282.282,0,0,1,.282.282h0a.282.282,0,0,1-.282.282h0a.277.277,0,0,1-.435-.282Zm-2.259,0a.288.288,0,0,1,.282-.282h0a.282.282,0,0,1,.282.282h0a.282.282,0,0,1-.282.282h0a.282.282,0,0,1-.452-.282Z" transform="translate(-154.92 -292.642)" fill="#407bff"/>
      <path id="Path_2086" data-name="Path 2086" d="M249.795,301.053a.231.231,0,0,1-.107,0,.249.249,0,0,1-.09-.056.254.254,0,0,1-.062-.1.232.232,0,0,1,0-.107.243.243,0,0,1,0-.107.237.237,0,0,1,.062-.09.259.259,0,0,1,.09-.062.283.283,0,0,1,.215,0,.26.26,0,0,1,.09.062.266.266,0,0,1,.085.2.232.232,0,0,1,0,.107.254.254,0,0,1-.062.1.249.249,0,0,1-.09.056A.232.232,0,0,1,249.795,301.053Z" transform="translate(-195.104 -292.647)" fill="#407bff"/>
      <path id="Path_2087" data-name="Path 2087" d="M249.795,301.053a.231.231,0,0,1-.107,0,.249.249,0,0,1-.09-.056.254.254,0,0,1-.062-.1.232.232,0,0,1,0-.107.243.243,0,0,1,0-.107.237.237,0,0,1,.062-.09.259.259,0,0,1,.09-.062.283.283,0,0,1,.215,0,.26.26,0,0,1,.09.062.266.266,0,0,1,.085.2.232.232,0,0,1,0,.107.254.254,0,0,1-.062.1.249.249,0,0,1-.09.056A.232.232,0,0,1,249.795,301.053Z" transform="translate(-195.104 -292.647)" fill="#407bff"/>
      <path id="Path_2088" data-name="Path 2088" d="M249.5,294.263a.282.282,0,0,1,.282-.282h0a.282.282,0,0,1,.282.282h0a.282.282,0,0,1-.282.282h0A.282.282,0,0,1,249.5,294.263Zm0-1.96a.282.282,0,0,1,.282-.282h0a.282.282,0,0,1,.282.282h0a.282.282,0,0,1-.282.282h0a.282.282,0,0,1-.282-.3Zm0-1.96a.282.282,0,0,1,.282-.282h0a.282.282,0,0,1,.282.282h0a.282.282,0,0,1-.282.282h0A.282.282,0,0,1,249.5,290.342Z" transform="translate(-195.091 -288.099)" fill="#407bff"/>
      <path id="Path_2089" data-name="Path 2089" d="M249.795,287.154a.266.266,0,0,1-.2-.085.2.2,0,0,1-.062-.09.243.243,0,0,1,0-.107.231.231,0,0,1,0-.107.22.22,0,0,1,.062-.1.248.248,0,0,1,.09-.056.26.26,0,0,1,.215,0,.248.248,0,0,1,.09.056.253.253,0,0,1,.062.1.232.232,0,0,1,0,.107.243.243,0,0,1,0,.107.2.2,0,0,1-.062.09A.266.266,0,0,1,249.795,287.154Z" transform="translate(-195.104 -286.589)" fill="#407bff"/>
      <path id="Path_2090" data-name="Path 2090" d="M249.795,301.053a.231.231,0,0,1-.107,0,.249.249,0,0,1-.09-.056.254.254,0,0,1-.062-.1.232.232,0,0,1,0-.107.243.243,0,0,1,0-.107.237.237,0,0,1,.062-.09.259.259,0,0,1,.09-.062.283.283,0,0,1,.215,0,.26.26,0,0,1,.09.062.266.266,0,0,1,.085.2.232.232,0,0,1,0,.107.254.254,0,0,1-.062.1.249.249,0,0,1-.09.056A.232.232,0,0,1,249.795,301.053Z" transform="translate(-195.104 -292.647)" fill="#407bff"/>
      <path id="Path_2091" data-name="Path 2091" d="M249.5,304.412a.288.288,0,0,1,.282-.282h0a.282.282,0,0,1,.282.282h0a.282.282,0,0,1-.282.282h0A.282.282,0,0,1,249.5,304.412Z" transform="translate(-195.092 -294.222)" fill="#407bff"/>
      <path id="Path_2092" data-name="Path 2092" d="M249.795,308.365a.288.288,0,0,1-.2-.085.237.237,0,0,1-.062-.09.254.254,0,0,1,0-.113.243.243,0,0,1,0-.107.237.237,0,0,1,.062-.09.288.288,0,0,1,.4,0,.238.238,0,0,1,.062.09.243.243,0,0,1,0,.107.254.254,0,0,1,0,.113.237.237,0,0,1-.062.09A.288.288,0,0,1,249.795,308.365Z" transform="translate(-195.104 -295.819)" fill="#407bff"/>
      <path id="Path_2093" data-name="Path 2093" d="M346.1,308.364a.288.288,0,0,1-.2-.085.311.311,0,0,1-.085-.2.282.282,0,0,1,.48-.2.238.238,0,0,1,.062.09.243.243,0,0,1,0,.107.288.288,0,0,1-.282.288Z" transform="translate(-237.004 -295.817)" fill="#407bff"/>
      <path id="Path_2094" data-name="Path 2094" d="M345.82,304.412a.288.288,0,0,1,.282-.282h0a.282.282,0,0,1,.282.282h0a.282.282,0,0,1-.282.282h0A.282.282,0,0,1,345.82,304.412Z" transform="translate(-237.004 -294.222)" fill="#407bff"/>
      <path id="Path_2095" data-name="Path 2095" d="M346.1,301.038a.283.283,0,0,1-.2-.079.311.311,0,0,1-.085-.2.288.288,0,0,1,.085-.2.282.282,0,0,1,.4,0,.265.265,0,0,1,.085.2.288.288,0,0,1-.085.2A.283.283,0,0,1,346.1,301.038Z" transform="translate(-237.004 -292.632)" fill="#407bff"/>
      <path id="Path_2096" data-name="Path 2096" d="M303.383,300.782a.282.282,0,0,1,.282-.282h0a.282.282,0,0,1,.282.282h0a.282.282,0,0,1-.282.282h0A.282.282,0,0,1,303.383,300.782Zm-2.259,0a.283.283,0,0,1,.288-.282h0a.282.282,0,0,1,.282.282h0a.282.282,0,0,1-.282.282h0a.282.282,0,0,1-.3-.282Zm-2.259,0a.282.282,0,0,1,.282-.282h0a.282.282,0,0,1,.282.282h0a.282.282,0,0,1-.282.282h0a.282.282,0,0,1-.3-.282Zm-2.259,0a.282.282,0,0,1,.282-.282h0a.282.282,0,0,1,.282.282h0a.282.282,0,0,1-.282.282h0a.282.282,0,0,1-.305-.282Zm-2.259,0a.282.282,0,0,1,.282-.282h0a.282.282,0,0,1,.288.282h0a.282.282,0,0,1-.288.282h0a.283.283,0,0,1-.316-.282Zm-2.259,0a.282.282,0,0,1,.282-.282h0a.282.282,0,0,1,.282.282h0a.282.282,0,0,1-.282.282h0a.282.282,0,0,1-.322-.282Zm-2.259,0a.282.282,0,0,1,.282-.282h0a.282.282,0,0,1,.282.282h0a.282.282,0,0,1-.282.282h0a.282.282,0,0,1-.328-.282Zm-2.259,0a.282.282,0,0,1,.282-.282h0a.282.282,0,0,1,.288.282h0a.282.282,0,0,1-.288.282h0a.282.282,0,0,1-.339-.282Zm-2.259,0a.282.282,0,0,1,.282-.282h0a.282.282,0,0,1,.282.282h0a.282.282,0,0,1-.282.282h0a.282.282,0,0,1-.345-.282Zm-2.259,0a.282.282,0,0,1,.282-.282h0a.282.282,0,0,1,.282.282h0a.282.282,0,0,1-.282.282h0a.282.282,0,0,1-.35-.282Zm-2.259,0a.282.282,0,0,1,.282-.282h0a.282.282,0,0,1,.282.282h0a.282.282,0,0,1-.282.282h0a.282.282,0,0,1-.362-.282Zm-2.259,0a.282.282,0,0,1,.282-.282h0a.282.282,0,0,1,.282.282h0a.282.282,0,0,1-.282.282h0a.282.282,0,0,1-.367-.282Zm-2.259,0a.282.282,0,0,1,.282-.282h0a.282.282,0,0,1,.282.282h0a.282.282,0,0,1-.282.282h0a.282.282,0,0,1-.373-.282Zm-2.259,0a.282.282,0,0,1,.282-.282h0a.282.282,0,0,1,.282.282h0a.282.282,0,0,1-.282.282h0a.282.282,0,0,1-.384-.282Zm-2.259,0a.282.282,0,0,1,.282-.282h0a.282.282,0,0,1,.282.282h0a.282.282,0,0,1-.282.282h0a.282.282,0,0,1-.39-.282Zm-2.259,0a.282.282,0,0,1,.282-.282h0a.282.282,0,0,1,.282.282h0a.282.282,0,0,1-.282.282h0a.282.282,0,0,1-.4-.282Zm-2.259,0a.282.282,0,0,1,.282-.282h0a.282.282,0,0,1,.288.282h0a.282.282,0,0,1-.288.282h0a.282.282,0,0,1-.407-.282Zm-2.259,0a.282.282,0,0,1,.282-.282h0a.282.282,0,0,1,.282.282h0a.282.282,0,0,1-.282.282h0a.282.282,0,0,1-.412-.282Zm-2.259,0a.282.282,0,0,1,.282-.282h0a.282.282,0,0,1,.282.282h0a.282.282,0,0,1-.282.282h0a.282.282,0,0,1-.418-.282Zm-2.259,0a.282.282,0,0,1,.282-.282h0a.282.282,0,0,1,.288.282h0a.282.282,0,0,1-.288.282h0a.282.282,0,0,1-.429-.282Zm-2.259,0a.282.282,0,0,1,.282-.282h0a.282.282,0,0,1,.282.282h0a.282.282,0,0,1-.282.282h0a.282.282,0,0,1-.435-.282Zm-2.259,0a.282.282,0,0,1,.282-.282h0a.282.282,0,0,1,.282.282h0a.282.282,0,0,1-.282.282h0a.282.282,0,0,1-.441-.282Zm-2.259,0a.282.282,0,0,1,.282-.282h0a.282.282,0,0,1,.288.282h0a.282.282,0,0,1-.288.282h0a.282.282,0,0,1-.452-.282Z" transform="translate(-196.831 -292.642)" fill="#407bff"/>
      <path id="Path_2097" data-name="Path 2097" d="M249.795,301.053a.231.231,0,0,1-.107,0,.249.249,0,0,1-.09-.056.254.254,0,0,1-.062-.1.232.232,0,0,1,0-.107.243.243,0,0,1,0-.107.237.237,0,0,1,.062-.09.259.259,0,0,1,.09-.062.283.283,0,0,1,.215,0,.26.26,0,0,1,.09.062.266.266,0,0,1,.085.2.232.232,0,0,1,0,.107.254.254,0,0,1-.062.1.249.249,0,0,1-.09.056A.232.232,0,0,1,249.795,301.053Z" transform="translate(-195.104 -292.647)" fill="#407bff"/>
    </g>
    <g id="freepik--Cloud--inject-393" transform="translate(42.91 79.752)">
      <path id="Path_2098" data-name="Path 2098" d="M282.147,153.859A33.841,33.841,0,0,0,248.306,120.3h-13.98a40.885,40.885,0,0,0-35.457-20.51H171.687v10.377a40.9,40.9,0,0,0-12.721,21.64,35.2,35.2,0,0,0,2.271,70.343H273.262a24.956,24.956,0,0,0,8.885-48.279Z" transform="translate(-97.669 -99.242)" fill="#407bff"/>
      <path id="Path_2099" data-name="Path 2099" d="M282.147,153.859A33.841,33.841,0,0,0,248.306,120.3h-13.98a40.885,40.885,0,0,0-35.457-20.51H171.687v10.377a40.9,40.9,0,0,0-12.721,21.64,35.2,35.2,0,0,0,2.271,70.343H273.262a24.956,24.956,0,0,0,8.885-48.279Z" transform="translate(-97.669 -99.242)" fill="#fff" opacity="0.7"/>
      <path id="Path_2100" data-name="Path 2100" d="M233.233,153.855a33.853,33.853,0,0,0-46.534-31.1,40.9,40.9,0,0,0-76.687,9.038,35.2,35.2,0,1,0,2.311,70.361l112.024-.006a24.956,24.956,0,0,0,8.885-48.279Z" transform="translate(-75.964 -99.237)" fill="#407bff"/>
      <g id="Group_1560" data-name="Group 1560" transform="translate(0 0.542)" clip-path="url(#clip-path)">
        <path id="Path_2101" data-name="Path 2101" d="M281.409,153.857a33.853,33.853,0,0,0-46.511-31.1,40.908,40.908,0,0,0-76.692,9.038,35.2,35.2,0,1,0,2.294,70.361l112.024-.007a24.956,24.956,0,0,0,8.885-48.279Z" transform="translate(-96.931 -99.782)" opacity="0.1"/>
      </g>
      <path id="Path_2103" data-name="Path 2103" d="M224.784,202.292H112.759a35.751,35.751,0,0,1-2.734-71.4,41.463,41.463,0,0,1,77.421-9.253,34.395,34.395,0,0,1,46.794,31.418,25.509,25.509,0,0,1-9.456,49.234ZM150.419,99.916A40.586,40.586,0,0,0,111.031,131.5a.565.565,0,0,1-.5.429,34.655,34.655,0,0,0,2.259,69.236h112a24.408,24.408,0,0,0,8.671-47.217.565.565,0,0,1-.356-.508,33.327,33.327,0,0,0-45.754-30.6.565.565,0,0,1-.7-.265A40.106,40.106,0,0,0,150.419,99.916Z" transform="translate(-76.401 -98.819)" fill="#407bff"/>
      <path id="Path_2104" data-name="Path 2104" d="M224.784,202.292H112.759a35.751,35.751,0,0,1-2.734-71.4,41.463,41.463,0,0,1,77.421-9.253,34.395,34.395,0,0,1,46.794,31.418,25.509,25.509,0,0,1-9.456,49.234ZM150.419,99.916A40.586,40.586,0,0,0,111.031,131.5a.565.565,0,0,1-.5.429,34.655,34.655,0,0,0,2.259,69.236h112a24.408,24.408,0,0,0,8.671-47.217.565.565,0,0,1-.356-.508,33.327,33.327,0,0,0-45.754-30.6.565.565,0,0,1-.7-.265A40.106,40.106,0,0,0,150.419,99.916Z" transform="translate(-76.401 -98.819)" fill="#fff" opacity="0.7"/>
      <path id="Path_2105" data-name="Path 2105" d="M2.514,0h8.97V49.369H2.514A2.514,2.514,0,0,1,0,46.856V2.485A2.514,2.514,0,0,1,2.514,0Z" transform="translate(71.222 102.343) rotate(180)" fill="#e0e0e0"/>
      <rect id="Rectangle_125" data-name="Rectangle 125" width="24.391" height="49.375" rx="4.45" transform="translate(38.731 52.974)" fill="#fff"/>
      <rect id="Rectangle_126" data-name="Rectangle 126" width="24.391" height="0.458" transform="translate(38.731 92.102)" fill="#e0e0e0"/>
      <rect id="Rectangle_127" data-name="Rectangle 127" width="24.391" height="0.458" transform="translate(38.731 82.319)" fill="#e0e0e0"/>
      <rect id="Rectangle_128" data-name="Rectangle 128" width="24.391" height="0.458" transform="translate(38.731 72.541)" fill="#e0e0e0"/>
      <rect id="Rectangle_129" data-name="Rectangle 129" width="24.391" height="0.458" transform="translate(38.731 62.757)" fill="#e0e0e0"/>
      <path id="Path_2106" data-name="Path 2106" d="M159.071,204.3h-8.157a.932.932,0,0,0-.915.96h0a.932.932,0,0,0,.932.932h8.157a.932.932,0,0,0,.932-.932h0a.932.932,0,0,0-.949-.96Z" transform="translate(-108.179 -144.717)" fill="#407bff" opacity="0.6"/>
      <path id="Path_2107" data-name="Path 2107" d="M159.059,200H150.9a.932.932,0,0,0-.932.932h0a.932.932,0,0,0,.932.932h8.157a.932.932,0,0,0,.932-.932h0a.932.932,0,0,0-.932-.932Z" transform="translate(-108.167 -142.846)" fill="#407bff" opacity="0.6"/>
      <path id="Path_2108" data-name="Path 2108" d="M159.059,195.73H150.9a.932.932,0,0,0-.932.932h0a.932.932,0,0,0,.932.932h8.157a.932.932,0,0,0,.932-.932h0A.932.932,0,0,0,159.059,195.73Z" transform="translate(-108.167 -140.988)" fill="#407bff" opacity="0.6"/>
      <rect id="Rectangle_130" data-name="Rectangle 130" width="3.406" height="1.864" transform="translate(56.089 61.441) rotate(180)" fill="#ebebeb"/>
      <rect id="Rectangle_131" data-name="Rectangle 131" width="3.406" height="1.864" transform="translate(56.089 59.023) rotate(180)" fill="#407bff"/>
      <rect id="Rectangle_132" data-name="Rectangle 132" width="3.406" height="1.864" transform="translate(56.089 56.6) rotate(180)" fill="#ebebeb"/>
      <rect id="Rectangle_133" data-name="Rectangle 133" width="3.406" height="1.864" transform="translate(60.049 61.441) rotate(180)" fill="#ebebeb"/>
      <rect id="Rectangle_134" data-name="Rectangle 134" width="3.406" height="1.864" transform="translate(60.049 59.023) rotate(180)" fill="#ebebeb"/>
      <rect id="Rectangle_135" data-name="Rectangle 135" width="3.406" height="1.864" transform="translate(60.049 56.6) rotate(180)" fill="#407bff"/>
      <path id="Path_2109" data-name="Path 2109" d="M159.059,221.62H150.9a.932.932,0,0,0-.932.932h0a.932.932,0,0,0,.932.932h8.157a.932.932,0,0,0,.932-.932h0A.932.932,0,0,0,159.059,221.62Z" transform="translate(-108.167 -152.254)" fill="#ebebeb"/>
      <path id="Path_2110" data-name="Path 2110" d="M159.072,217.33h-8.157a.932.932,0,0,0-.915.943h0a.932.932,0,0,0,.932.932h8.157a.932.932,0,0,0,.932-.932h0a.932.932,0,0,0-.949-.943Z" transform="translate(-108.18 -150.387)" fill="#407bff" opacity="0.6"/>
      <path id="Path_2111" data-name="Path 2111" d="M159.072,213.05h-8.157a.932.932,0,0,0-.915.932h0a.932.932,0,0,0,.932.932h8.157a.932.932,0,0,0,.932-.932h0a.932.932,0,0,0-.949-.932Z" transform="translate(-108.18 -148.525)" fill="#407bff" opacity="0.6"/>
      <rect id="Rectangle_136" data-name="Rectangle 136" width="3.406" height="1.864" transform="translate(56.089 71.225) rotate(180)" fill="#ebebeb"/>
      <rect id="Rectangle_137" data-name="Rectangle 137" width="3.406" height="1.864" transform="translate(56.089 68.807) rotate(180)" fill="#ebebeb"/>
      <rect id="Rectangle_138" data-name="Rectangle 138" width="3.406" height="1.864" transform="translate(56.089 66.384) rotate(180)" fill="#407bff"/>
      <rect id="Rectangle_139" data-name="Rectangle 139" width="3.406" height="1.864" transform="translate(60.049 71.225) rotate(180)" fill="#ebebeb"/>
      <rect id="Rectangle_140" data-name="Rectangle 140" width="3.406" height="1.864" transform="translate(60.049 68.807) rotate(180)" fill="#ebebeb"/>
      <rect id="Rectangle_141" data-name="Rectangle 141" width="3.406" height="1.864" transform="translate(60.049 66.384) rotate(180)" fill="#ebebeb"/>
      <path id="Path_2112" data-name="Path 2112" d="M159.059,238.94H150.9a.932.932,0,0,0-.932.932h0a.932.932,0,0,0,.932.932h8.157a.932.932,0,0,0,.932-.932h0a.932.932,0,0,0-.932-.932Z" transform="translate(-108.167 -159.79)" fill="#407bff" opacity="0.6"/>
      <path id="Path_2113" data-name="Path 2113" d="M159.072,234.65h-8.157a.932.932,0,0,0-.915.932h0a.932.932,0,0,0,.932.932h8.157a.932.932,0,0,0,.932-.932h0a.932.932,0,0,0-.949-.932Z" transform="translate(-108.18 -157.923)" fill="#407bff" opacity="0.6"/>
      <path id="Path_2114" data-name="Path 2114" d="M159.072,230.37h-8.157a.932.932,0,0,0-.915.921h0a.932.932,0,0,0,.932.932h8.157a.932.932,0,0,0,.932-.932h0a.932.932,0,0,0-.949-.921Z" transform="translate(-108.18 -156.061)" fill="#407bff" opacity="0.6"/>
      <rect id="Rectangle_142" data-name="Rectangle 142" width="3.406" height="1.864" transform="translate(56.089 81.008) rotate(180)" fill="#ebebeb"/>
      <rect id="Rectangle_143" data-name="Rectangle 143" width="3.406" height="1.864" transform="translate(56.089 78.59) rotate(180)" fill="#407bff"/>
      <rect id="Rectangle_144" data-name="Rectangle 144" width="3.406" height="1.864" transform="translate(56.089 76.167) rotate(180)" fill="#ebebeb"/>
      <rect id="Rectangle_145" data-name="Rectangle 145" width="3.406" height="1.864" transform="translate(60.049 81.008) rotate(180)" fill="#ebebeb"/>
      <rect id="Rectangle_146" data-name="Rectangle 146" width="3.406" height="1.864" transform="translate(60.049 78.59) rotate(180)" fill="#ebebeb"/>
      <rect id="Rectangle_147" data-name="Rectangle 147" width="3.406" height="1.864" transform="translate(60.049 76.167) rotate(180)" fill="#407bff"/>
      <path id="Path_2115" data-name="Path 2115" d="M159.059,256.26H150.9a.932.932,0,0,0-.932.932h0a.932.932,0,0,0,.932.932h8.157a.932.932,0,0,0,.932-.932h0A.932.932,0,0,0,159.059,256.26Z" transform="translate(-108.167 -167.327)" fill="#407bff" opacity="0.6"/>
      <rect id="Rectangle_148" data-name="Rectangle 148" width="10.021" height="1.864" rx="0.932" transform="translate(41.803 86.51)" fill="#407bff" opacity="0.6"/>
      <path id="Path_2116" data-name="Path 2116" d="M159.059,247.69H150.9a.926.926,0,0,0-.932.926h0a.932.932,0,0,0,.932.932h8.157a.932.932,0,0,0,.932-.932h0a.926.926,0,0,0-.932-.926Z" transform="translate(-108.167 -163.598)" fill="#407bff" opacity="0.6"/>
      <rect id="Rectangle_149" data-name="Rectangle 149" width="3.406" height="1.864" transform="translate(56.089 90.792) rotate(180)" fill="#ebebeb"/>
      <rect id="Rectangle_150" data-name="Rectangle 150" width="3.406" height="1.864" transform="translate(56.089 88.374) rotate(180)" fill="#407bff"/>
      <rect id="Rectangle_151" data-name="Rectangle 151" width="3.406" height="1.864" transform="translate(56.089 85.951) rotate(180)" fill="#ebebeb"/>
      <rect id="Rectangle_152" data-name="Rectangle 152" width="3.406" height="1.864" transform="translate(60.049 90.792) rotate(180)" fill="#407bff"/>
      <rect id="Rectangle_153" data-name="Rectangle 153" width="3.406" height="1.864" transform="translate(60.049 88.374) rotate(180)" fill="#ebebeb"/>
      <rect id="Rectangle_154" data-name="Rectangle 154" width="3.406" height="1.864" transform="translate(60.049 85.951) rotate(180)" fill="#407bff"/>
      <path id="Path_2117" data-name="Path 2117" d="M159.059,273.58H150.9a.932.932,0,0,0-.932.932h0a.926.926,0,0,0,.932.926h8.157a.926.926,0,0,0,.932-.926h0A.932.932,0,0,0,159.059,273.58Z" transform="translate(-108.167 -174.863)" fill="#407bff" opacity="0.6"/>
      <path id="Path_2118" data-name="Path 2118" d="M159.059,269.29H150.9a.932.932,0,0,0-.932.932h0a.932.932,0,0,0,.932.932h8.157a.932.932,0,0,0,.932-.932h0A.932.932,0,0,0,159.059,269.29Z" transform="translate(-108.167 -172.997)" fill="#407bff" opacity="0.6"/>
      <path id="Path_2119" data-name="Path 2119" d="M159.059,265H150.9a.932.932,0,0,0-.932.932h0a.932.932,0,0,0,.932.932h8.157a.932.932,0,0,0,.932-.932h0A.932.932,0,0,0,159.059,265Z" transform="translate(-108.167 -171.13)" fill="#407bff" opacity="0.6"/>
      <rect id="Rectangle_155" data-name="Rectangle 155" width="3.406" height="1.864" transform="translate(56.089 100.575) rotate(180)" fill="#407bff"/>
      <rect id="Rectangle_156" data-name="Rectangle 156" width="3.406" height="1.864" transform="translate(56.089 98.157) rotate(180)" fill="#ebebeb"/>
      <rect id="Rectangle_157" data-name="Rectangle 157" width="3.406" height="1.864" transform="translate(56.089 95.74) rotate(180)" fill="#ebebeb"/>
      <rect id="Rectangle_158" data-name="Rectangle 158" width="3.406" height="1.864" transform="translate(60.049 100.575) rotate(180)" fill="#ebebeb"/>
      <rect id="Rectangle_159" data-name="Rectangle 159" width="3.406" height="1.864" transform="translate(60.049 98.157) rotate(180)" fill="#ebebeb"/>
      <rect id="Rectangle_160" data-name="Rectangle 160" width="3.406" height="1.864" transform="translate(60.049 95.74) rotate(180)" fill="#407bff"/>
      <path id="Path_2120" data-name="Path 2120" d="M3.694,0H16.935V72.687H3.694A3.694,3.694,0,0,1,0,68.993V3.7A3.694,3.694,0,0,1,3.694,0Z" transform="translate(111.796 102.349) rotate(180)" fill="#e0e0e0"/>
      <rect id="Rectangle_161" data-name="Rectangle 161" width="35.903" height="72.687" rx="6.54" transform="translate(63.963 29.656)" fill="#fff"/>
      <rect id="Rectangle_162" data-name="Rectangle 162" width="35.903" height="0.678" transform="translate(63.963 87.267)" fill="#e0e0e0"/>
      <rect id="Rectangle_163" data-name="Rectangle 163" width="35.903" height="0.672" transform="translate(63.963 72.868)" fill="#e0e0e0"/>
      <rect id="Rectangle_164" data-name="Rectangle 164" width="35.903" height="0.672" transform="translate(63.963 58.464)" fill="#e0e0e0"/>
      <rect id="Rectangle_165" data-name="Rectangle 165" width="35.903" height="0.678" transform="translate(63.963 44.06)" fill="#e0e0e0"/>
      <path id="Path_2121" data-name="Path 2121" d="M210.592,168.55H198.583a1.373,1.373,0,0,0-1.373,1.373h0a1.373,1.373,0,0,0,1.373,1.373h12.009a1.373,1.373,0,0,0,1.373-1.373h0A1.373,1.373,0,0,0,210.592,168.55Z" transform="translate(-128.722 -129.161)" fill="#407bff" opacity="0.6"/>
      <path id="Path_2122" data-name="Path 2122" d="M210.592,162.24H198.583a1.373,1.373,0,0,0-1.373,1.373h0a1.373,1.373,0,0,0,1.373,1.373h12.009a1.373,1.373,0,0,0,1.373-1.373h0A1.373,1.373,0,0,0,210.592,162.24Z" transform="translate(-128.722 -126.416)" fill="#407bff" opacity="0.6"/>
      <path id="Path_2123" data-name="Path 2123" d="M210.592,155.93H198.583a1.373,1.373,0,0,0-1.373,1.373h0a1.373,1.373,0,0,0,1.373,1.373h12.009a1.373,1.373,0,0,0,1.373-1.373h0A1.373,1.373,0,0,0,210.592,155.93Z" transform="translate(-128.722 -123.67)" fill="#407bff" opacity="0.6"/>
      <rect id="Rectangle_166" data-name="Rectangle 166" width="5.016" height="2.745" transform="translate(89.512 42.134) rotate(180)" fill="#ebebeb"/>
      <rect id="Rectangle_167" data-name="Rectangle 167" width="5.016" height="2.745" transform="translate(89.512 38.57) rotate(180)" fill="#407bff"/>
      <rect id="Rectangle_168" data-name="Rectangle 168" width="5.016" height="2.745" transform="translate(89.512 35.005) rotate(180)" fill="#ebebeb"/>
      <rect id="Rectangle_169" data-name="Rectangle 169" width="5.016" height="2.745" transform="translate(95.347 42.134) rotate(180)" fill="#ebebeb"/>
      <rect id="Rectangle_170" data-name="Rectangle 170" width="5.016" height="2.745" transform="translate(95.347 38.57) rotate(180)" fill="#ebebeb"/>
      <rect id="Rectangle_171" data-name="Rectangle 171" width="5.016" height="2.745" transform="translate(95.347 35.005) rotate(180)" fill="#407bff"/>
      <path id="Path_2124" data-name="Path 2124" d="M210.592,194.05H198.583a1.373,1.373,0,0,0-1.373,1.373h0a1.373,1.373,0,0,0,1.373,1.373h12.009a1.373,1.373,0,0,0,1.373-1.373h0A1.373,1.373,0,0,0,210.592,194.05Z" transform="translate(-128.722 -140.257)" fill="#407bff" opacity="0.6"/>
      <path id="Path_2125" data-name="Path 2125" d="M210.592,187.74H198.583a1.373,1.373,0,0,0-1.373,1.373h0a1.373,1.373,0,0,0,1.373,1.373h12.009a1.373,1.373,0,0,0,1.373-1.373h0a1.373,1.373,0,0,0-1.373-1.373Z" transform="translate(-128.722 -137.512)" fill="#407bff" opacity="0.6"/>
      <path id="Path_2126" data-name="Path 2126" d="M210.592,181.43H198.583a1.373,1.373,0,0,0-1.373,1.373h0a1.373,1.373,0,0,0,1.373,1.373h12.009a1.373,1.373,0,0,0,1.373-1.373h0A1.373,1.373,0,0,0,210.592,181.43Z" transform="translate(-128.722 -134.766)" fill="#407bff" opacity="0.6"/>
      <rect id="Rectangle_172" data-name="Rectangle 172" width="5.016" height="2.745" transform="translate(89.512 56.532) rotate(180)" fill="#ebebeb"/>
      <rect id="Rectangle_173" data-name="Rectangle 173" width="5.016" height="2.745" transform="translate(89.512 52.974) rotate(180)" fill="#ebebeb"/>
      <rect id="Rectangle_174" data-name="Rectangle 174" width="5.016" height="2.745" transform="translate(89.512 49.409) rotate(180)" fill="#407bff"/>
      <rect id="Rectangle_175" data-name="Rectangle 175" width="5.016" height="2.745" transform="translate(95.347 56.532) rotate(180)" fill="#407bff"/>
      <rect id="Rectangle_176" data-name="Rectangle 176" width="5.016" height="2.745" transform="translate(95.347 52.974) rotate(180)" fill="#ebebeb"/>
      <rect id="Rectangle_177" data-name="Rectangle 177" width="5.016" height="2.745" transform="translate(95.347 49.409) rotate(180)" fill="#407bff"/>
      <path id="Path_2127" data-name="Path 2127" d="M210.592,219.55H198.583a1.367,1.367,0,0,0-1.373,1.367h0a1.367,1.367,0,0,0,1.373,1.373h12.009a1.373,1.373,0,0,0,1.373-1.373h0a1.367,1.367,0,0,0-1.373-1.367Z" transform="translate(-128.722 -151.353)" fill="#407bff" opacity="0.6"/>
      <path id="Path_2128" data-name="Path 2128" d="M210.592,213.24H198.583a1.367,1.367,0,0,0-1.373,1.367h0a1.367,1.367,0,0,0,1.373,1.373h12.009a1.373,1.373,0,0,0,1.373-1.373h0a1.367,1.367,0,0,0-1.373-1.367Z" transform="translate(-128.722 -148.607)" fill="#407bff" opacity="0.6"/>
      <path id="Path_2129" data-name="Path 2129" d="M210.592,206.93H198.583a1.367,1.367,0,0,0-1.373,1.373h0a1.367,1.367,0,0,0,1.373,1.367h12.009a1.367,1.367,0,0,0,1.373-1.367h0A1.373,1.373,0,0,0,210.592,206.93Z" transform="translate(-128.722 -145.862)" fill="#407bff" opacity="0.6"/>
      <rect id="Rectangle_178" data-name="Rectangle 178" width="5.016" height="2.745" transform="translate(89.512 70.936) rotate(180)" fill="#407bff"/>
      <rect id="Rectangle_179" data-name="Rectangle 179" width="5.016" height="2.745" transform="translate(89.512 67.372) rotate(180)" fill="#ebebeb"/>
      <rect id="Rectangle_180" data-name="Rectangle 180" width="5.016" height="2.745" transform="translate(89.512 63.808) rotate(180)" fill="#ebebeb"/>
      <rect id="Rectangle_181" data-name="Rectangle 181" width="5.016" height="2.745" transform="translate(95.347 70.936) rotate(180)" fill="#ebebeb"/>
      <rect id="Rectangle_182" data-name="Rectangle 182" width="5.016" height="2.745" transform="translate(95.347 67.372) rotate(180)" fill="#ebebeb"/>
      <rect id="Rectangle_183" data-name="Rectangle 183" width="5.016" height="2.745" transform="translate(95.347 63.808) rotate(180)" fill="#407bff"/>
      <path id="Path_2130" data-name="Path 2130" d="M210.592,245H198.583a1.373,1.373,0,0,0-1.373,1.373h0a1.373,1.373,0,0,0,1.373,1.373h12.009a1.373,1.373,0,0,0,1.373-1.373h0A1.373,1.373,0,0,0,210.592,245Z" transform="translate(-128.722 -162.427)" fill="#407bff" opacity="0.6"/>
      <path id="Path_2131" data-name="Path 2131" d="M210.592,238.73H198.583a1.373,1.373,0,0,0-1.373,1.373h0a1.373,1.373,0,0,0,1.373,1.373h12.009a1.373,1.373,0,0,0,1.373-1.373h0a1.373,1.373,0,0,0-1.373-1.373Z" transform="translate(-128.722 -159.699)" fill="#ebebeb"/>
      <path id="Path_2132" data-name="Path 2132" d="M210.592,232.42H198.583a1.373,1.373,0,0,0-1.373,1.373h0a1.373,1.373,0,0,0,1.373,1.373h12.009a1.373,1.373,0,0,0,1.373-1.373h0A1.373,1.373,0,0,0,210.592,232.42Z" transform="translate(-128.722 -156.953)" fill="#407bff" opacity="0.6"/>
      <rect id="Rectangle_184" data-name="Rectangle 184" width="5.016" height="2.745" transform="translate(89.512 85.341) rotate(180)" fill="#ebebeb"/>
      <rect id="Rectangle_185" data-name="Rectangle 185" width="5.016" height="2.745" transform="translate(89.512 81.776) rotate(180)" fill="#407bff"/>
      <rect id="Rectangle_186" data-name="Rectangle 186" width="5.016" height="2.745" transform="translate(89.512 78.218) rotate(180)" fill="#ebebeb"/>
      <rect id="Rectangle_187" data-name="Rectangle 187" width="5.016" height="2.745" transform="translate(95.347 85.341) rotate(180)" fill="#407bff"/>
      <rect id="Rectangle_188" data-name="Rectangle 188" width="5.016" height="2.745" transform="translate(95.347 81.776) rotate(180)" fill="#407bff"/>
      <rect id="Rectangle_189" data-name="Rectangle 189" width="5.016" height="2.745" transform="translate(95.347 78.218) rotate(180)" fill="#ebebeb"/>
      <path id="Path_2133" data-name="Path 2133" d="M210.592,270.54H198.583a1.373,1.373,0,0,0-1.373,1.373h0a1.373,1.373,0,0,0,1.373,1.373h12.009a1.373,1.373,0,0,0,1.373-1.373h0A1.373,1.373,0,0,0,210.592,270.54Z" transform="translate(-128.722 -173.54)" fill="#407bff" opacity="0.6"/>
      <path id="Path_2134" data-name="Path 2134" d="M210.592,264.23H198.583a1.373,1.373,0,0,0-1.373,1.373h0a1.373,1.373,0,0,0,1.373,1.373h12.009a1.373,1.373,0,0,0,1.373-1.373h0A1.373,1.373,0,0,0,210.592,264.23Z" transform="translate(-128.722 -170.795)" fill="#407bff" opacity="0.6"/>
      <path id="Path_2135" data-name="Path 2135" d="M210.592,257.92H198.583a1.373,1.373,0,0,0-1.373,1.373h0a1.373,1.373,0,0,0,1.373,1.373h12.009a1.373,1.373,0,0,0,1.373-1.373h0A1.373,1.373,0,0,0,210.592,257.92Z" transform="translate(-128.722 -168.049)" fill="#407bff" opacity="0.6"/>
      <rect id="Rectangle_190" data-name="Rectangle 190" width="5.016" height="2.745" transform="translate(89.512 99.745) rotate(180)" fill="#ebebeb"/>
      <rect id="Rectangle_191" data-name="Rectangle 191" width="5.016" height="2.745" transform="translate(89.512 96.18) rotate(180)" fill="#ebebeb"/>
      <rect id="Rectangle_192" data-name="Rectangle 192" width="5.016" height="2.745" transform="translate(89.512 92.616) rotate(180)" fill="#ebebeb"/>
      <rect id="Rectangle_193" data-name="Rectangle 193" width="5.016" height="2.745" transform="translate(95.347 99.745) rotate(180)" fill="#ebebeb"/>
      <rect id="Rectangle_194" data-name="Rectangle 194" width="5.016" height="2.745" transform="translate(95.347 96.18) rotate(180)" fill="#ebebeb"/>
      <rect id="Rectangle_195" data-name="Rectangle 195" width="5.016" height="2.745" transform="translate(95.347 92.616) rotate(180)" fill="#407bff"/>
      <path id="Path_2136" data-name="Path 2136" d="M3.214,0H14.737V63.22H3.214A3.214,3.214,0,0,1,0,60.006V3.22A3.214,3.214,0,0,1,3.214,0Z" transform="translate(142.536 102.349) rotate(180)" fill="#e0e0e0"/>
      <rect id="Rectangle_196" data-name="Rectangle 196" width="31.226" height="63.22" rx="5.69" transform="translate(100.934 39.123)" fill="#fff"/>
      <rect id="Rectangle_197" data-name="Rectangle 197" width="31.226" height="0.587" transform="translate(100.934 89.233)" fill="#e0e0e0"/>
      <rect id="Rectangle_198" data-name="Rectangle 198" width="31.226" height="0.587" transform="translate(100.934 76.704)" fill="#e0e0e0"/>
      <rect id="Rectangle_199" data-name="Rectangle 199" width="31.226" height="0.587" transform="translate(100.934 64.181)" fill="#e0e0e0"/>
      <rect id="Rectangle_200" data-name="Rectangle 200" width="31.226" height="0.587" transform="translate(100.934 51.652)" fill="#e0e0e0"/>
      <path id="Path_2137" data-name="Path 2137" d="M273.252,183.07H262.8a1.192,1.192,0,0,0-1.192,1.192h0a1.192,1.192,0,0,0,1.192,1.192h10.45a1.192,1.192,0,0,0,1.192-1.192h0A1.192,1.192,0,0,0,273.252,183.07Z" transform="translate(-156.745 -135.48)" fill="#407bff" opacity="0.6"/>
      <path id="Path_2138" data-name="Path 2138" d="M273.252,177.58H262.8a1.2,1.2,0,0,0-1.192,1.192h0a1.192,1.192,0,0,0,1.192,1.192h10.45a1.192,1.192,0,0,0,1.192-1.192h0A1.2,1.2,0,0,0,273.252,177.58Z" transform="translate(-156.745 -133.091)" fill="#407bff" opacity="0.6"/>
      <path id="Path_2139" data-name="Path 2139" d="M273.252,172.09H262.8a1.2,1.2,0,0,0-1.192,1.192h0a1.2,1.2,0,0,0,1.192,1.2h10.45a1.2,1.2,0,0,0,1.192-1.2h0A1.2,1.2,0,0,0,273.252,172.09Z" transform="translate(-156.745 -130.702)" fill="#407bff" opacity="0.6"/>
      <rect id="Rectangle_201" data-name="Rectangle 201" width="4.361" height="2.384" transform="translate(123.156 93.881) rotate(180)" fill="#ebebeb"/>
      <rect id="Rectangle_202" data-name="Rectangle 202" width="4.361" height="2.384" transform="translate(123.156 96.977) rotate(180)" fill="#407bff"/>
      <rect id="Rectangle_203" data-name="Rectangle 203" width="4.361" height="2.384" transform="translate(123.156 100.084) rotate(180)" fill="#ebebeb"/>
      <rect id="Rectangle_204" data-name="Rectangle 204" width="4.361" height="2.384" transform="translate(128.234 93.881) rotate(180)" fill="#ebebeb"/>
      <rect id="Rectangle_205" data-name="Rectangle 205" width="4.361" height="2.384" transform="translate(128.234 96.977) rotate(180)" fill="#ebebeb"/>
      <rect id="Rectangle_206" data-name="Rectangle 206" width="4.361" height="2.384" transform="translate(128.234 100.084) rotate(180)" fill="#407bff"/>
      <path id="Path_2140" data-name="Path 2140" d="M273.252,205.24H262.8a1.2,1.2,0,0,0-1.192,1.2h0a1.2,1.2,0,0,0,1.192,1.192h10.45a1.2,1.2,0,0,0,1.192-1.192h0a1.2,1.2,0,0,0-1.192-1.2Z" transform="translate(-156.745 -145.126)" fill="#ebebeb"/>
      <path id="Path_2141" data-name="Path 2141" d="M273.252,199.76H262.8a1.192,1.192,0,0,0-1.192,1.192h0a1.2,1.2,0,0,0,1.192,1.192h10.45a1.2,1.2,0,0,0,1.192-1.192h0A1.192,1.192,0,0,0,273.252,199.76Z" transform="translate(-156.745 -142.742)" fill="#407bff" opacity="0.6"/>
      <path id="Path_2142" data-name="Path 2142" d="M273.252,194.27H262.8a1.192,1.192,0,0,0-1.192,1.192h0a1.192,1.192,0,0,0,1.192,1.192h10.45a1.192,1.192,0,0,0,1.192-1.192h0A1.192,1.192,0,0,0,273.252,194.27Z" transform="translate(-156.745 -140.353)" fill="#407bff" opacity="0.6"/>
      <rect id="Rectangle_207" data-name="Rectangle 207" width="4.361" height="2.384" transform="translate(123.156 81.358) rotate(180)" fill="#ebebeb"/>
      <rect id="Rectangle_208" data-name="Rectangle 208" width="4.361" height="2.384" transform="translate(123.156 84.454) rotate(180)" fill="#ebebeb"/>
      <rect id="Rectangle_209" data-name="Rectangle 209" width="4.361" height="2.384" transform="translate(123.156 87.555) rotate(180)" fill="#407bff"/>
      <rect id="Rectangle_210" data-name="Rectangle 210" width="4.361" height="2.384" transform="translate(128.234 81.358) rotate(180)" fill="#407bff"/>
      <rect id="Rectangle_211" data-name="Rectangle 211" width="4.361" height="2.384" transform="translate(128.234 84.454) rotate(180)" fill="#ebebeb"/>
      <rect id="Rectangle_212" data-name="Rectangle 212" width="4.361" height="2.384" transform="translate(128.234 87.555) rotate(180)" fill="#407bff"/>
      <path id="Path_2143" data-name="Path 2143" d="M273.252,227.42H262.8a1.2,1.2,0,0,0-1.192,1.192h0A1.192,1.192,0,0,0,262.8,229.8h10.45a1.192,1.192,0,0,0,1.192-1.192h0A1.2,1.2,0,0,0,273.252,227.42Z" transform="translate(-156.745 -154.778)" fill="#407bff" opacity="0.6"/>
      <path id="Path_2144" data-name="Path 2144" d="M273.252,221.93H262.8a1.2,1.2,0,0,0-1.192,1.192h0a1.2,1.2,0,0,0,1.192,1.2h10.45a1.2,1.2,0,0,0,1.192-1.2h0A1.2,1.2,0,0,0,273.252,221.93Z" transform="translate(-156.745 -152.389)" fill="#407bff" opacity="0.6"/>
      <path id="Path_2145" data-name="Path 2145" d="M273.252,216.45H262.8a1.192,1.192,0,0,0-1.192,1.192h0a1.2,1.2,0,0,0,1.192,1.192h10.45a1.2,1.2,0,0,0,1.192-1.192h0A1.192,1.192,0,0,0,273.252,216.45Z" transform="translate(-156.745 -150.004)" fill="#407bff" opacity="0.6"/>
      <rect id="Rectangle_213" data-name="Rectangle 213" width="4.361" height="2.384" transform="translate(123.156 68.824) rotate(180)" fill="#407bff"/>
      <rect id="Rectangle_214" data-name="Rectangle 214" width="4.361" height="2.384" transform="translate(123.156 71.931) rotate(180)" fill="#ebebeb"/>
      <rect id="Rectangle_215" data-name="Rectangle 215" width="4.361" height="2.384" transform="translate(123.156 75.026) rotate(180)" fill="#ebebeb"/>
      <rect id="Rectangle_216" data-name="Rectangle 216" width="4.361" height="2.384" transform="translate(128.234 68.824) rotate(180)" fill="#ebebeb"/>
      <rect id="Rectangle_217" data-name="Rectangle 217" width="4.361" height="2.384" transform="translate(128.234 71.931) rotate(180)" fill="#ebebeb"/>
      <rect id="Rectangle_218" data-name="Rectangle 218" width="4.361" height="2.384" transform="translate(128.234 75.026) rotate(180)" fill="#407bff"/>
      <path id="Path_2146" data-name="Path 2146" d="M273.252,249.6H262.8a1.192,1.192,0,0,0-1.192,1.192h0a1.2,1.2,0,0,0,1.192,1.192h10.45a1.2,1.2,0,0,0,1.192-1.192h0A1.192,1.192,0,0,0,273.252,249.6Z" transform="translate(-156.745 -164.429)" fill="#407bff" opacity="0.6"/>
      <path id="Path_2147" data-name="Path 2147" d="M273.252,244.11H262.8a1.192,1.192,0,0,0-1.192,1.192h0a1.192,1.192,0,0,0,1.192,1.192h10.45a1.192,1.192,0,0,0,1.192-1.192h0A1.192,1.192,0,0,0,273.252,244.11Z" transform="translate(-156.745 -162.04)" fill="#407bff" opacity="0.6"/>
      <path id="Path_2148" data-name="Path 2148" d="M273.252,238.62H262.8a1.2,1.2,0,0,0-1.192,1.192h0a1.2,1.2,0,0,0,1.192,1.2h10.45a1.2,1.2,0,0,0,1.192-1.2h0A1.2,1.2,0,0,0,273.252,238.62Z" transform="translate(-156.745 -159.651)" fill="#407bff" opacity="0.6"/>
      <rect id="Rectangle_219" data-name="Rectangle 219" width="4.361" height="2.384" transform="translate(123.156 56.301) rotate(180)" fill="#ebebeb"/>
      <rect id="Rectangle_220" data-name="Rectangle 220" width="4.361" height="2.384" transform="translate(123.156 59.402) rotate(180)" fill="#407bff"/>
      <rect id="Rectangle_221" data-name="Rectangle 221" width="4.361" height="2.384" transform="translate(123.156 62.503) rotate(180)" fill="#ebebeb"/>
      <rect id="Rectangle_222" data-name="Rectangle 222" width="4.361" height="2.384" transform="translate(128.234 56.301) rotate(180)" fill="#407bff"/>
      <rect id="Rectangle_223" data-name="Rectangle 223" width="4.361" height="2.384" transform="translate(128.234 59.402) rotate(180)" fill="#ebebeb"/>
      <rect id="Rectangle_224" data-name="Rectangle 224" width="4.361" height="2.384" transform="translate(128.234 62.503) rotate(180)" fill="#ebebeb"/>
      <path id="Path_2149" data-name="Path 2149" d="M273.252,271.77H262.8a1.2,1.2,0,0,0-1.192,1.192h0a1.2,1.2,0,0,0,1.192,1.2h10.45a1.2,1.2,0,0,0,1.192-1.2h0a1.2,1.2,0,0,0-1.192-1.192Z" transform="translate(-156.745 -174.076)" fill="#407bff" opacity="0.6"/>
      <path id="Path_2150" data-name="Path 2150" d="M273.252,266.29H262.8a1.192,1.192,0,0,0-1.192,1.192h0a1.2,1.2,0,0,0,1.192,1.192h10.45a1.2,1.2,0,0,0,1.192-1.192h0A1.192,1.192,0,0,0,273.252,266.29Z" transform="translate(-156.745 -171.691)" fill="#407bff" opacity="0.6"/>
      <rect id="Rectangle_225" data-name="Rectangle 225" width="12.834" height="2.384" rx="1.192" transform="translate(104.865 91.498)" fill="#407bff" opacity="0.6"/>
      <rect id="Rectangle_226" data-name="Rectangle 226" width="4.361" height="2.384" transform="translate(123.156 43.778) rotate(180)" fill="#407bff"/>
      <rect id="Rectangle_227" data-name="Rectangle 227" width="4.361" height="2.384" transform="translate(123.156 46.873) rotate(180)" fill="#ebebeb"/>
      <rect id="Rectangle_228" data-name="Rectangle 228" width="4.361" height="2.384" transform="translate(123.156 49.974) rotate(180)" fill="#ebebeb"/>
      <rect id="Rectangle_229" data-name="Rectangle 229" width="4.361" height="2.384" transform="translate(128.234 43.778) rotate(180)" fill="#ebebeb"/>
      <rect id="Rectangle_230" data-name="Rectangle 230" width="4.361" height="2.384" transform="translate(128.234 46.873) rotate(180)" fill="#ebebeb"/>
      <rect id="Rectangle_231" data-name="Rectangle 231" width="4.361" height="2.384" transform="translate(128.234 49.974) rotate(180)" fill="#407bff"/>
    </g>
  </g>
</svg>
