<?xml version="1.0" encoding="utf-8"?>
<!-- Generator: Adobe Illustrator 16.0.0, SVG Export Plug-In . SVG Version: 6.00 Build 0)  -->
<!DOCTYPE svg PUBLIC "-//W3C//DTD SVG 1.1//EN" "http://www.w3.org/Graphics/SVG/1.1/DTD/svg11.dtd">
<svg version="1.1" id="Layer_1" xmlns="http://www.w3.org/2000/svg" xmlns:xlink="http://www.w3.org/1999/xlink" x="0px" y="0px"
	 width="612px" height="419px" viewBox="0 220.5 612 419" enable-background="new 0 220.5 612 419" xml:space="preserve">
<g id="freepik--Shadow--inject-60">
	<ellipse id="freepik--path--inject-60" fill="#F5F5F5" cx="306" cy="599.478" rx="237.321" ry="13.855"/>
</g>
<g id="freepik--Website--inject-60">
	<rect x="107.186" y="306.55" fill="#4E75FF" width="1.224" height="23.5"/>
	<rect x="107.186" y="338.925" fill="#4E75FF" width="1.224" height="10.796"/>
	<path fill="#4E75FF" d="M123.991,248.275h318.228c7.152,0,12.95,5.798,12.95,12.95v199.438c0,7.152-5.798,12.95-12.95,12.95
		H123.991c-7.152,0-12.95-5.798-12.95-12.95V261.226C111.042,254.073,116.839,248.275,123.991,248.275z"/>
	<path fill="#FFFFFF" d="M115.35,460.664V261.213c0-4.766,3.864-8.629,8.629-8.629h318.24c4.766,0,8.63,3.863,8.63,8.629v199.451
		c0,4.766-3.864,8.629-8.63,8.629h-318.24C119.213,469.293,115.35,465.43,115.35,460.664z"/>
	<path opacity="0.6" fill="#4E75FF" enable-background="new    " d="M244.261,434.458v34.848h77.651v-34.848
		c0-6.76-5.48-12.24-12.24-12.24h-53.207C249.719,422.238,244.261,427.713,244.261,434.458z"/>
	<path opacity="0.6" fill="#4E75FF" enable-background="new    " d="M342.451,434.458v34.848h77.687v-34.848
		c0-6.76-5.479-12.24-12.239-12.24h-53.244C347.908,422.238,342.451,427.713,342.451,434.458z"/>
	<path opacity="0.6" fill="#4E75FF" enable-background="new    " d="M146.06,434.458v34.848h77.699v-34.848
		c0-6.76-5.48-12.24-12.24-12.24h-53.244C151.525,422.231,146.06,427.708,146.06,434.458z"/>
	<path fill="#4E75FF" d="M394.483,274.42h22.533c1.724,0,3.121-1.397,3.121-3.121l0,0c0-1.724-1.397-3.121-3.121-3.121h-22.533
		c-1.722,0.007-3.115,1.4-3.122,3.121l0,0C391.368,273.02,392.762,274.413,394.483,274.42z"/>
	<circle fill="#4E75FF" cx="317.763" cy="271.299" r="4.92"/>
	<path fill="#4E75FF" d="M307.383,271.299c0,2.704-2.192,4.896-4.896,4.896c-2.704,0-4.896-2.192-4.896-4.896
		s2.192-4.896,4.896-4.896C305.191,266.403,307.383,268.595,307.383,271.299z"/>
	<path fill="#4E75FF" d="M148.019,266.268h6.156c1.082,0,1.958,0.877,1.958,1.958v6.157c0,1.082-0.876,1.958-1.958,1.958h-6.156
		c-1.082,0-1.958-0.877-1.958-1.958v-6.157C146.06,267.145,146.937,266.268,148.019,266.268z"/>
	<path opacity="0.2" fill="#263238" enable-background="new    " d="M186.586,272.854h-11.75c-0.858,0-1.554-0.696-1.554-1.555l0,0
		l0,0c0-0.858,0.696-1.555,1.554-1.555l0,0h11.75c0.859,0,1.555,0.696,1.555,1.555l0,0l0,0
		C188.141,272.157,187.445,272.854,186.586,272.854L186.586,272.854z"/>
	<path opacity="0.2" fill="#263238" enable-background="new    " d="M209.524,272.854h-11.75c-0.858,0-1.555-0.696-1.555-1.555l0,0
		l0,0c0-0.858,0.696-1.555,1.555-1.555l0,0h11.75c0.86,0,1.56,0.694,1.566,1.555l0,0
		C211.084,272.159,210.385,272.854,209.524,272.854z"/>
	<path opacity="0.2" fill="#263238" enable-background="new    " d="M232.474,272.854h-11.75c-0.861,0-1.56-0.694-1.567-1.555l0,0
		c0.007-0.86,0.706-1.555,1.567-1.555h11.75c0.859,0,1.555,0.696,1.555,1.555l0,0l0,0
		C234.029,272.157,233.333,272.854,232.474,272.854L232.474,272.854z"/>
	<path opacity="0.2" fill="#263238" enable-background="new    " d="M255.412,272.854h-11.75c-0.86,0-1.56-0.694-1.567-1.555l0,0
		c0.007-0.86,0.707-1.555,1.567-1.555h11.75c0.858,0,1.555,0.696,1.555,1.555l0,0l0,0
		C256.967,272.157,256.271,272.854,255.412,272.854L255.412,272.854z"/>
</g>
<g id="freepik--Character--inject-60">
	<path opacity="0.4" fill="#4E75FF" enable-background="new    " d="M253.332,303.96l248.179-7.445
		c7.151-0.215,13.124,5.409,13.338,12.562l2.169,72.289c0.215,7.152-5.409,13.124-12.562,13.338l-248.178,7.445
		c-7.152,0.215-13.124-5.409-13.338-12.561l-2.168-72.29C240.556,310.146,246.18,304.175,253.332,303.96z"/>
	<path opacity="0.4" fill="#4E75FF" enable-background="new    " d="M349.587,354.984l-77.345,2.644
		c-4.183,0.13-7.679-3.154-7.809-7.337c0-0.002,0-0.004,0-0.007l0,0c-0.13-4.183,3.154-7.679,7.337-7.809c0.002,0,0.004,0,0.007,0
		l77.344-2.644c4.183-0.13,7.679,3.155,7.81,7.337c0,0.002,0,0.005,0,0.007l0,0c0.144,4.168-3.119,7.664-7.288,7.807
		C349.624,354.982,349.605,354.983,349.587,354.984z"/>
	<path opacity="0.4" fill="#4E75FF" enable-background="new    " d="M324.14,378.864l-51.114,1.738
		c-4.162,0.131-7.649-3.122-7.809-7.283l0,0c-0.13-4.183,3.154-7.679,7.337-7.809c0.002,0,0.005,0,0.007,0l51.102-1.75
		c4.183-0.13,7.679,3.154,7.81,7.337c0,0.002,0,0.005,0,0.007l0,0C331.574,375.266,328.301,378.731,324.14,378.864z"/>
	<path fill="#7F3E3B" d="M510.163,350.173l2.216,6.867l8.127-7.442c-1.686-1.124-3.435-2.15-5.238-3.072
		c-1.359-0.721-3.046-0.207-3.771,1.15L510.163,350.173z"/>
	<polygon fill="#7F3E3B" points="520.445,362.695 523.945,354.519 520.506,349.598 512.379,357.04 	"/>
	<path fill="#7F3E3B" d="M432.55,299.72c-4.174,5.618-8.495,10.894-13.109,16.096c-4.631,5.276-9.576,10.267-14.811,14.945
		l-0.294,0.257l-0.587,0.478c-0.392,0.306-0.8,0.587-1.225,0.845c-0.864,0.469-1.786,0.823-2.741,1.053
		c-1.565,0.367-3.188,0.417-4.773,0.146c-2.285-0.41-4.488-1.187-6.524-2.301c-3.301-1.83-6.395-4.008-9.229-6.5
		c-5.323-4.636-10.182-9.781-14.505-15.361l4.896-4.639c5.092,4.149,10.428,8.286,15.765,11.799
		c2.501,1.698,5.156,3.157,7.932,4.357c0.987,0.444,2.042,0.717,3.121,0.808c0.306,0,0.453-0.061,0.27-0.061
		c-0.133,0.01-0.262,0.047-0.38,0.11c-0.078,0.031-0.152,0.072-0.22,0.123l-0.099,0.061l0.159-0.171
		c2.24-2.277,4.406-4.725,6.585-7.173c2.18-2.448,4.284-5.019,6.402-7.564c4.21-5.116,8.433-10.379,12.484-15.52L432.55,299.72z"/>
	<polygon fill="#7F3E3B" points="365.009,294.065 355.474,296.011 360.162,304.359 368.645,297.786 	"/>
	<path fill="#7F3E3B" d="M369.844,306.477l-1.224-8.69l-8.482,6.573c0,0,1.31,7.564,7.344,7.564L369.844,306.477z"/>
	<path fill="#263238" d="M370.48,304.739c-0.504,0.006-0.911,0.414-0.918,0.918c-0.006,0.069-0.006,0.139,0,0.208
		c-0.125-0.064-0.264-0.098-0.404-0.098c-0.507,0-0.918,0.411-0.918,0.918c0.009,0.088,0.029,0.175,0.062,0.257h-0.062
		c-0.504,0.006-0.911,0.414-0.918,0.918c0.006,0.196,0.074,0.385,0.196,0.539l0,0c-0.507,0-0.918,0.411-0.918,0.918
		c0.007,0.199,0.075,0.392,0.195,0.551c-0.423,0.082-0.73,0.45-0.734,0.881c0.009,0.286,0.148,0.553,0.38,0.722
		c-0.366,0.125-0.612,0.47-0.612,0.856c0,0.507,0.411,0.918,0.918,0.918s0.918-0.411,0.918-0.918
		c0.002-0.286-0.135-0.555-0.367-0.722c0.359-0.132,0.598-0.474,0.6-0.856c-0.007-0.2-0.075-0.392-0.195-0.551
		c0.423-0.082,0.73-0.45,0.734-0.881c-0.007-0.196-0.076-0.384-0.196-0.539l0,0c0.5,0.007,0.911-0.393,0.918-0.894
		c0-0.008,0-0.016,0-0.024c0.012-0.085,0.012-0.172,0-0.257l0,0c0.507,0,0.918-0.411,0.918-0.918c0.006-0.069,0.006-0.139,0-0.208
		c0.121,0.063,0.256,0.096,0.392,0.098c0.507,0,0.918-0.411,0.918-0.918c0-0.507-0.411-0.918-0.918-0.918H370.48z"/>
	<path fill="#7F3E3B" d="M482.378,290.405c2.853,5.043,5.594,10.135,8.274,15.276c2.681,5.141,5.3,10.293,7.858,15.496l0.955,1.946
		l0.808,1.591l0.942,1.652l1.064,1.701c1.481,2.265,3.061,4.59,4.7,6.891l9.976,13.978l-4.896,4.651
		c-4.596-3.718-8.969-7.703-13.097-11.934c-2.069-2.13-4.113-4.321-6.12-6.708l-1.457-1.824l-1.396-1.995
		c-0.452-0.71-0.979-1.518-1.37-2.167l-1.114-1.86c-2.986-4.896-5.888-9.951-8.751-14.97c-2.864-5.018-5.644-10.085-8.323-15.202
		L482.378,290.405z"/>
	<path fill="#263238" d="M436.074,255.632c0.159,0.71-0.098,1.371-0.551,1.493s-0.954-0.367-1.113-1.077s0.109-1.383,0.563-1.493
		C435.426,254.444,435.928,254.922,436.074,255.632z"/>
	<path fill="#630F0F" d="M436.038,256.99c-0.376,2.388-1.071,4.714-2.069,6.916c1.14,0.458,2.424,0.382,3.501-0.208L436.038,256.99z
		"/>
	<path fill="#263238" d="M434.202,251.311c-0.139,0-0.27-0.063-0.355-0.171c-0.136-0.194-0.088-0.461,0.105-0.597
		c0.002-0.001,0.003-0.002,0.005-0.003c1.159-0.724,2.6-0.833,3.855-0.294c0.216,0.095,0.318,0.343,0.232,0.563
		c-0.09,0.219-0.34,0.324-0.559,0.234c-0.001,0-0.003-0.001-0.004-0.002c-0.984-0.43-2.115-0.357-3.036,0.196
		C434.374,251.286,434.289,251.311,434.202,251.311z"/>
	<path fill="#7F3E3B" d="M460.493,257.884c0.796,8.274-0.379,16.279,1.481,23.464c0,0-2.057,6.671-14.284,6.671
		c-13.464,0-6.12-6.671-6.12-6.671c7.344-1.75,7.43-7.185,6.353-12.301L460.493,257.884z"/>
	<path fill="#263238" d="M463.639,283.637c1.053-2.105,2.203-4.529,0-5.288c-2.374-0.833-15.557-1.677-20.171-0.11
		c-2.557,0.684-4.106,3.275-3.501,5.851L463.639,283.637z"/>
	<path fill="#4E75FF" d="M489.845,584.582c0.848-0.197,1.669-0.493,2.448-0.882c0.085-0.039,0.139-0.126,0.135-0.22
		c-0.016-0.092-0.075-0.17-0.159-0.208c-0.392-0.135-3.905-1.384-4.896-0.612c-0.21,0.177-0.308,0.452-0.257,0.722
		c0.046,0.467,0.321,0.88,0.734,1.102C488.481,584.754,489.189,584.788,489.845,584.582z M491.559,583.529
		c-1.555,0.673-2.828,0.881-3.439,0.551c-0.282-0.153-0.466-0.439-0.49-0.759c0-0.184,0-0.257,0.086-0.294
		C488.205,582.623,490.15,583.063,491.559,583.529L491.559,583.529z"/>
	<path fill="#4E75FF" d="M492.244,583.725l0.109-0.061c0.063-0.061,0.086-0.15,0.062-0.233c0-0.122-0.856-2.839-2.166-3.513
		c-0.313-0.179-0.689-0.21-1.028-0.085l0,0c-0.352,0.075-0.602,0.387-0.6,0.746c0,1.114,2.447,2.815,3.5,3.134L492.244,583.725z
		 M489.466,580.236c0.197-0.04,0.402-0.005,0.575,0.098c0.854,0.725,1.472,1.688,1.774,2.767c-1.15-0.538-2.717-1.873-2.729-2.533
		c0-0.062,0-0.196,0.281-0.294l0,0L489.466,580.236z"/>
	<path fill="#4E75FF" d="M426.772,590.995c0.867-0.019,1.729-0.138,2.57-0.354c0.09-0.02,0.158-0.093,0.171-0.184
		c0.02-0.091-0.02-0.184-0.098-0.232c-0.355-0.232-3.525-2.179-4.614-1.616c-0.25,0.126-0.406,0.382-0.404,0.661
		c-0.048,0.464,0.136,0.921,0.489,1.224C425.439,590.872,426.104,591.05,426.772,590.995z M428.669,590.31
		c-1.664,0.343-2.949,0.282-3.488-0.171c-0.24-0.211-0.36-0.527-0.318-0.845c0-0.184,0.086-0.245,0.147-0.27
		C425.572,588.731,427.384,589.575,428.669,590.31z"/>
	<path fill="#4E75FF" d="M429.294,590.616c0.04,0.011,0.082,0.011,0.122,0c0.071-0.05,0.113-0.133,0.11-0.221
		c0-0.122-0.245-2.949-1.396-3.88c-0.273-0.236-0.633-0.348-0.991-0.306l0,0c-0.359,0.005-0.665,0.26-0.734,0.611
		c-0.208,1.102,1.762,3.244,2.778,3.795C429.219,590.628,429.258,590.628,429.294,590.616z M427.311,586.626
		c0.194,0.005,0.381,0.078,0.526,0.208c0.69,0.887,1.096,1.962,1.163,3.084c-1.004-0.771-2.265-2.447-2.143-3.048
		c0-0.061,0-0.195,0.343-0.232h0.11V586.626z"/>
	<polygon fill="#7F3E3B" points="439.869,590.298 430.872,590.298 430.787,569.478 439.771,569.478 	"/>
	<polygon fill="#7F3E3B" points="502.709,581.51 493.908,583.382 485.94,563.786 494.741,561.913 	"/>
	<path fill="#263238" d="M493.113,582.488l9.877-2.104c0.354-0.072,0.71,0.111,0.857,0.44l3.097,7.515
		c0.272,0.714-0.086,1.514-0.8,1.786c-0.07,0.026-0.143,0.048-0.217,0.063c-3.464,0.673-5.165,0.832-9.51,1.763
		c-2.681,0.563-8.14,2.02-11.824,2.803s-4.811-2.79-3.366-3.451c6.524-2.938,8.715-5.533,10.551-7.969
		C492.106,582.899,492.58,582.599,493.113,582.488z"/>
	<path fill="#263238" d="M430.971,589.258h9.792c0.366-0.012,0.686,0.25,0.746,0.611l1.469,7.993
		c0.129,0.739-0.366,1.442-1.105,1.571c-0.084,0.015-0.168,0.021-0.253,0.02c-3.537,0-8.642-0.257-13.097-0.257
		c-5.214,0-9.719,0.281-15.826,0.281c-3.672,0-4.565-3.733-3.011-4.075c7.099-1.53,12.852-1.702,19.069-5.447
		C429.416,589.525,430.183,589.284,430.971,589.258z"/>
	<path fill="#4E75FF" d="M479.123,283.392c8.359,1.934,17.136,24.908,17.136,24.908l-17.369,11.604
		c-3.987-6.046-7.482-12.403-10.452-19.009C463.896,290.369,470.591,281.409,479.123,283.392z"/>
	<path opacity="0.2" enable-background="new    " d="M472.525,298.08l7.185,21.31l-0.82,0.551c0,0-3.28-4.896-6.769-11.42
		L472.525,298.08z"/>
	<path fill="#4E75FF" d="M423.026,323.551c0.073,10.037,0.674,22.522,2.167,38.018h48.103c0.625-7.344-2.631-43.403,5.826-78.189
		c-5.29-1.026-10.643-1.705-16.021-2.032c-6.809-0.392-13.633-0.392-20.441,0c-4.694,0.457-9.348,1.275-13.917,2.448
		c0,0-4.124,4.456-5.36,25.349C423.137,313.319,423.002,318.068,423.026,323.551z"/>
	<path opacity="0.2" enable-background="new    " d="M423.026,323.551c2.913-5.312,8.201-15.973,7.454-22.032l-7.099,7.687
		C423.137,313.319,423.002,318.068,423.026,323.551z"/>
	<path fill="#4E75FF" d="M438.192,291.96c0.759,8.568-18.666,29.18-18.666,29.18l-15.606-12.668
		c4.082-6.877,8.973-13.243,14.565-18.959C427.592,280.699,437.311,282.376,438.192,291.96z"/>
	<g opacity="0.2">
		<polygon points="430.787,569.478 430.823,580.212 439.82,580.212 439.783,569.478 		"/>
		<polygon points="494.741,561.926 485.94,563.798 490.053,573.896 498.854,572.023 		"/>
	</g>
	<path fill="#7F3E3B" d="M459.221,248.202c1.31,8.85,2.521,13.954-0.882,19.522c-3.272,5.518-10.399,7.337-15.916,4.064
		c-2.033-1.206-3.65-3.004-4.635-5.153c-3.513-7.344-5.08-20.612,2.644-26.218c5.129-3.954,12.492-3.001,16.446,2.127
		C458.146,244.19,458.954,246.142,459.221,248.202z"/>
	<path fill="#263238" d="M443.088,255.668c-4.443,0.747-6.94-4.357-3.525-8.727c-6.475,0.293-9.229-3.023-6.34-8.948
		c2.448-5.104,10.27-2.607,10.27-2.607s6.512-8.751,14.21-3.88c8.263,5.227,3.881,10.061,3.881,10.061s11.86,1.64,8.8,10.159
		c-0.948,2.659-3.317,4.555-6.119,4.896c0,0,3.035,9.131-5.961,11.016C449.306,269.524,440.224,262.009,443.088,255.668z"/>
	<path fill="#7F3E3B" d="M445.817,253.392c0.16,2.247-0.401,4.485-1.604,6.39c-1.604,2.448-3.807,1.53-4.517-1.028
		c-0.648-2.301-0.6-6.377,1.567-7.993C443.431,249.145,445.536,250.699,445.817,253.392z"/>
	<path fill="#263238" d="M442.256,361.569c0,0,7.552,68.704,12.166,94.407c5.043,28.152,31.176,116.685,31.176,116.685l16.107-3.428
		c0,0-17.98-82.779-20.404-110.698c-2.631-30.294-8.005-97.014-8.005-97.014L442.256,361.569z"/>
	<path fill="#4E75FF" d="M481.999,567.274c-0.073,0,2.741,5.888,2.741,5.888l18.115-3.855l-1.297-5.496L481.999,567.274z"/>
	<path opacity="0.2" enable-background="new    " d="M447.764,386.049c11.714,2.313,8.764,46.316,6.475,68.948
		c-2.79-15.998-6.585-46.781-9.143-68.63C445.924,385.963,446.864,385.851,447.764,386.049z"/>
	<path fill="#263238" d="M425.205,361.569c0,0-3.843,67.234-3.917,94.652c-0.085,28.52,6.268,121.91,6.268,121.91h15.238
		c0,0,4.101-91.727,5.851-119.731c1.922-30.6,8.177-96.831,8.177-96.831H425.205z"/>
	<path fill="#4E75FF" d="M423.026,355.204c-0.043,2.171,0.326,4.332,1.09,6.365c-0.356,1.835-0.541,3.7-0.551,5.569
		c4.896,1.726,51.139,3.868,51.041,0c-0.099-3.868,0-5.569,0-5.569s1.224-5.447,0-6.365
		C473.382,354.286,423.369,351.936,423.026,355.204z"/>
	<path opacity="0.3" enable-background="new    " d="M423.026,355.204c-0.043,2.171,0.326,4.332,1.09,6.365
		c-0.356,1.835-0.541,3.7-0.551,5.569c4.896,1.726,51.139,3.868,51.041,0c-0.099-3.868,0-5.569,0-5.569s1.224-5.447,0-6.365
		C473.382,354.286,423.369,351.936,423.026,355.204z"/>
	<path fill="#4E75FF" d="M424.862,572.061c-0.073,0,0.612,6.328,0.612,6.328h18.531l0.723-5.643L424.862,572.061z"/>
</g>
</svg>
